<svg width="1464.2" height="543.9" viewBox="0 0 387.4 143.9" xmlns="http://www.w3.org/2000/svg"><defs><clipPath id="a"><path d="M62 0h890.2v408H62z"/></clipPath></defs><path d="M72.5 138a108 108 0 0 1-10.6-1.5c-7.8-1.6-12-3.4-18.6-8a67.6 67.6 0 0 1-19.7-20.2l-3.2-4.7c-2-3.1-2.5-3.8-4.5-7.4C12 89.7 9 82.5 3.4 67.6A66.8 66.8 0 0 0 0 60c0-.1 0-.2.3-.2.7 0 1.8 1.8 3 5.2L7 74.6a148 148 0 0 0 14.2 28.6A76.9 76.9 0 0 0 47.4 130c6.4 3.7 10.4 5 19.9 6.4a78.7 78.7 0 0 0 51.2-10.9 42 42 0 0 0 9.3-7.4c7-6.9 10-9 16-12a32 32 0 0 1 14.8-3.7c1.5 0 2.8-.1 2.7-.2l-1.2-1.2c-1.8-1.3-8.2-7.6-10-9.8-1.8-2-1.9-2.1-5.2-1.3a60.8 60.8 0 0 0-26.3 12.9c-6.2 5.2-7.2 6-9.8 7.8a54.3 54.3 0 0 1-31 10.2 59.3 59.3 0 0 1-34-9.8 63 63 0 0 1-18.4-19.2l-2-3.5-1.4-2.7-.6-1.6A64.2 64.2 0 0 1 17 63.6c-.1-2.6-.4-5-.5-5.4-.2-.6-.3-.6-.7-.2-.6.5-.9.6-.9 0 0-.2.3-.5.7-.8 1.6-1 2 .4 2.5 7.3 1.1 16.2 6.1 27.4 17 38.3a55.8 55.8 0 0 0 32 16.4c4.2.7 14 .7 18 0a53 53 0 0 0 16.2-5.2 65 65 0 0 0 14.7-10.2c5.6-4.8 8.3-6.6 14.2-9.6A86.9 86.9 0 0 1 145 89c2.2-.5 2.7-.9 2-1.7-1.2-1.3-4.2-6-4-6.3.2-.6.6-.3 1.5 1.3L147 86c1.8 2.2 1.4 2.1 5.8 1.4a70.5 70.5 0 0 1 17-.2l-1.4-1.2a64.3 64.3 0 0 1-16-20.8c0-.2-.6-.7-1.2-1-1.2-.7-2-1-1.6-.5.3.5.2 3.3-.2 4.3a7.3 7.3 0 0 1-6.9 4.7h-1.7l-2.4 3a55.2 55.2 0 0 0-2.7 3.5c-.2.5-4.3 3-4.7 3-.6 0-2.3-2.3-3.2-4.4l-3-6-2-3.3-2.4 1.4a9.9 9.9 0 0 1-2.8 1.2c-.5-.2-2-3-2-3.6 0-.3.1-.6.3-.8.2-.2.2-.7 0-1.8-.3-1-.3-1.5 0-1.8a39 39 0 0 1 8.4-1.7c.6 0 .7.3 1 1.6.1.9.3 1.6.4 1.7.1 0 .6 0 1.1-.2.8-.2 1-.2 1.3 0l2.2 4.3 1.8 4 4-4-.4-1.4c-.9-3.7 1-7 4.6-8.6l1.5-.5-.7-.5c-.5-.3-.7-.6-.5-1 .1-.7 0-.7-6.7.8a190 190 0 0 1-20.2 3c-8.1.9-13.4 1.4-13.6 1.3-.2-.2-.5 0-.8.3-1.1 1.2-3.1 1.7-4.4 1.2-.5-.2-1.3-.8-1.7-1.4-.8-.8-.9-1.1-.9-2.3 0-3.3 3.7-5.3 6.2-3.4.6.5.7.5 1.4.2.5-.3 5.2-1 12.8-1.8a286.9 286.9 0 0 0 32.6-5.7l1.1-1.6c.6-.9 1.1-1.4 1.5-1.4a6 6 0 0 1 2 1c1 .7 1.5.9 2 .8.4-.1.7-.3.7-.4 0-.1-.6-.6-1.4-1-.8-.6-1.5-1.1-1.5-1.3 0-.3 5-8.4 5.6-9 .2-.2 8 4.5 8.8 5.4.5.5.4.6-.7 2.5-1 1.6-1.5 2.6-1.2 2.5l8.5-1 8.5-1 11.7-4.3a246 246 0 0 1 12.3-4.2c.3 0 1-.6 1.6-1.3 1-1 1.3-1.2 2.5-1.3 1.2-.1 1.6 0 2.4.5.8.4 1.5.6 3.3.7l2.2.2V44h-9v-1.4c-.2-1.7-.5-2.2-1-1.5-.4.6-24.8 9.4-26 9.4-.7 0-18.2 2-19.3 2.3-.6 0-5.2 7-5.2 7.8 0 .8 7.4 10 11.8 14.8A77.6 77.6 0 0 0 186 90.5c3.9 2.1 10.1 4.3 15 5.2a52 52 0 0 0 20.6.1 80.7 80.7 0 0 0 8.2-3.2A65.6 65.6 0 0 0 248 78.9a57.8 57.8 0 0 0 12-20l.7-2.3-1.1-.6-9.3-5c-6.7-3.6-10.2-5.7-18.7-11.2a226 226 0 0 1-11-7.4c-.5-.5-.8-.7-1.8-.7-4.3 0-5.7-5.5-2-7.4 2.2-1 4.4-.3 5.4 1.9.4.8.8 1.3 1.1 1.4.3 0 5.5 3.3 11.6 7.3 6 4 11.3 7.2 11.5 7.3.3.1 4 2 8.3 4.4a83 83 0 0 0 8.4 4.1c.3 0 .7-1.1 1.5-4.1.6-2.2 1.2-4.2 1.4-4.3.1-.2 1.9.1 5.2 1l5 1.3v1.2l.1 1.3 6.4-4.5c7.3-5.2 26.6-18 27.5-18.3.4 0 .7-.4.9-1 .2-.9 1.3-2.1 2.2-2.5l1.8-.2c1 0 1.4.2 2.2.9 1.3 1.2 1.7 2.2 1.4 3.8-.5 2-2 3.2-4.2 3.2-.6 0-1.2.2-1.3.4-.1.2-5.3 3.8-11.6 8A499 499 0 0 0 274 56.4c0 .1.2.4.6.5.5.3 1 .2 3.2-.5 3.2-1.1 7.9-2.2 11.2-2.6 4-.4 3.6-.3 3.6-2 0-1.5.4-2.4 2-3.5 1.6-1 4.2-.4 5.2 1.3.3.6.6.8 1 .7.3 0 6.3 1.6 13.3 3.8a200.6 200.6 0 0 0 33.5 8c.7.6 2.7.9 2.9.5 0-.1-.3-.5-1-.8-.7-.4-1-.7-1-1a60.7 60.7 0 0 1 5.1-9c.3 0 1 .2 1.5.5 1.2.6 2 .6 2.2.1l3.4-5.2 3.2-4.9 4.9-11.5c2.7-6.3 5-11.8 5.3-12.1.3-.5.4-1.2.4-2.4-.1-1.9.4-3 1.8-3.9.8-.4 1.4-.5 6-.5h5v9.3h-4l-4 .1-5 11.9a204 204 0 0 1-5.6 12.6c-.6.7-4.5 6.7-5.9 9-.6.9-.6 1-.1 1.4.4.5.4.6-.2 1.8l-2.5 4.7c-1.7 3.2-1.9 3.3-2.5 3.2-2.4-.6-2.8.2-.7 1.2 1 .5 1.5 1 1.5 1.2 0 .3-1 2.4-2.2 4.7l-2.3 4.4.5 1c.2.6.5 1.9.6 3l.1 2.2 3.5 1.3c2.6 1 4 1.7 5.3 2.8 1 .8 2 1.5 2 1.7s-.9 1.5-1.9 3a26 26 0 0 0-2.4 3.8c-.1 0-1.2 1.3-2.3 3l-2.3 3.1c-.2.1.5 1 1.7 2.3 1.3 1.2 2 2.3 2 2.6 0 .6-2.3 3-2.8 3-.3 0-5.8-5.1-6.4-6-.4-.4-.3-.6 1-2 1-1 1.2-1.3 1-1.6s-1 0-3 1c-1.3.6-2.7 1.2-3 1.2-.4 0-.4.2.1 3 .7 3.7.7 3.6-1.9 4.1-1.3.3-1.7.3-2 0-.4-.4-1.8-8.2-1.6-8.8 0-.2.9-.5 1.8-.6l1.7-.4c0-.1 0-.6-.3-1.1-.4-.7-.4-1-.2-1.3a61 61 0 0 1 4.7-2.4l4.4-2.2-1.7-2.4-1.8-2.4-2.1.1c-2.6.2-3.6-.1-5.4-1.6a6.3 6.3 0 0 1-2.5-4.8c-.1-2.1.5-4 1.8-5.2.7-.8.9-1 .6-1.3l-1.5-.8c-.6-.4-1-.9-1.1-1.2 0-.3.5-1.7 1.2-3l1.4-2.8c0-.1-4.1-1.1-9.1-2.2-8-1.7-10.5-2.3-21.6-5.8-7-2-12.8-4-13-4.2-.4-.3-.6-.3-1 0-1 .4-3.3.1-4.3-.6-.8-.6-.9-.6-3.6-.3a58.5 58.5 0 0 0-15.4 3.7c-.2.1-1 2.7-1.7 5.8l-1.6 5.8c-.1.1 0 1 .4 2 .9 2.7.4 5-1.5 7.3l-.8.9v5.3a30 30 0 0 1-.6 6.4c.2.2 5-5.4 6.6-7.8 2-2.7 2.5-3.2 2.3-2-.2.8 0 .9.6.2 1-1.3 8-6.3 11.7-8.6a43.8 43.8 0 0 1 18.6-5.6c6.4-.4 14.5 1.5 20 4.8 2.4 1.5 8.1 6.4 8.1 7 0 .6-.9 0-3-1.9a25.6 25.6 0 0 0-10-6.5 37.7 37.7 0 0 0-22.8-1.3c-3.6 1-9.2 3.5-12.6 5.6-6 3.8-12.1 9.2-15.8 13.8a77.8 77.8 0 0 1-50.8 28.6 87.8 87.8 0 0 1-23.9-1c-1.5-.3-3.9-.7-5.3-.8A43.3 43.3 0 0 1 176 111a60.6 60.6 0 0 1-11-6.3c-1.5-1.2-1.8-1.3-3.6-1.4a34 34 0 0 0-14.3 2.1 57.4 57.4 0 0 0-19.3 13.6c-4.2 4.1-7 6.2-11.2 8.7a83.4 83.4 0 0 1-44.1 10.1zm151-21c1.5-.1 2.8-.4 2.8-.4a427.4 427.4 0 0 0-22.3.5c.7.6 14.7.6 19.5 0zm-18.2-1.2a70.3 70.3 0 0 0-9.5-.2c.3.2 9.7.4 9.5.2zm26.7-1.3c4.2-.3 6.9-1.2 12.8-4a72 72 0 0 0 21.7-15.8c0-.2-.4-.3-.7-.3-.4 0-1.2-.5-2-1.1a63 63 0 0 0-5.7-4c-3.4-2-4.6-2.9-4.6-3.3 0-.3-.2-.6-.3-.6l-2.8 1.8a15 15 0 0 1-3.2 1.7c-.4 0-.8-.4-1.1-1-1.1-2-1.2-2-2.9-.8a50.4 50.4 0 0 1-18.5 9.4 70.7 70.7 0 0 1-11.6 3A60.4 60.4 0 0 1 174 90c-2.7-1.7-4.1-2-10.4-2.2-6.2-.2-13.9.6-13.9 1.3 0 .7 5 5.7 7.2 7.4 2.8 2 8 5.1 13 7.5l9 4.6c7.9 4.1 10 5 13.5 5.3l8 .5c8 .3 27.8.3 31.6 0zm-49.5-2.8-6-3.2c-5.9-3-5.8-2.5.2 1.4 1.5 1 2.9 1.6 4.2 2 2.7.7 3 .6 1.6-.2zm-10.3-3.6c0-.3-3.7-2.9-4.7-3.2-1.5-.7-.7 0 2.2 1.8 2.5 1.5 2.5 1.6 2.5 1.4zm-7.7-5.6-1.4-.8-1.3-.7.8.8c.5.5 1.1.8 1.5.8h.4zm45.1-4.3c1.4-.2 1.4-.2-.9-.4a60.9 60.9 0 0 1-27.1-8.8 86.8 86.8 0 0 1-24.3-23.3c-1.6-2.2-3-4-3.2-4-.3 0-1.5 1.6-1.5 2l1.5 3.1a63.9 63.9 0 0 0 16 19.5c.8.6 2 1.5 2.8 1.8l3 2a52.1 52.1 0 0 0 33.7 8zm29.3-9c3.9-2.5 7-5.3 6.8-5.8-.2-.3-1 .4-2.8 2a60 60 0 0 1-5 4.2c0 .2.4 0 1-.4zm24.7-5.4c.4-2 .2-2.3-1.1-2.9a7.3 7.3 0 0 1-4.4-6.6c0-2 1-4 2.3-5.1 1-1 1-1.5 0-1.5-.8 0-2.9 2.3-5 5.6a81 81 0 0 1-2.7 4c-.7 1-.9 1.3-.5 1.1 1.2-.5 1.6-.3 2.3 1l.9 1.7c0 .1.4-.1.9-.5.4-.4 1-.7 1.1-.7.3 0 1.6 1 3 2.3l2.9 2.4.3-.8zM249 80.3c.6-.4 3.5-4.2 3.5-4.5 0-.3-.4 0-2.6 2.5-2 2.1-2.4 3-.9 2zm8-11.7.8-1.6c0-.3-2 2.9-2 3.2 0 .4.4-.2 1.2-1.6zm-184.3-6V53.5h9.3v9.3h-4.6c-3.5.1-4.6 0-4.7-.2z" fill="#99a6b0"/><path d="M72 137.6c-4.3-.2-11-1.3-15.4-2.5a65.2 65.2 0 0 1-30-22.6 270 270 0 0 1-10.9-16.8c-3.6-6.4-7-14-12.3-28.4A66.1 66.1 0 0 0 .3 60c.4-.4 1.9 2.2 3 5.2 6.6 17.2 7.2 18.6 11.2 26.6 2.4 4.9 3.8 7.2 8.6 14.5A69 69 0 0 0 34 119.9c6.9 6.8 16.6 12.9 23.5 14.7 2.6.7 6.8 1.5 10.6 2a79.2 79.2 0 0 0 45.6-8.3c6-3 9.4-5.4 14.4-10.3 7-6.6 10.8-9.5 16.3-12a31 31 0 0 1 14-3.4c1.7 0 3.1-.1 3.2-.2 0-.2-.9-1-2-2.1-3.1-2.6-9.3-9-11.5-11.8-2.4-3.1-4.9-6.8-4.9-7.2 0-.7.5-.4 1.1.8.9 1.4 4.2 6 4.6 6.3h.4a68.6 68.6 0 0 1 20.6-1c0-.1-.3-.6-.9-1.1a39.4 39.4 0 0 1-4.9-4.9c0-.1 1 .6 2 1.6 3.5 3 5.3 4.5 6.8 5.2a53.5 53.5 0 0 0 38.1 10c1-.3.2-.5-2.5-.7-8-.6-14.6-2.4-21.5-5.8a49.8 49.8 0 0 1-8-4.4 99.4 99.4 0 0 1-22.1-22.4c-1.5-2-2.7-3.5-2.9-3.5 0 0-.5.4-.9 1l-.7 1.1 1.1 2.2c2.9 5.6 6 10.3 9.1 13.6.6.6 1 1.2 1 1.4-.2.4-3-2.8-5-5.6a68 68 0 0 1-6.9-11l-1.1-.7a3 3 0 0 0-1-.5c-.1 0-.2.9-.1 2 .1 2.5-.3 3.9-1.8 5.4-1.5 1.5-2.5 2-5 2.1l-2 .2-1.4 1.6c-1.6 2-3.4 4.3-3.7 5-.1.2-1.2 1-2.3 1.6l-2.1 1.1-1-.8a9.2 9.2 0 0 1-2-3.3 65.5 65.5 0 0 0-5-9.3c-.3-.3-.7-.1-2.9 1l-2.5 1.4-.8-1.3c-1-1.5-1.2-2.3-.8-2.8.2-.3.2-.7 0-1.9-.2-.8-.2-1.6 0-1.7.2-.3 7.8-1.7 8.3-1.5.2 0 .5.8.7 1.7l.5 1.8c.2 0 .6 0 1-.3.5-.2 1-.3 1.2-.2.2.1 1.7 3.1 3 6.1 1.1 2.6 1.2 2.6 3.5.3l2-2-.4-2a7 7 0 0 1 5.4-8.3c1.2-.2 1.3-.5.3-1-.6-.2-.7-.4-.6-1.4 0-.5 0-.6-.6-.5a134.7 134.7 0 0 1-9.6 2c-3.7.8-9 1.5-23.3 3l-6.4.9c-.2 0-.6 0-.9-.3-.4-.4-.5-.4-1 .2-.7 1-1.2 1.3-2.3 1.5-2.1.5-4.3-1.3-4.3-3.5 0-3.3 3.5-5 6.1-2.8.7.5.7.5 1.1 0 .3-.3.8-.6 1.2-.6 2.1 0 24.1-2.7 27.5-3.4 13.7-2.8 16.3-3.4 16.7-3.6.2 0 .8-.8 1.3-1.6s1.1-1.4 1.4-1.4c.2 0 1 .4 1.9 1 1.3.7 1.7.8 2.4.7.5 0 1-.3 1-.5s-.7-.7-1.5-1.2l-1.6-1.1c-.2-.3 4.3-7.6 5.1-8.5.4-.4.8-.2 4.5 2.1 2.2 1.4 4.2 2.7 4.3 2.9.2.2 0 .9-1 2.5-.9 1.2-1.3 2.2-1.2 2.4.2.1 3.7-.2 8.6-.8l8.3-1 12-4.3c8.2-3 12.3-4.3 12.7-4.2.6.2.8 0 1.1-.7 1-2 3.4-2.6 5.3-1.4.7.4 1.4.6 3 .7l2.1.1v8.8h-8.4l-.2-1.6c0-1-.3-1.6-.5-1.8-.6-.3-.6-.3-1 .4-.1.4-2.7 1.4-12.6 5a51.6 51.6 0 0 1-13 4.2 103 103 0 0 1-10.7 1.4 109 109 0 0 0-9.5 1.4l-2.3 3.8-2.2 3.8c0 .4 5.3 7.5 7.8 10.5A78.1 78.1 0 0 0 186 90.7c2 1 7.1 3 10.3 4a50 50 0 0 0 25.1 1.3 67.3 67.3 0 0 0 11.7-5.2 58.3 58.3 0 0 0 23.5-23.5c2.2-4 3.3-6.4 3.8-8.4l.6-2.3-.6-.5-9-5a201 201 0 0 1-19.6-11.6 80 80 0 0 1-11.1-7.7c-.1-.5-.2-.5-1.5-.4-1 .1-1.5 0-2.2-.3a3.7 3.7 0 1 1 5.4-4c0 .7.2.8.8.8.5 0 3.9 2 11.4 7a204 204 0 0 0 28.6 16c.7-.1.8-.4 1.7-4a38 38 0 0 1 1.3-4.2c.1-.2 1.6 0 5.1.9l5 1.2-.2 1.4v1.4l1.9-1.3a178.6 178.6 0 0 1 7.8-5.6l16.9-11.3c5.7-3.8 7.4-4.8 7.8-4.7.5.1.6 0 .8-.6.5-2 1.8-3.2 3.6-3.2 2.3 0 4.1 2.1 3.6 4.2 0 .6-.4 1.4-.6 1.7-.6 1-2.2 1.6-3.5 1.4-1 0-1.2 0-1.3.4-.1.4-13 9.2-18.4 12.5a117 117 0 0 0-9 6.3 117.6 117.6 0 0 0-5.4 3.9l-1.9 1.3c-3 2.2-5.1 3.8-5.1 4l.9.5c.8.3 1.2.2 3.2-.5 3-1 7.7-2 11-2.4 4.5-.5 4.3-.5 4.3-2 0-1.6.6-2.8 1.9-3.6 1.8-1 4.5-.2 5.2 1.8.3.8.3.9.8.5.4-.4 1.2-.2 10 2.5a1472 1472 0 0 1 15 4.6 479.7 479.7 0 0 0 22.5 4.8c2.3.8 3.5 0 1.6-1-.6-.3-1-.7-1-.8 0-.6 4.6-9 5-9l1.7.8 1.3.7.5-.6a163.7 163.7 0 0 0 6.1-9.2c.7-1 2.9-5.8 9.5-21.6.9-2.1 1.6-3.5 1.9-3.5.3-.1.4-.3.2-.8a7 7 0 0 1-.3-2c0-1 .2-1.4.8-2.2.5-.5 1.3-1 1.8-1.2.5-.1 3-.3 5.4-.3h4.4v9h-3.9c-4.3 0-4.1 0-4.9 1.8a1838 1838 0 0 1-9.8 22.7 107.3 107.3 0 0 1-4 6.1c-2.5 3.7-2.7 4.2-2.1 4.8.3.4.1.9-2 4.8a97.3 97.3 0 0 1-2.4 4.4c-.1.1-.6 0-1.1-.1-.8-.3-1-.3-1.4 0-.7.6-.4 1 1 1.9.9.4 1.5.9 1.5 1l-2.2 4.4a52 52 0 0 0-2.3 4.5l.6 1.5c.4.9.5 1.8.5 2.8v1.8c0 .3 1.6 1 5.3 2.4 1.1.4 2.6 1.2 3.4 1.8l1.8 1.4c.6.3.3 1-1 2.7l-2 2.8a61.7 61.7 0 0 1-4.2 6.1c-.5.8-1.1 1.5-1.4 1.6-.4.3-.2.6 1.7 2.5a16 16 0 0 1 2.2 2.5l-1.3 1.5-1.3 1.3-3-2.8-3.2-3.1c-.2-.2.2-.8 1-1.5 1.3-1.4 1.5-2.2.6-2.4l-3 1.1c-1.6.8-2.8 1.2-3 1-.5 0-.6 0-.4.7.6 3 1 5.7.8 6-.1.4-3.6 1-3.9.8-.2-.3-1.6-8-1.4-8.5 0-.1.8-.4 1.7-.6 1.8-.4 2.2-.7 1.5-1.8-.2-.3-.4-.7-.3-.9a45 45 0 0 1 4.5-2.3c2.4-1.2 4.4-2.2 4.5-2.4 0-.1-.7-1.4-1.7-2.8l-1.8-2.5-2.3.2c-2.6.1-3.8-.3-5.6-2a6.8 6.8 0 0 1 0-9.5c.4-.5.7-1 .6-1.1-.1-.2-.8-.6-1.5-1s-1.3-1-1.3-1.1l1.3-2.9c.8-1.4 1.3-2.7 1.3-3-.1-.5.2-.4-10-2.5-7.3-1.5-10-2.3-20.8-5.6a85 85 0 0 1-12.9-4.3c-.4-.6-.5-.6-1.2-.2a4 4 0 0 1-4-.2c-1-.7-1.1-.7-3.6-.4a66 66 0 0 0-16 3.9c-.3.2-3.2 11-3.2 12l.4 2.2c.5 1.4.5 1.8.2 3.1-.2.8-.6 1.9-1 2.4l-1 1.5c-.5.5-.5 1.4-.6 5.9 0 5 0 5.2-.7 6.2l-1 1.7c-.2.5-.2.5.5-.2l3.2-3.6a59.6 59.6 0 0 0 6.4-7.9c.3 0 .3.2 0 .8-.5.8.3.7 1-.1 1.2-1.3 5.9-5 8.8-6.8A48.8 48.8 0 0 1 303 69c3.6-.8 11-.9 14.6-.1a45.1 45.1 0 0 1 11.6 4.3c.7.4 2.5 1.8 4 3.1 3 2.8 3.7 3.5 3.5 3.7 0 .1-1.1-.7-2.3-1.9-3-2.8-5.7-4.7-7.7-5.5-6-2.5-9.4-3.4-14.4-3.7-9.6-.6-20 3.4-30.3 11.5a73 73 0 0 0-9.6 9.5c-2 2.6-8.6 9.1-12 11.7a76.1 76.1 0 0 1-32 15.4 61.6 61.6 0 0 1-15.2 1.4c-6.6 0-9.2-.3-15.6-1.5l-5.3-.8c-4.6-.5-9.9-2-12.3-3.3l-4-1.8a57.6 57.6 0 0 1-10.4-6c-2.4-1.6-2.6-1.7-4.5-1.8-5.7-.4-11 .7-17 3.7-5.6 2.7-10 5.9-16.5 12.2a52 52 0 0 1-15.8 11 81.5 81.5 0 0 1-39.9 7.5zm151-20.3c3.4-.4 4.1-.6 3.8-1-.4-.2-22.8.2-23.2.6-.2.2 0 .3.4.4 2.8.7 13.8.7 19 0zm-17.3-1.4c.2-.4-.7-.5-5.8-.7-4.6 0-5.9.1-4 .6 1 .4 9.6.4 9.8 0zm-16.1-1.2c-.3-.2-1-.4-1.6-.4h-1.1l1 .4 1.5.3c.6 0 .6 0 .2-.3zm41.8 0c4.4-.3 7.7-1.3 14-4.4a74.7 74.7 0 0 0 19-13c2.6-2.6 2.9-3.1 1.5-3.1-.5 0-1-.4-1.8-1.1-.5-.6-1.7-1.5-2.6-2a176.5 176.5 0 0 1-6.1-3.7c-1.4-.9-1.7-1.2-1.7-1.8 0-.9-.1-.9-1.3 0-3.4 2.2-4.8 3-5.1 3-.2 0-.8-.6-1.3-1.3-.4-.7-1-1.3-1.2-1.3-.2 0-.9.3-1.4.8a48.5 48.5 0 0 1-15.8 8.6c-6.4 2.2-9.4 3-13.3 3.7a59.7 59.7 0 0 1-40.1-9c-3.5-2.1-4.7-2.4-12.3-2.4a52 52 0 0 0-12.4 1.1c-.4.3 1 1.9 3.7 4.8 3.2 3.2 8.7 6.8 16.2 10.4 2 1 6.2 3 9.3 4.7 8.1 4.3 10.4 5.2 14.3 5.6l8 .5c8 .3 26.7.3 30.4 0zm-48.3-2.9a834.5 834.5 0 0 1-11.6-5.9l-1-.4.8.7 4 2.8a18.7 18.7 0 0 0 8.7 3.6c.7 0 .5 0-1-.8zm175.6-3.8.6-.7-5-5-.9.8-.8.8 2.3 2.4c1.3 1.3 2.6 2.4 2.8 2.4.3 0 .7-.3 1-.7zm-186.2 0c-.9-1-6-4-6.3-3.7-.2.2.8 1 3.5 2.5 2.6 1.6 3.4 2 2.8 1.3zm-8.9-6.2c-2-1-2.4-1.2-2.1-.7.4.7 2.4 1.8 3.1 1.8.8 0 .7-.1-1-1zm196.6-6.2 3.8-5.8c0-.3-2.3-2-2.7-1.8-.3.2-7.4 10.5-7.5 11-.1.4 1.8 2 2.4 2 .2 0 2-2.4 4-5.4zM268 91l.2-.8-11.4-7c-.3 0-.6.3-1.2 1.3-.5.7-.8 1.4-.7 1.5l5.9 3.7 5.7 3.5.6-.7 1-1.5zm-30.2-.9a51 51 0 0 0 7.4-5.5c.5-.5.7-1 .7-1.3-.2-.5-.4-.4-3 2a83.6 83.6 0 0 1-4.4 3.7c-2.5 1.9-2.4 1.8-2.1 1.8l1.4-.7zm121.4-1.4c.6-.8.8-1.4.7-1.6l-3.2-1.3-4.1-1.6-1.3-.5-.4 1c-1 2.3-1.1 2.1 3.1 3.8l4 1.5c.2 0 .7-.6 1.2-1.3zM268.5 83v-4.2h-3.4v7.9l3 1.8.2-.7.2-4.8zm-17.7 2.4a8.4 8.4 0 0 0 2.4-1.8c0-.4-.8-1.6-1.2-1.6-.4 0-5.5 3.3-5.6 3.6-.1.2.1.7.4 1.2.5.7.6.7 1.2.4l2.8-1.8zm13-2.3v-1.7l-1.5-.8a6.9 6.9 0 0 1-3.9-6.6c0-2 1.4-4.5 2.8-5.2 1-.5.9-1-.3-1.3-.8-.1-1 0-2.2 1.1-.7.7-1.8 2.2-2.5 3.3a60 60 0 0 1-4.6 7c0 .2.7 0 1.2-.4s.7-.1 1.7 1.5c.9 1.6 1.3 1.8 2 .8.2-.4.6-.7.8-.7.2 0 1.6 1.2 3.2 2.6 1.7 1.6 2.9 2.4 3 2.3.2-.2.3-1 .3-2zM249 80.6c.8-.4 4-4.7 4.9-6.3.3-.5-6.2 6.1-6.5 6.7-.2.4-.2.4.4.2l1.2-.6zM132.6 80c.7-.4 1.3-.8 1.4-1 0-.1-6.2-11.5-6.7-12 0-.1-.7.2-1.5.7-1.4.8-1.5.9-1.2 1.4 1.7 3.2 6.5 11.6 6.7 11.6l1.3-.7zm5.5-5.8 2.8-3.8c0-.1-.5-.7-1.1-1.2-1-.7-1.4-.9-1.6-.7-.5.4-4.9 6-4.9 6.2 0 .3 1.6 3 1.8 3l3-3.5zm119.2-5.7c1.1-1.8 1.7-3.1 1.2-2.8-.2.1-3 4.5-3 4.8 0 .5 1-.5 1.8-2zm-137.7.4 3-1.6 1.7-1-.5-.9c-.2-.5-.5-.9-.7-.9-.4 0-5 2.3-5.9 2.9-.3.2-.2.4.1 1.2l.7 1 1.6-.7zM359.8 57l6.9-10.7-1.4-1c-1.1-.7-1.4-.7-1.7-.4-.4.4-13.3 20.2-13.5 20.7-.1.4 1.9 2 2.5 2 .1 0 3.4-4.8 7.2-10.6zM98.2 61.4c1.7-2 0-5-2.6-4.4-2.3.4-2.9 3.6-.8 5 1.1.6 2.4.4 3.4-.6zm16.4-2.2 11.8-1.4c.2-.2-.3-3.3-.5-3.3l-24.3 2.8c-.8.1-.8.2-.8 1.2l.1 1.7c.2.6.3.6 1.2.5l12.5-1.5zM279.1 51l10-7.2-.4-.7-1-1.4-.6-.7-10 7.1-10.4 7.6c-.3.2-.2.5.5 1.5.6.9 1 1.2 1.3 1.2l10.6-7.4zm-137.7 3.7a704 704 0 0 0 12-2.5 9 9 0 0 0-.5-3 266.1 266.1 0 0 0-25 5c-.1.1.2 1.9.5 2.9 0 .2.4.3.7.2l12.3-2.6zM373 33l4.9-11.7c0-.3-2.1-1.5-2.8-1.5a308.8 308.8 0 0 0-10 23.2c0 .4 2 1.4 2.6 1.4.3 0 2-3.5 5.3-11.4zm-71.6 2.6 10.5-7.1c0-.4-1.6-2.6-1.9-2.6-.3 0-21.1 13.7-21.1 14 0 .2 1.6 2.7 1.8 2.7l10.7-7zm15-8.8c1.2-.6 1.6-2.2 1-3.6-.6-1-1.2-1.3-2.5-1.3-1.2 0-1.8.4-2.3 1.3-1.3 2.6 1.2 5 3.8 3.6zM68.8 120.2a61.2 61.2 0 0 1-18-5.2 67.2 67.2 0 0 1-27-26.3c-.5-.7-1.2-2-1.5-2.9l-1-2.4a67 67 0 0 1-4-19.8c-.2-2.8-.4-5.2-.6-5.5-.2-.6-.6-.6-1 0s-.8.4-.5-.3c0-.2.4-.5.8-.6 1.3-.3 1.4.2 1.8 5.6A63.7 63.7 0 0 0 24 87.7c2 4.6 7.8 12.1 12.5 16.5a58 58 0 0 0 48.4 15.3c8-1.4 15.1-4 21.8-8.4 3.5-2.2 5.8-4 10.7-8.2 4.4-3.8 7.5-5.8 12.4-8.3 4.4-2.2 8.4-3.7 13.8-5 3.6-1 4.4-1.2 4.4-.8A101.9 101.9 0 0 0 130 95a76.6 76.6 0 0 0-11.7 7.8l-4.7 4a62 62 0 0 1-12.6 8.3c-5.4 2.6-9 3.7-15 4.8-4.1.7-13 .9-17.2.3zm4.2-62v-4.5h9v9h-9z" fill="#68b0cc"/><path d="M68.8 120.2a61.2 61.2 0 0 1-18-5.2 67.2 67.2 0 0 1-27-26.3c-.5-.7-1.2-2-1.5-2.9l-1-2.4a67 67 0 0 1-4-19.8l-.5-5.5c-.3-.6-.7-.6-1.1 0-.4.6-.7.4-.5-.3 0-.2.5-.5.8-.6 1.3-.3 1.4.2 1.8 5.6A63.7 63.7 0 0 0 24 87.7c2 4.6 7.8 12.1 12.5 16.5a58 58 0 0 0 48.4 15.3c8-1.4 15.1-4 21.8-8.4 3.5-2.2 5.9-4 10.7-8.2 4.4-3.8 7.5-5.8 12.4-8.3 4.4-2.2 8.5-3.7 13.8-5 3.6-1 4.4-1.2 4.4-.8A101.9 101.9 0 0 0 130 95a76.6 76.6 0 0 0-11.7 7.8l-4.7 4a62 62 0 0 1-12.6 8.3c-5.4 2.6-9 3.7-15 4.8-4.1.7-13 .9-17.2.3zm129.7-3.5c0-.2.2-.3.8-.3.5 0 1 .1 1 .3s-.4.2-.8.2l-1-.2zm-5.5-.8c-.3 0-.7-.3-.9-.6-.2-.3-.6-.5-.8-.5-.3 0-.6-.1-.7-.3-.4-.5 1.8 0 2.2.6.2.3.6.5 1 .5.3 0 .7.1.8.3.1.2-.7.3-1.6 0zm30.3-.3c0-.2 1-.3 2.4-.3 1.5 0 2.3.1 2.2.3 0 .1-1.2.3-2.4.3-1.3 0-2.2-.2-2.2-.3zm6.4 0c-.4-.2-.4-.2 0-.4.6-.2 5-.4 4.8-.2-.3.6-3.8 1-4.8.6zm-43.5-2.1c-.7-.5 0-.6.9-.2.8.4.8.4.2.4-.4 0-.9 0-1-.2zm-5.8-1c-.4-.5.2-.5 1 0 .5.4.4.4-.1.4-.3 0-.7-.1-.9-.3zm-4.4-2c-.3-.3-.4-.5-.2-.5l.8.4c.3.2.4.4.2.4-.1 0-.5-.1-.8-.4zm167.6-.6c-.3-.4-1.6-8.1-1.4-8.5 0-.1.8-.4 1.7-.6 1.8-.4 2.1-.7 1.5-1.8-.2-.3-.4-.7-.3-.9 0-.1 2.1-1.2 4.5-2.3 2.4-1.2 4.4-2.2 4.5-2.4 0-.1-.7-1.4-1.7-2.8l-1.8-2.5-2.3.2c-2.6.1-3.8-.3-5.6-2a6.8 6.8 0 0 1 0-9.5c.4-.5.7-1 .6-1.1-.1-.2-.8-.6-1.5-1s-1.3-1-1.3-1.1l1.3-2.9c.8-1.4 1.3-2.7 1.3-3-.1-.5.2-.4-10-2.5-7.3-1.5-10-2.3-20.8-5.6-9.1-2.8-12.6-4-12.9-4.3-.4-.6-.5-.6-1.2-.2a4 4 0 0 1-4-.2c-1-.7-1.1-.7-3.6-.4a66.3 66.3 0 0 0-16 3.9c-.3.2-3.2 11-3.2 12l.4 2.2c.5 1.4.5 1.8.2 3.1-.2.8-.6 1.9-1 2.4l-1 1.5c-.5.5-.5 1.4-.6 5.8v5.2l-1 1.6-1 1.9c0 .2-.3.3-1 .2-.9-.2-1.5-.5-2.3-1.3-.6-.6-1.9-1.5-2.8-2l-3.6-2.2c-3.8-2.3-4-2.4-4-3.2 0-.9-.1-.9-1.3 0-3.4 2.2-4.8 3-5.1 3-.2 0-.8-.6-1.3-1.3-.4-.7-1-1.3-1.2-1.3-.2 0-.9.3-1.4.8a48.5 48.5 0 0 1-15.8 8.6c-6.4 2.2-9.4 3-13.3 3.7a59.7 59.7 0 0 1-40.1-9c-3.5-2.1-4.7-2.4-12.3-2.4a51.8 51.8 0 0 0-12.5 1.2c-.5.3-1.3 0-1.3-.4 0-.1.3-.2.5 0 .3 0 .6 0 .6-.2a68.9 68.9 0 0 1 20.6-1s-.3-.5-.9-1a39.3 39.3 0 0 1-4.9-4.9c0-.1 1 .6 2 1.6 3.5 3 5.3 4.5 6.8 5.2a53.5 53.5 0 0 0 38.1 10c1-.3.2-.5-2.5-.7-8-.6-14.6-2.4-21.5-5.8a49.8 49.8 0 0 1-8-4.4 99.5 99.5 0 0 1-22.1-22.4c-1.5-2-2.7-3.5-2.9-3.5 0 0-.5.4-.9 1l-.7 1.1 1.1 2.2c2.9 5.6 6 10.3 9 13.6.7.6 1 1.2 1 1.4-.1.4-3-2.8-5-5.6a68 68 0 0 1-6.8-11l-1.1-.7a3 3 0 0 0-1-.5c-.1 0-.2.9-.1 2 .1 2.5-.3 3.9-1.8 5.4-1.5 1.5-2.5 2-5 2.1l-2 .2-1.4 1.6c-1.6 2-3.4 4.3-3.7 5-.1.2-1.2 1-2.3 1.6l-2.1 1.1-1-.8a9.2 9.2 0 0 1-2-3.3 65.5 65.5 0 0 0-5-9.3c-.3-.3-.7-.1-2.9 1l-2.5 1.4-.8-1.3c-1-1.5-1.2-2.3-.8-2.8.2-.3.2-.7 0-1.9-.2-.8-.2-1.6 0-1.7.2-.3 7.8-1.7 8.3-1.5.2 0 .5.8.7 1.7l.5 1.8c.2 0 .6 0 1-.3.5-.2 1-.3 1.2-.2.2.1 1.7 3.1 3 6.1 1.1 2.6 1.2 2.6 3.5.3l2-2-.4-2a7 7 0 0 1 5.4-8.3c1.2-.2 1.3-.5.3-1-.6-.2-.7-.4-.6-1.4 0-.5 0-.6-.6-.5l-3.1.7-6.5 1.3c-3.7.8-9 1.5-23.3 3l-6.4.9c-.2 0-.6 0-.9-.3-.4-.4-.5-.4-1 .2-.7 1-1.2 1.3-2.3 1.5-2.1.5-4.3-1.3-4.3-3.5 0-3.3 3.5-5 6.1-2.8.7.5.7.5 1.1 0 .3-.3.8-.6 1.2-.6 2.1 0 24.1-2.7 27.5-3.4a343 343 0 0 0 16.7-3.6c.2 0 .8-.8 1.3-1.6s1.1-1.4 1.4-1.4c.2 0 1 .4 1.9 1 1.3.7 1.7.8 2.4.7.5 0 1-.3 1-.5s-.7-.7-1.5-1.2c-.8-.4-1.5-1-1.6-1.1-.2-.3 4.3-7.6 5.1-8.5.4-.4.8-.2 4.5 2.1 2.2 1.4 4.2 2.7 4.3 2.9.2.2 0 .9-1 2.5-.9 1.2-1.3 2.2-1.2 2.4.1.1 3.7-.2 8.6-.8l8.3-1 12-4.3c8.2-3 12.3-4.3 12.7-4.2.6.2.8 0 1.1-.7 1-2 3.4-2.6 5.3-1.4.7.4 1.4.6 3 .7l2.1.1v8.8h-8.4l-.2-1.6c0-1-.3-1.6-.5-1.8-.6-.3-.6-.3-1 .4-.1.4-2.7 1.4-12.6 5a51.6 51.6 0 0 1-13 4.2 103.6 103.6 0 0 1-10.7 1.4c-5.1.6-9.4 1.3-9.5 1.4l-2.3 3.8-2.2 3.8c0 .4 5.3 7.5 7.8 10.5A78.1 78.1 0 0 0 186 90.7c2 1 7.1 3 10.3 4a50 50 0 0 0 25.1 1.3A63.2 63.2 0 0 0 251 75.6c1.6-2 4.9-6.8 5.7-8.3 2.2-4 3.3-6.4 3.8-8.4l.6-2.3-.6-.5-9-5c-7.3-3.8-10.2-5.5-19.6-11.6-7.9-5.1-11-7.3-11.1-7.7-.1-.5-.2-.5-1.5-.4-1 .1-1.5 0-2.2-.3a3.7 3.7 0 1 1 5.4-4c0 .7.2.8.8.8.5 0 3.9 2 11.4 7a204 204 0 0 0 28.6 16c.7-.1.8-.4 1.7-4a38 38 0 0 1 1.3-4.2c.1-.2 1.6 0 5.1.9l5 1.2-.2 1.4v1.4l1.9-1.3a198.7 198.7 0 0 1 7.8-5.6l16.9-11.3c5.7-3.8 7.4-4.8 7.8-4.7.5.1.6 0 .8-.6.5-2 1.8-3.2 3.6-3.2 2.3 0 4.1 2.1 3.6 4.2 0 .6-.4 1.4-.6 1.7-.6 1-2.2 1.6-3.5 1.4-1 0-1.2 0-1.3.4-.1.4-13 9.2-18.4 12.5a116.8 116.8 0 0 0-9 6.3 128.8 128.8 0 0 0-7.3 5.2c-3 2.2-5.1 3.8-5.1 4l.9.5c.8.3 1.2.2 3.2-.5 3-1 7.7-2 11-2.4 4.5-.5 4.3-.5 4.3-2 0-1.6.6-2.8 1.9-3.6 1.8-1 4.5-.2 5.2 1.8.3.8.3.9.8.5.4-.4 1.2-.2 10 2.5a1410.5 1410.5 0 0 1 15 4.6 479.7 479.7 0 0 0 22.5 4.8c2.3.8 3.5 0 1.6-1-.6-.3-1-.7-1-.8 0-.6 4.6-9 4.9-9l1.8.8 1.3.7.5-.6a156 156 0 0 0 6.1-9.2c.7-1 2.9-5.8 9.5-21.6.9-2.1 1.6-3.5 1.9-3.5.3-.1.4-.3.2-.8a7 7 0 0 1-.3-2c0-1 .2-1.4.8-2.2.5-.5 1.3-1 1.8-1.2.5-.1 3-.3 5.4-.3h4.4v9h-3.9c-4.3 0-4.1 0-4.9 1.8a1813.4 1813.4 0 0 1-9.8 22.7 103.7 103.7 0 0 1-4 6.1c-2.5 3.7-2.7 4.2-2.1 4.8.3.4.1.9-2 4.8a97.3 97.3 0 0 1-2.4 4.4c-.1.1-.6 0-1.1-.1-.8-.3-1-.3-1.4 0-.7.6-.4 1 1 1.9.9.4 1.5.9 1.5 1l-2.2 4.4a51.5 51.5 0 0 0-2.3 4.5l.6 1.5c.4.9.5 1.8.5 2.8v1.8c0 .3 1.6 1 5.3 2.4 1.1.4 2.6 1.2 3.4 1.8l1.8 1.4c.6.3.3 1-1 2.7l-2 2.8a61.7 61.7 0 0 1-4.2 6.1c-.5.8-1.1 1.5-1.4 1.6-.4.3-.2.6 1.7 2.5 1.2 1.2 2.2 2.3 2.2 2.5l-1.3 1.5-1.3 1.3-3-2.8-3.2-3.1c-.2-.2.2-.8 1-1.5 1.3-1.4 1.5-2.2.6-2.4l-3 1.1c-1.6.8-2.8 1.2-3 1-.5 0-.6 0-.4.7.6 3 1 5.7.8 6 0 .2-.6.4-1.1.5l-1.9.3h-1zm15.1-1.9.6-.7-5-5-.9.8-.8.8 2.3 2.4c1.3 1.3 2.6 2.4 2.8 2.4.3 0 .7-.3 1-.7zm1.5-12.4 3.8-5.8c0-.3-2.3-2-2.7-1.8a189 189 0 0 0-7.5 11c-.1.4 1.8 2 2.4 2 .2 0 2-2.4 4-5.4zM268 91l.2-.8c-.2-.3-11-6.8-11.4-7-.3 0-.6.3-1.2 1.3-.5.7-.8 1.4-.7 1.5l5.9 3.7 5.7 3.5.6-.7 1-1.5zm-30.2-.9a51 51 0 0 0 7.4-5.5c.5-.5.7-1 .7-1.3-.2-.5-.4-.4-3 2a83.6 83.6 0 0 1-4.4 3.7c-2.5 1.9-2.4 1.8-2.1 1.8l1.4-.7zm121.4-1.4c.6-.8.8-1.4.7-1.6l-3.2-1.3-4.1-1.6-1.3-.5-.4 1c-1 2.3-1.1 2.1 3.1 3.8l4 1.5c.2 0 .7-.6 1.2-1.3zM268.5 83v-4.2h-3.4v7.9l3 1.8.2-.7.2-4.8zm-17.7 2.4a8.4 8.4 0 0 0 2.4-1.8c0-.4-.8-1.6-1.2-1.6-.4 0-5.5 3.3-5.6 3.6-.1.2.1.7.4 1.2.5.7.6.7 1.2.4l2.8-1.8zm13-2.3v-1.7l-1.5-.8a6.9 6.9 0 0 1-3.9-6.6c0-2 1.4-4.5 2.8-5.2 1-.5.9-1-.3-1.3-.8-.1-1 0-2.2 1.1-.7.7-1.8 2.2-2.5 3.3a60 60 0 0 1-4.6 7c0 .2.7 0 1.2-.4s.7-.1 1.7 1.5c.9 1.6 1.3 1.8 2 .8.2-.4.6-.7.8-.7.2 0 1.6 1.2 3.2 2.6 1.7 1.6 2.9 2.4 3 2.3.2-.2.3-1 .3-2zM249 80.6c.8-.4 4-4.7 5-6.3.2-.5-6.2 6.1-6.6 6.7-.2.4-.2.4.4.2l1.2-.6zM132.6 80c.7-.4 1.3-.8 1.4-1 0-.1-6.2-11.5-6.7-12 0-.1-.7.2-1.5.7-1.4.8-1.5.9-1.2 1.4 1.7 3.2 6.5 11.6 6.7 11.6l1.3-.7zm5.5-5.8 2.8-3.8c0-.1-.5-.7-1.1-1.2-1-.7-1.4-.9-1.6-.7-.5.4-4.9 6-4.9 6.2 0 .3 1.6 3 1.8 3l3-3.5zm119.2-5.7c1.1-1.8 1.7-3.1 1.2-2.8-.2.1-3 4.5-3 4.8 0 .5 1-.5 1.8-2zm-137.7.4 3-1.6 1.7-1-.4-.9c-.3-.5-.6-.9-.8-.9-.4 0-5 2.3-5.9 2.9-.3.2-.2.4.1 1.2l.7 1 1.6-.7zM359.8 57l6.9-10.7-1.4-1c-1.1-.7-1.4-.7-1.7-.4-.4.4-13.3 20.2-13.5 20.7-.1.4 1.9 2 2.5 2 .1 0 3.4-4.8 7.2-10.6zM98.2 61.4c1.7-2 0-5-2.6-4.4-2.3.4-2.9 3.6-.8 5 1.1.6 2.4.4 3.4-.6zm16.4-2.2 11.8-1.4c.2-.2-.3-3.3-.5-3.3l-24.3 2.8c-.8.1-.8.2-.8 1.2l.1 1.7c.2.6.3.6 1.2.5l12.5-1.5zM279.1 51l10-7.2-.4-.7-1-1.4-.6-.7-10 7.1-10.4 7.6c-.3.2-.2.5.5 1.5.6.9 1 1.2 1.4 1.2.2-.1 5-3.4 10.5-7.4zm-137.6 3.7a704 704 0 0 0 11.9-2.5 9 9 0 0 0-.5-3 266.1 266.1 0 0 0-25 5c-.1.1.2 1.9.5 2.9.1.2.4.3.7.2l12.4-2.6zM373 33l4.9-11.7c0-.3-2.1-1.4-2.8-1.5a308.8 308.8 0 0 0-10 23.2c0 .4 2 1.4 2.6 1.4.3 0 2-3.5 5.3-11.4zm-71.6 2.6c5.8-3.8 10.5-7 10.5-7.1 0-.4-1.6-2.6-1.9-2.6-.3 0-21.1 13.8-21.1 14 0 .2 1.6 2.7 1.8 2.7l10.7-7zm15-8.8c1.2-.6 1.6-2.2 1-3.6-.6-1-1.2-1.3-2.5-1.3-1.2 0-1.8.4-2.3 1.3-1.3 2.6 1.2 5 3.8 3.6zM164 103.4c0-.1.2-.2.4 0l.4.2h-.4c-.2 0-.4 0-.4-.2zm-6.6-5.2c-.4-.3-.6-.6-.5-.7 0-.1.4 0 .8.3.3.3.5.6.4.7 0 .1-.4 0-.7-.3zm113-7 .5-.5c.2 0 .2.2 0 .6-.2.2-.4.5-.6.5v-.5zm5-5.7c.3-.6 1-1.3 1.2-1l-.4.8c-.7.8-1.2 1-.8.2zM73 58.2v-4.5h9v9h-9z" fill="#c7946b"/><path d="M198.5 116.7c0-.2.2-.3.8-.3.5 0 1 .1 1 .3s-.4.2-.8.2l-1-.2zm-5.5-.8c-.3 0-.7-.3-.9-.6-.2-.3-.6-.5-.8-.5-.3 0-.6-.1-.7-.3-.4-.5 1.8 0 2.2.6.2.3.6.5 1 .5.3 0 .7.1.8.3.1.2-.7.3-1.6 0zm30.3-.3c0-.2 1-.3 2.4-.3 1.5 0 2.3.1 2.2.3 0 .1-1.2.3-2.4.3-1.3 0-2.2-.2-2.2-.3zm6.4 0c-.4-.2-.4-.2 0-.4.6-.2 5-.4 4.8-.2-.3.6-3.8 1-4.8.6zm-43.5-2.1c-.7-.5 0-.6.9-.2.8.4.8.4.2.4-.4 0-.9 0-1-.2zm-5.8-1c-.4-.5.2-.5 1 0 .4.4.4.4-.1.4-.3 0-.7-.1-.9-.4zm-4.4-2c-.3-.3-.4-.5-.2-.5l.8.4c.3.2.4.4.2.4-.1 0-.5-.1-.8-.4zm167.6-.6c-.3-.4-1.6-8.1-1.4-8.5 0-.1.8-.4 1.7-.6 1.8-.4 2.1-.7 1.5-1.8-.3-.3-.4-.7-.3-.9 0-.1 2.1-1.2 4.5-2.3 2.4-1.2 4.4-2.2 4.5-2.4 0-.1-.7-1.4-1.7-2.8l-1.8-2.5-2.3.2c-2.6.1-3.8-.3-5.6-2a6.8 6.8 0 0 1 0-9.5c.4-.5.7-1 .6-1.1-.1-.2-.8-.6-1.5-1s-1.3-1-1.3-1.1c0-.2.6-1.6 1.5-3.2a11 11 0 0 0 1.3-3.2 123.2 123.2 0 0 1-10.3-2c-7-1.5-10.1-2.4-20.7-5.6-9.1-2.8-12.6-4-12.9-4.3-.4-.6-.5-.6-1.2-.2-1 .5-2.5.6-3.3.1-1-.5-2-1.8-2.2-2.9-.2-1.3.6-2.9 1.9-3.7 1.8-1 4.5-.2 5.2 1.8.3.8.3.9.8.5.4-.4 1.2-.2 10 2.5a1410.5 1410.5 0 0 1 15 4.6 479.7 479.7 0 0 0 22.5 4.8c2.3.8 3.5 0 1.6-1-.6-.3-1-.7-1-.8 0-.6 4.6-9 4.9-9l1.8.8 1.3.7.5-.6a156 156 0 0 0 6.1-9.2c.7-1 2.9-5.8 9.5-21.6.9-2.1 1.6-3.5 1.9-3.5.3-.1.4-.3.2-.8a7 7 0 0 1-.3-2c0-1 .1-1.4.8-2.2.5-.5 1.3-1 1.8-1.2.5-.1 3-.3 5.4-.3h4.4v9h-3.9c-4.3 0-4.1 0-4.9 1.8a1813.4 1813.4 0 0 1-9.8 22.7 103.7 103.7 0 0 1-4 6.1c-2.5 3.7-2.7 4.2-2.1 4.8.3.4.1.9-2 4.8a97.3 97.3 0 0 1-2.4 4.4c-.1.1-.6 0-1.1-.1-.8-.3-1-.3-1.4 0-.7.6-.4 1 1 1.9.9.4 1.5.9 1.5 1l-2.2 4.4a52.4 52.4 0 0 0-2.3 4.5l.6 1.5c.4.9.5 1.8.5 2.8v1.8c0 .3 1.6 1 5.3 2.4 1.1.4 2.6 1.2 3.4 1.8l1.8 1.4c.6.3.3 1-1 2.7l-2 2.8a61.7 61.7 0 0 1-4.2 6.1c-.5.8-1.1 1.5-1.4 1.6-.4.3-.2.6 1.7 2.5 1.2 1.2 2.2 2.3 2.2 2.5l-1.3 1.5-1.3 1.3-3-2.8-3.2-3.1c-.2-.2.2-.8 1-1.5 1.3-1.4 1.5-2.2.6-2.4l-3 1.1c-1.6.8-2.8 1.2-3 1-.5 0-.6 0-.4.7.6 3 1 5.7.8 6 0 .2-.6.4-1.1.5l-1.9.3h-1zm15.1-1.9.6-.7-5-5-.9.8-.8.8 2.3 2.4c1.3 1.3 2.5 2.4 2.8 2.4.3 0 .7-.3 1-.7zm1.5-12.4 3.8-5.8c0-.3-2.3-2-2.7-1.8a189 189 0 0 0-7.5 11c-.1.4 1.8 2 2.4 2 .2 0 2-2.4 4-5.4zm-1-7c.6-.8.8-1.4.7-1.6l-3.2-1.3-4.1-1.6-1.3-.5-.4 1c-1 2.3-1.1 2.1 3.1 3.8l4 1.5c.2 0 .7-.6 1.2-1.3zm.6-31.5 6.9-10.7-1.4-1c-1.1-.7-1.4-.7-1.7-.4-.4.4-13.3 20.2-13.5 20.7-.1.4 1.9 2 2.5 2 .1 0 3.4-4.8 7.2-10.6zM373 33l4.9-11.7c0-.3-2.1-1.5-2.8-1.5a308.8 308.8 0 0 0-10 23.2c0 .4 2 1.4 2.6 1.4.3 0 2-3.5 5.3-11.4zm-209 70.4c0-.1.2-.2.4 0l.4.2h-.4c-.2 0-.4 0-.4-.2zm38.5-4.2c-.1-.2 1-.3 2.9-.3s3 .1 3 .3c0 .1-1 .3-2.8.3-1.7 0-3-.2-3.1-.3zm7-.3c0-.1.4-.2 1-.2.4 0 .9 0 .9.2s-.5.3-1 .3-.9-.1-.9-.3zm3-.2c0-.2.2-.3.4-.3.3 0 .6.1.6.3s-.3.2-.6.2l-.5-.2zm-55.1-.5c-.4-.3-.6-.6-.5-.7 0-.1.4 0 .8.3.3.3.5.6.4.7 0 .1-.4 0-.7-.3zm57.1-.6c0-.2 2.6-.7 2.9-.4.2.2 0 .3-1.5.5h-1.4zm3.4-.2c-.2-.3 1-.6 1.4-.3.3.2.3.2 0 .2l-.9.2-.5-.1zm3.5-.6c-.3-.2-.2-.3.2-.5.8-.4 4.1-1.4 4.3-1.2.2.2-.3.5-2.2 1.3-2 .8-1.8.7-2.3.4zm6.9-2.5c.2-.2.6-.4.9-.4.6 0 2-.9 3.1-1.9.8-.8 1.3-1 1.3-.5 0 .2-.3.4-.5.5-.3 0-.6.3-.6.5 0 .5-.7.9-3 1.8-1.3.5-1.6.5-1.2 0zm37.7 0c-.5-.1-1.3-.6-2-1.3-.5-.6-1.8-1.5-2.7-2l-3.6-2.2c-3.8-2.3-4-2.4-4-3.2 0-.9-.1-.9-1.3 0-5.1 3.3-5.4 3.4-5.9 2.4l-1-1.6-.9-1 .9-.9.6-1c-.2-.1-.3-.4-.4-.7-.1-.5 0-.7 1.2-1.2l1.8-.7c.2 0 .6-.2.9-.5.6-.6 3.5-2.2 3.8-2l1 1.6c1 1.6 1.4 1.8 2.1.8.2-.4.6-.7.8-.7.2 0 1.6 1.2 3.2 2.6 1.7 1.6 2.9 2.4 3 2.3.2-.2.3-1 .3-2v-1.6l-1.5-.8a6.9 6.9 0 0 1-3.9-6.6c0-2 1.4-4.5 2.8-5.2 1-.5.9-1-.1-1.2a3366.1 3366.1 0 0 1-2.5-.7 15 15 0 0 1 1-4.6l1-3.7.4-2-.6-.5a224 224 0 0 0-9-5c-7.3-3.8-10.2-5.5-19.6-11.6-7.9-5.1-11-7.3-11.1-7.7-.1-.5-.3-.5-1.5-.4-1 0-1.5 0-2.2-.4-2.9-1.5-2.4-5.8.8-6.7 2-.6 4.2.7 4.6 2.8 0 .7.2.8.8.8.5 0 3.9 2 11.4 7A203.7 203.7 0 0 0 263 51.2c.3 0 .6 0 .8-.2l1.3-4.2c.5-2.1 1-4 1.2-4.1.1-.2 1.6 0 5.1.9l5 1.2-.2 1.4v1.4l1.9-1.3a191 191 0 0 1 7.8-5.6l16.9-11.3c5.7-3.8 7.4-4.8 7.8-4.7.5.1.6 0 .8-.6.5-2 1.8-3.2 3.6-3.2 2.3 0 4.1 2.1 3.6 4.2 0 .6-.4 1.4-.6 1.7-.6 1-2.2 1.6-3.5 1.4-1-.1-1.2 0-1.3.4-.1.4-13 9.2-18.4 12.5a117 117 0 0 0-9 6.3 128.8 128.8 0 0 0-7.3 5.2 31 31 0 0 0-5.1 4l.6.4.7.3-1.6 6.4c-1 3.5-1.6 6.5-1.6 6.8l.4 2.1c.5 1.4.5 1.8.2 3.1-.2.8-.6 1.9-1 2.4l-1 1.5c-.5.5-.6 1.4-.6 5.8v5.2l-1 1.6-1 1.9c0 .2-.1.3-.3.3l-1.1-.2zm2-3.4.2-.8-11.4-7c-.3 0-.6.3-1.2 1.3-.5.7-.8 1.4-.7 1.5l5.9 3.7 5.7 3.5.6-.7 1-1.5zm.5-8v-4h-3.4v7.8l3 1.8.2-.7.2-4.8zm-17.7 2.5a8.4 8.4 0 0 0 2.4-1.8c0-.4-.8-1.6-1.2-1.6-.4 0-5.5 3.3-5.6 3.6-.1.2.1.7.4 1.2.5.7.6.7 1.2.4l2.8-1.8zM279.1 51l10-7.2-.4-.7-1-1.4-.6-.7-10 7.1-10.4 7.6c-.3.2-.2.5.5 1.5.6.9 1 1.2 1.4 1.2.2-.1 5-3.4 10.5-7.4zm22.3-15.4c5.8-3.8 10.5-7 10.5-7.1 0-.4-1.6-2.6-1.9-2.6-.3 0-21.1 13.7-21.1 14 0 .2 1.6 2.7 1.8 2.7l10.7-7zm15-8.8c1.2-.6 1.6-2.2 1-3.6-.6-1-1.2-1.3-2.5-1.3-1.2 0-1.8.4-2.3 1.3-1.3 2.6 1.2 5 3.8 3.6zm-46 64.5c.1-.3.4-.6.5-.6.2 0 .2.2 0 .6-.2.2-.4.5-.6.5v-.5zm-36.6-.3c0-.3.9-.6 1-.4.2 0 0 .3-.2.4-.5.3-.8.3-.8 0zM174.4 90l-.9-.7c0-.2 1.6.7 1.7 1 .3.4.2.3-.8-.3zm61 .2c.7-.7 5.7-4.1 5.8-4 .1.1-.1.4-.5.7-3.3 2.6-6.4 4.5-5.3 3.3zm-87-1.2c-.2-.2-.3-.3-.2-.4.2-.3 1 0 1 .4 0 .3-.3.3-.8 0zm22.3-1 .1-.4c.2 0 .4.2.5.3l-.1.3a.7.7 0 0 1-.5-.3zm104.7-2.4c.3-.6 1-1.3 1.2-1l-.4.8c-.7.8-1.2 1-.8.2zM130 81a9.2 9.2 0 0 1-2-3.3 65.5 65.5 0 0 0-5-9.3c-.3-.3-.7-.1-2.9 1l-2.5 1.4-.8-1.3c-1-1.5-1.2-2.3-.8-2.8.2-.3.2-.7 0-1.9-.2-.8-.2-1.6 0-1.7.2-.3 7.8-1.7 8.3-1.5.2 0 .5.8.7 1.7.1 1 .4 1.7.5 1.8.2 0 .6 0 1-.3.5-.2 1-.3 1.2-.2.2.1 1.7 3.1 3 6.1 1.1 2.6 1.2 2.6 3.5.3l2-2-.4-2a7 7 0 0 1 5.4-8.3c1.2-.2 1.3-.5.3-1-.6-.2-.7-.4-.6-1.4 0-.5 0-.6-.6-.5l-3.1.7-6.5 1.3c-3.7.8-9 1.5-23.3 3l-6.4.9c-.2 0-.6 0-.9-.3-.4-.4-.5-.4-1 .2-.7 1-1.3 1.3-2.3 1.5-2.1.5-4.3-1.3-4.3-3.5 0-3.3 3.5-5 6.1-2.8.7.5.7.5 1.1 0 .3-.3.8-.6 1.2-.6 2.1 0 24.1-2.7 27.5-3.4a343 343 0 0 0 16.7-3.6c.2 0 .8-.8 1.3-1.6s1.1-1.4 1.4-1.4c.2 0 1 .4 1.9 1 1.3.7 1.7.8 2.4.7.5 0 1-.3 1-.5s-.7-.7-1.5-1.2l-1.6-1.1c-.2-.3 4.3-7.6 5.1-8.5.4-.4.8-.2 4.5 2.1l4.3 2.9c.2.2 0 .9-1 2.5-.9 1.2-1.3 2.2-1.2 2.4.1.1 3.7-.2 8.6-.8l8.3-1 12-4.3c8.2-3 12.3-4.3 12.7-4.2.6.2.8 0 1.1-.7 1-2 3.4-2.6 5.3-1.4.7.4 1.4.6 3 .7l2.1.1v8.8h-8.4l-.2-1.6c0-1-.3-1.6-.5-1.8-.6-.3-.6-.3-1 .3-.1.5-2.7 1.5-12.6 5.1a51.6 51.6 0 0 1-13 4.2 103.6 103.6 0 0 1-10.7 1.4c-5.1.6-9.4 1.3-9.5 1.4 0 .3-4 6.7-5.7 9.3-.7 1-1.5 1.9-1.7 1.9-.2 0-.7-.2-1.1-.5-1.1-1-1.3-.7-1.1 1.4.1 2.5-.3 3.9-1.8 5.4-1.5 1.5-2.5 2-5 2.1l-2 .2-1.4 1.6c-1.6 2-3.4 4.3-3.7 5-.1.2-1.2 1-2.4 1.6l-2 1.1zm2.5-1.1c.7-.4 1.3-.8 1.4-1 0-.1-6.2-11.5-6.7-12 0-.1-.7.2-1.5.7-1.4.8-1.5.9-1.2 1.4 1.7 3.2 6.5 11.6 6.7 11.6l1.3-.7zm5.5-5.8 2.8-3.8c0-.1-.5-.7-1.1-1.2-1-.7-1.4-.9-1.6-.7-.5.4-4.9 6-4.9 6.2 0 .3 1.6 3 1.8 3l3-3.5zm-18.5-5.3 3-1.6 1.7-1-.4-.9c-.3-.5-.6-.9-.8-.9-.4 0-5 2.3-5.9 2.9-.3.2-.2.4.1 1.2l.7 1 1.6-.7zm-21.4-7.5c1.7-2 0-5-2.6-4.4-2.3.4-2.9 3.6-.8 5 1.1.6 2.4.4 3.4-.6zm16.4-2.2 11.8-1.4c.2-.2-.3-3.3-.5-3.3l-24.3 2.8c-.8.1-.8.2-.8 1.2l.1 1.7c.2.6.3.6 1.2.5l12.5-1.5zm26.9-4.5a704 704 0 0 0 11.9-2.5 9 9 0 0 0-.5-3 266.1 266.1 0 0 0-25 5c-.1.1.2 1.9.5 2.9.1.2.4.3.7.2l12.4-2.6zm109.8 21c.4-.8 2-2.6 2.2-2.4.2.2-1.9 2.9-2.2 2.9-.2 0-.2-.2 0-.5zm4.2-4c0-.6.5-1 .8-.7 0 0 0 .4-.3.6-.4.4-.5.4-.5 0zm1.9-2.6c0-.3.6-.9.9-.9l-.1.6c-.3.5-.8.7-.8.3zM73 58v-4.4h9v9h-9z" fill="#6e87a3"/><path d="M199 116.7c0-.2.2-.3.5-.3.2 0 .5.1.5.3s-.3.2-.5.2l-.6-.2zm-5.4-.8c0-.2.2-.3.3-.3a.3.3 0 1 1-.3.3zm30-.3c0-.2.8-.3 2-.3s1.9.1 1.9.3c0 .1-.8.3-2 .3s-2-.2-2-.3zm8 0c-.2-.3.1-.4 1.5-.6 1.2-.2 1.4.2.3.4l-1.2.3h-.6zm-1.7-.3.2-.2c.1 0 .4 0 .4.2.1.2 0 .3-.2.3s-.4-.1-.4-.3zm-43.7-2c0-.2.2-.3.4-.2l.4.3h-.4c-.2 0-.4 0-.4-.2zm-5.5-.6c-.4-.2-.4-.3 0-.3.3 0 .5.1.6.3.2.3-.1.3-.6 0zm162.8-3c-.3-1-1.4-8.2-1.2-8.4l1.7-.5 1.7-.4c.1-.1 0-.6-.2-1l-.3-1.1c0-.2 1.8-1.2 4.2-2.4l4.6-2.4c.2-.3-.2-1-1.5-2.9l-1.8-2.5-2.2.1c-1.8.2-2.3.1-3.4-.4a6.8 6.8 0 0 1-2.6-10.8l.9-1.3c0-.1-.7-.6-1.5-1s-1.4-1-1.4-1.1c0-.2.6-1.6 1.5-3.1a11 11 0 0 0 1.3-3.2 155.6 155.6 0 0 1-10.5-2.2c-7.5-1.6-10.2-2.4-21-5.7-9.7-3-12.3-3.9-12.5-4.3-.2-.5-.3-.5-1 0-2.1 1.2-5-.1-5.5-2.6-.5-2.2 1.8-4.7 4.1-4.3 1 .2 2.8 1.6 2.8 2.1 0 .2.1.5.3.7.2.3.3.3.6 0 .4-.4.6-.4 1.2-.2l12.7 3.9a191.4 191.4 0 0 0 32.8 7.9c1 .6 3.3.6 3.4 0 0-.2-.3-.5-1-.8-.5-.3-1-.6-1-.8 0-.6 4.6-9 4.9-9l1.7.8c1.7.8 1.3 1.1 5-4.5l3.2-4.8c.3-.3 2.8-6 5.6-12.7A90.9 90.9 0 0 1 375 18c-.5-1-.4-3 .1-4 1-1.5 1.7-1.7 7-1.7h4.8V21l-4 .1c-3.9.2-4 .2-4.2.8l-5.2 12a127.7 127.7 0 0 1-5.8 12.4c0 .2-1.3 2.3-2.9 4.7-2.8 4.3-3.2 5.1-2.6 5.5l.2.5c0 .4-4 8.2-4.5 8.7-.1.2-.6 0-1.1-.2-.9-.4-1-.4-1.4 0-.6.6-.3 1.2 1 2l1.4.8c.1 0-.8 2-2 4.3a94 94 0 0 0-2.3 4.6l.5 1.9a6 6 0 0 1 .4 3c0 1 0 1.5.2 1.7l3.8 1.6a18.3 18.3 0 0 1 7 4.2 117.2 117.2 0 0 1-9.1 12.8c-.2.1.5 1 1.8 2.4 1.2 1.2 2.2 2.3 2.2 2.5 0 .4-2.3 2.5-2.7 2.4-.2 0-1.7-1.4-3.4-3l-3-2.8 1.5-1.4c1.2-1.2 1.3-1.5 1-1.8-.5-.7-1-.6-3.7.7-2 1-2.5 1.2-2.8 1-.2-.2-.5-.3-.5-.2-.1 0 0 1.6.4 3.5.3 1.8.5 3.4.4 3.5l-1.3.4c-.7 0-1.5.2-1.9.3-.4.1-.7 0-.8-.2zm15-1.4.8-1c0-.2-1.1-1.4-2.5-2.8l-2.5-2.4-.8.7c-.5.4-.9.8-.9 1 0 .3 4.8 5.2 5 5.2l1-.7zm2-12.8 3.8-5.8c0-.3-2.5-1.9-2.9-1.9-.3 0-8 11-8 11.4 0 .3 2.7 2.1 3 2l4-5.7zm-1.2-6.8c.5-.7.9-1.3.9-1.5 0-.3-8.1-3.6-8.8-3.6a8 8 0 0 0-1.4 3.3c.3.2 7.6 3 8 3 .3 0 .9-.5 1.3-1.2zm-10-3.7 1-2.4c.3-.4 1-.4 2.5 0 .6.2.6.2.6-1 0-2-1-4-2.7-5-1.1-.7-1.6-.8-3-.8-1.5 0-2 .1-3 .7a6 6 0 0 0-2.7 6.7c.7 2.3 3.1 4.2 5.3 4h1.2zm5.4-12.4 2-3.8-1-.7-1-.4-.7.8c-.4.4-1 .8-1.2.8a9 9 0 0 1-2.4-1.3c-1.9-1.3-2.1-1.7-1.6-3 .1-.3 0-.6-.9-1l-1-.5-.7 1.1c-1.3 2.3-4.4 8.3-4.4 8.6 0 .2.6.6 1.4 1 1.2.6 1.4.6 2.1.4 1.9-.8 5.7-.2 6.8 1.1l.5.5 2.1-3.6zm5-15.2c3.9-5.9 7-10.8 7-11 0-.1-.6-.7-1.4-1.1-1.1-.8-1.4-.9-1.7-.6-.4.4-13.9 21.1-13.9 21.3 0 .1 2.8 2 3 2 0 0 3.3-4.8 7-10.6zm-1.4 5.7L361 58c-.3 0-4.1 6.2-4 6.5.2.6.3.5 1.3-1.3zm-4.7-5.3 2.2-3.7c-.5-.4-2-1-2-.8-.2.1-1.1 1.9-2.2 3.8-1.7 3.3-1.8 3.6-1.4 4l.8.2 2.6-3.5zM373 33.2c2.7-6.3 5-11.6 5-11.9 0-.3-.3-.6-1.4-1-1-.5-1.6-.7-1.8-.5-.3.3-10 23-10 23.4 0 .2 2.6 1.4 3 1.5.2 0 2.5-5.2 5.2-11.5zm6.9-15.1c2-1.7.9-4.6-1.7-4.6s-3.6 3.6-1.3 4.8c1.1.6 2 .5 3-.2zM202.5 99c-.1 0 1-.2 2.9-.2s3 .1 3 .3c0 .1-1 .3-2.8.3-1.7 0-3-.2-3.1-.3zm7-.2c0-.1.4-.2 1-.2.4 0 .9 0 .9.2s-.5.3-1 .3-.9-.1-.9-.3zm3-.2c0-.2.2-.3.4-.3.3 0 .6.1.6.3s-.3.2-.6.2l-.5-.2zm-55.1-.7c-.3-.3-.3-.4 0-.2.3 0 .5.2.5.4 0 .3-.1.3-.5-.2zm57.1-.4c0-.2 2.6-.7 2.9-.4.2.2 0 .3-1.5.5h-1.4zm3.4-.2c-.2-.3 1-.6 1.4-.3.3.2.3.2 0 .2l-.9.2-.5-.1zm3.5-.6c-.3-.2-.2-.3.2-.5.8-.4 4.1-1.4 4.3-1.2.2.2-.3.5-2.2 1.3-2 .8-1.8.7-2.3.4zm6.9-2.5c.2-.2.6-.4.9-.4.6 0 2-.9 3.1-1.9.8-.8 1.3-1 1.3-.5 0 .2-.3.4-.5.5-.3 0-.6.3-.6.5 0 .5-.7.9-3 1.8-1.3.5-1.6.5-1.2 0zm35.6-1.4c-.7-.7-3.4-2.4-5.8-3.9-4.2-2.5-4.4-2.7-4.3-3.4.1-.4 0-.7-.2-.7s-1.6.8-3.2 1.9a22 22 0 0 1-3.2 1.8c-.2 0-.5-.3-.8-.8l-1-1.6-.8-.8.8-.8c.8-.8.8-1 .5-1.6-.4-.7-.4-.7 1-1.4l1.8-.7c.1 0 .6-.2 1-.6.7-.6 3.5-2 3.8-1.8l.9 1.4c.8 1.7 1.3 1.9 2.1 1 .3-.4.7-.8.9-.8l3 2.6c1.7 1.5 3 2.4 3.1 2.3.3-.3.6-2.6.4-3.4 0-.4-.4-.7-.8-.8-1-.2-2.6-1.3-3.2-2.2a7 7 0 0 1 1-9.5c1.2-1 1.2-1.1.8-1.3-.2-.2-1-.4-1.6-.4l-1.4-.4c-.3-.3 0-2.4 1-5.1.9-2.9 1.4-5 1.2-5.4 0-.2-3.9-2.4-8.5-4.8l-9.3-5a697.4 697.4 0 0 1-22.5-15c0-.3-.3-.4-1.7-.4-1.6 0-1.8 0-2.7-1a3.6 3.6 0 0 1 .3-5.4 3.7 3.7 0 0 1 5.9 2.2c.1.8.2 1 .7.8.3 0 3.7 2 11.4 7a209.4 209.4 0 0 0 29 16.2c.4-.2 1-2.3 2-6.5.5-1.7.6-2 1.2-2l5 1.1 4.4 1.1-.1 1.4c0 1.2 0 1.4.3 1.3a374.8 374.8 0 0 1 34.3-22.8c.4.1.5-.1.9-1.2 1.4-4.2 7.5-3 7 1.5-.3 2.1-2.2 3.5-4.5 3.1-1-.1-1 0-1 .4s-2.9 2.4-11.6 8.2a456.4 456.4 0 0 0-28 19.8c-.1.2.2.5.5.6.6.2.7.4.6.9a401.9 401.9 0 0 0-3.3 12c-.2.3-.1.7.3 1.5s.5 1.6.5 2.8c0 2-.4 3-1.6 4.6-.7.9-.8 1.2-1 3.5v8l-1.1 1.9c-1 1.7-1.2 1.9-2 1.9s-1.3-.3-2.4-1.3zm3.8-1.2c.8-1.3.8-1.3.4-1.8-.5-.4-11.4-7.1-11.6-7.1-.2 0-1.7 2.6-1.7 3 0 .3 11.2 7.3 11.8 7.3.1 0 .7-.6 1.1-1.4zm1-8c0-3.7 0-4.8-.2-5l-1.9-.1h-1.4l-.2 2.8c-.4 5.4-.4 5.2 1.3 6.2l1.8 1c.2 0 .4-1.6.5-4.8zm-18.1 2c1.5-1 2.8-1.8 2.8-2 0-.3-1-2-1.3-2-.2 0-5.5 3.3-5.9 3.7-.3.3.7 2.1 1.2 2.1l3.2-1.7zm13.1-6.7c0-1.6.6-1.9 3-1.7 1.3 0 2.5.2 2.8.3.4.2.6 0 1-.6 1-2 .7-4.7-.9-6.4a5.7 5.7 0 0 0-8.1-.7 6 6 0 0 0-.2 8.7c1.6 1.5 2.4 1.6 2.4.4zm7.2-11.2 1.4-5.3c.9-3.7 1-4.4.7-4.6-.6-.4-.6-.4-2.7 1-1 .8-2 1.4-2.2 1.4-.2 0-1-1-1.9-2.2-1.3-2-1.7-2.3-2.5-2.6l-1.2-.2c-.2.2-2.8 10.6-2.6 10.7.3.4 3.2 1 5 1 2 .1 4.4.8 4.8 1.5.4.6 1 .2 1.2-.7zm8-16.4c5.6-4 10.2-7.5 10.2-7.6a8 8 0 0 0-2-2.8 406 406 0 0 0-20.7 15c0 .3 1.6 2.7 2 2.7l10.4-7.3zm-7.3-1c2.9-2 3-2.1 3.3-3.4l.2-1.4a65 65 0 0 0-8.3-2l-2 8c.2.4 2.1 1 3.2 1 .3 0 1.7-.8 3.6-2.1zm30-14.8c5.7-3.7 10.3-6.9 10.4-7 .2-.4-1.7-3-2-2.9-.5.2-20.8 13.6-21.2 14-.1 0 .2.8.8 1.6.8 1.3 1 1.5 1.4 1.3l10.7-7zm15.4-9.2c1.7-1.8.4-4.7-2-4.7a2.7 2.7 0 0 0-2.8 2.8c0 2.7 3 4 4.8 2zM233.8 91c0-.3.9-.6 1-.4.2 0 0 .3-.2.4-.5.3-.8.3-.8 0zM174.4 90l-.9-.7c0-.2 1.6.7 1.7 1 .3.4.2.3-.8-.3zm61 .2c.7-.7 5.7-4.1 5.8-4 .1.1-.1.4-.5.7-3.3 2.6-6.4 4.5-5.3 3.3zm-64.7-2.3.1-.3c.2 0 .4.2.5.3l-.1.3a.7.7 0 0 1-.5-.3zm105-2.6.6-.6c.1 0 0 .3-.3.6l-.5.5.2-.5zm-145.5-4c-.5-.4-1.3-1.7-2-3.4-1-2.3-4.7-9-5.1-9.6l-2.8 1.3-2.6 1.4-.7-1c-1.1-2-1.3-2.4-1-3.1.4-.5.4-1 .1-2-.1-.8-.2-1.5 0-1.6.3-.3 7.9-1.7 8.3-1.5.2 0 .5.7.6 1.5 0 .7.3 1.5.5 1.7.2.4.4.4 1.2 0 1.2-.4 1-.8 3.1 3.9l2 4c.4.3.7 0 2.6-1.8l2-2.1-.4-1.5a6.8 6.8 0 0 1 4.8-8.4c.8-.2 1.5-.5 1.5-.6l-.8-.7c-.7-.5-.8-.7-.5-1.1.2-.3.2-.6.2-.7l-8 1.5c-6.8 1.3-9.6 1.8-19.6 2.9-12.6 1.4-13.1 1.5-13.6 1-.2-.2-.5 0-1.1.7a3.6 3.6 0 0 1-6.3-2.4c0-2.3 2.3-4.1 4.4-3.6.6.2 1.2.6 1.5.9.6.6 1 .6 1.3 0a62 62 0 0 1 13.3-2 183.4 183.4 0 0 0 32.5-5.7l1-1.6c.5-.7 1-1.3 1.3-1.3.2 0 1 .4 1.8 1 1.2.7 1.6.9 2.3.7 1.6-.2 1.6-.5-.1-1.6-1-.5-1.7-1-1.8-1.2a2240 2240 0 0 1 4.8-8.1c.5-.8.9-.8 2.7.4l4 2.5c1.5 1 2.4 1.7 2.4 2 0 .2-.5 1.3-1.2 2.4l-1.2 2.1c0 .4-.1.4 8.6-.6l8-.9 12.7-4.4a65 65 0 0 1 12.6-4.1c.3.2.5 0 1-.9 1.1-2 3.6-2.6 5.5-1.3.6.4 1.2.6 2.8.6l2.1.1v8.8h-8.4l-.1-1.5c0-.8-.2-1.6-.4-1.8-.4-.5-1-.4-1 .2-.2.7-25.2 9.7-25.8 9.3a114.5 114.5 0 0 1-10.7 1.4c-8 1-9.4 1.2-9.6 1.6a664.8 664.8 0 0 1-7.2 11l-1-.5c-1.4-.9-1.5-.8-1.3 1.3.3 4.4-2.3 7.3-6.9 7.6l-2 .1-2.2 2.8-2.8 3.7c-.3.4-1.1 1-1.7 1.4l-2 1c-.7.5-.7.5-1.6-.2zM133 80c.7-.4 1.2-.9 1.2-1-.1-.4-6.4-11.5-6.7-11.9-.3-.2-3.2 1.2-3.2 1.6a103 103 0 0 0 7.1 12c.3 0 1-.3 1.6-.7zm5.2-5.7c1.5-2 2.8-3.7 2.8-4 0-.3-2.1-2-2.6-2-.4 0-5 6-5 6.5 0 .6 1.5 3.3 1.8 3.2l3-3.7zm6.7-3.2c2.2-1 3.5-3 3.5-5.4 0-5.2-6-7.7-9.8-4.2a5.9 5.9 0 0 0-1.7 5.1c.1 1 .2 1 .6.6.3-.3.6-.5.8-.5.5 0 4.3 3 4.3 3.4l-.3.9c-.3.5-.2.5.7.5a6 6 0 0 0 1.9-.4zm-20.6-4.6c0-.5-.9-2.1-1.2-2.1-.6 0-6 3-6.1 3.4 0 .2.1.8.4 1.3l.6.8 3.1-1.6 3.2-1.8zm30.1-8.1c1.5-2.4 2.8-4.6 2.8-4.8 0-.2-.5-.7-1-1l-1.2-.7v.7l-.2.8-6.2 1.3c-6.4 1.3-7.1 1.7-6 2.6.4.3 1.3.9 2.2 1.3.9.4 2 1.2 2.7 1.7 1.3 1 3.6 2.5 4 2.5l3-4.4zM98 61.9c.8-.7 1.4-2 1.1-3-.2-1.1-1.5-2-2.8-2-1.3 0-2 .3-2.4 1.3a3 3 0 0 0 .7 3.7c.8.7 2.6.6 3.4 0zm16-2.4 12.3-1.6c.3-.1.3-.5.3-1.5-.2-2.3.9-2.3-12.6-.7l-12.6 1.5c-.6 0-.7.1-.6 1.5 0 1.8.2 2.1.8 2.1l12.4-1.3zm27.5-4.6 12.2-2.7c.2-.1-.5-3.3-.7-3.4-.3-.2-25 5-25 5.4-.1.1 0 1 .1 1.7.2 1.1.4 1.5.8 1.5l12.6-2.5zm19.7-9.6c1-1.6 1.8-3 1.7-3.2-.2-.4-7-4.7-7.1-4.5l-2.3 3.5c-1.4 2.3-2 3.6-2 3.8a32 32 0 0 0 3.6 2.4c3.9 2.5 3.2 2.7 6.1-2zm-12.3 2.8c.3-.5-.7-.6-1.2-.1-.4.4-.3.4.3.4.4 0 .8-.1.9-.3zm102.5 27.6c.4-.8 2-2.6 2.2-2.4.2.2-1.9 2.9-2.2 2.9-.2 0-.2-.2 0-.5zm4.2-4c0-.6.5-1 .8-.7 0 0 0 .4-.3.6-.4.4-.5.4-.5 0zm1.9-2.6c0-.3.6-.9.9-.9l-.1.6c-.3.5-.8.7-.8.3zM73.1 62.3V54h8.7v8.6l-4.3.1c-3.3 0-4.3 0-4.4-.3z" fill="#d7574c"/><path d="M199 116.7c0-.2.2-.3.5-.3.2 0 .5.1.5.3s-.3.2-.5.2l-.6-.2zm-5.4-.8c0-.2.2-.3.3-.3a.3.3 0 1 1-.3.3zm30-.3c0-.2.8-.3 2-.3s1.9.1 1.9.3c0 .1-.8.3-2 .3s-2-.2-2-.3zm8 0c-.2-.3.1-.4 1.5-.6 1.2-.2 1.4.2.3.4l-1.2.3h-.6zm-1.7-.3.2-.2c.1 0 .4 0 .4.2.1.2 0 .3-.2.3s-.4-.1-.4-.3zm-43.7-2c0-.2.2-.3.4-.2l.4.3h-.4c-.2 0-.4 0-.4-.2zm-5.5-.6c-.4-.2-.4-.3 0-.3.3 0 .5.1.6.3.2.3-.1.3-.6 0zm162.8-3c-.3-1-1.4-8.2-1.2-8.4l1.7-.5 1.7-.4c.1-.1 0-.6-.2-1l-.3-1.1c0-.2 1.8-1.2 4.2-2.4l4.6-2.4c.2-.3-.2-1-1.5-2.9l-1.8-2.5-2.2.1c-1.8.2-2.3.1-3.4-.4a6.8 6.8 0 0 1-2.6-10.8l.9-1.3c0-.1-.7-.6-1.5-1s-1.4-1-1.4-1.1c0-.2.6-1.6 1.5-3.1a11 11 0 0 0 1.3-3.2 155.6 155.6 0 0 1-10.5-2.2c-7.5-1.6-10.2-2.4-21-5.7-9.7-3-12.3-3.9-12.5-4.3-.2-.5-.3-.5-1 0-2.1 1.2-5-.2-5.5-2.7-.5-2.2 2-4.6 4.1-4.2 1 .2 2.8 1.6 2.8 2.1 0 .2.1.5.3.7.2.3.3.3.6 0 .4-.4.6-.4 1.2-.2l12.7 3.9a191.4 191.4 0 0 0 32.8 7.9c1 .6 3.3.6 3.4 0 0-.2-.3-.5-1-.8-.5-.3-1-.6-1-.8 0-.6 4.6-9 4.9-9l1.7.8c1.7.8 1.3 1.1 5-4.5l3.2-4.8c.3-.3 2.8-6 5.6-12.7A90.9 90.9 0 0 1 375 18c-.5-1-.4-3 .1-4 1-1.5 1.7-1.7 7-1.7h4.8V21l-4 .1c-3.9.2-4 .2-4.2.8l-5.2 12a127.7 127.7 0 0 1-5.8 12.4c0 .2-1.3 2.3-2.9 4.7-2.8 4.3-3.2 5.1-2.6 5.5l.2.5c0 .4-4 8.2-4.5 8.7-.1.2-.6 0-1.1-.2-.9-.4-1-.4-1.4 0-.6.6-.3 1.2 1 2l1.4.8c.1 0-.8 2-2 4.3a94 94 0 0 0-2.3 4.6l.5 1.9a6 6 0 0 1 .4 3c0 1 0 1.5.2 1.7l3.8 1.6a18.3 18.3 0 0 1 7 4.2 117.2 117.2 0 0 1-9.1 12.8c-.2.1.5 1 1.8 2.4 1.2 1.2 2.2 2.3 2.2 2.5 0 .4-2.3 2.5-2.7 2.4-.2 0-1.7-1.4-3.4-3l-3-2.8 1.5-1.4c1.2-1.2 1.3-1.5 1-1.8-.5-.7-1-.6-3.7.7-2 1-2.5 1.2-2.8 1-.2-.2-.5-.3-.5-.2-.1 0 0 1.6.4 3.5.3 1.8.5 3.4.4 3.5l-1.3.4c-.7 0-1.5.2-1.9.3-.4.1-.7 0-.8-.2zm15-1.4.8-1c0-.2-1.1-1.4-2.5-2.8l-2.5-2.4-.8.7c-.5.4-.9.8-.9 1 0 .3 4.8 5.2 5 5.2l1-.7zm2-12.8 3.8-5.8c0-.3-2.5-1.9-2.9-1.9-.3 0-8 11-8 11.4 0 .3 2.7 2.1 3 2l4-5.7zm-1.2-6.8c.5-.7.9-1.3.9-1.5 0-.3-8.1-3.6-8.8-3.6a8 8 0 0 0-1.4 3.3c.3.2 7.6 3 8 3 .3 0 .9-.5 1.3-1.2zm-10-3.7 1-2.4c.3-.4 1-.4 2.5 0 .6.2.6.2.6-1 0-2-1-4-2.7-5-1.1-.7-1.6-.8-3-.8-1.5 0-2 .1-3 .7a6 6 0 0 0-2.7 6.7c.7 2.3 3.1 4.2 5.3 4h1.2zm5.4-12.4 2-3.8-1-.7-1-.4-.7.8c-.4.4-1 .8-1.2.8a9 9 0 0 1-2.4-1.3c-1.9-1.3-2.1-1.7-1.6-3 .1-.3 0-.6-.9-1l-1-.5-.7 1.1c-1.3 2.3-4.4 8.3-4.4 8.6 0 .2.6.6 1.4 1 1.2.6 1.4.6 2.1.4 1.9-.8 5.7-.2 6.8 1.1l.5.5 2.1-3.6zm5-15.2c3.9-5.9 7-10.8 7-11 0-.1-.6-.7-1.4-1.1-1.1-.8-1.4-.9-1.7-.6-.4.4-13.9 21.1-13.9 21.3 0 .1 2.8 2 3 2 0 0 3.3-4.8 7-10.6zm-1.4 5.7L361 58c-.3 0-4.1 6.2-4 6.5.2.6.3.5 1.3-1.3zm-4.7-5.3 2.2-3.7c-.5-.4-2-1-2-.8-.2.1-1.1 1.9-2.2 3.8-1.7 3.3-1.8 3.6-1.4 4l.8.2 2.6-3.5zM373 33.2c2.7-6.3 5-11.6 5-11.9 0-.3-.3-.6-1.4-1-1-.5-1.6-.7-1.8-.5-.3.3-10 23-10 23.4 0 .2 2.6 1.4 3 1.5.2 0 2.5-5.2 5.2-11.5zm13.3-16.6V13h-2.7a9 9 0 0 0-2.6.2l.5 1c1.2 1.8.2 4.7-1.8 5.5-1.4.5-.5.7 3 .7h3.6zm-6.4 1.5c2-1.7.9-4.6-1.7-4.6s-3.6 3.6-1.3 4.8c1.1.6 2 .5 3-.2zM157.4 98c-.3-.3-.3-.4 0-.2.3 0 .5.2.5.4 0 .3-.1.3-.5-.2zm106.5-5.1c-.8-.7-3.4-2.4-5.8-3.9-4.2-2.5-4.4-2.7-4.3-3.4.1-.4 0-.7-.2-.7s-1.6.8-3.2 1.9a22 22 0 0 1-3.2 1.8c-.2 0-.5-.3-.8-.8l-1-1.6-.8-.8.9-.8c.7-.6.8-.7.6-1.2-.2-.3-.3-.7-.3-1 0-.3 2.5-1.5 3-1.4.2.1.6-.1.8-.5.5-.6 3.6-2.3 3.9-2l.9 1.4c.8 1.7 1.3 1.9 2.1 1 .3-.4.7-.8.9-.8l3 2.6c1.7 1.5 3 2.4 3.1 2.3.3-.3.6-2.6.4-3.4 0-.4-.4-.7-.8-.8-1-.2-2.6-1.3-3.2-2.2a7 7 0 0 1 1-9.5c1.2-1 1.2-1.1.8-1.3-.3-.2-1-.4-1.6-.4l-1.4-.4c-.2-.3.3-3.4.8-4.8.6-1.5 1.6-5.4 1.4-5.7 0-.2-3.9-2.4-8.5-4.8l-9.3-5a697.4 697.4 0 0 1-22.5-15c0-.3-.3-.4-1.7-.4-1.6 0-1.8 0-2.7-1a3.6 3.6 0 0 1 .3-5.4 3.7 3.7 0 0 1 5.9 2.2c.1.8.2 1 .7.8.3 0 3.6 2 11.4 7a209.4 209.4 0 0 0 29 16.2c.4-.2 1-2.3 2-6.5.5-1.7.6-2 1.2-2l5 1.1 4.4 1.1-.1 1.4c0 1.2 0 1.4.3 1.3a375.5 375.5 0 0 1 34.3-22.8c.4.1.5-.1.9-1.2 1.4-4.2 7.5-3 7 1.5-.3 2.1-2.2 3.5-4.5 3.1-1-.1-1 0-1 .4s-2.9 2.4-11.6 8.2a456.4 456.4 0 0 0-28 19.8c-.1.2.2.5.5.6.6.2.7.4.6.9a401.9 401.9 0 0 0-3.3 12c-.2.3-.1.7.3 1.5s.5 1.6.5 2.8c0 2-.4 3-1.6 4.6-.7.9-.8 1.2-1 3.5v8l-1.1 1.9c-1 1.7-1.2 1.9-2 1.9s-1.3-.3-2.4-1.3zm3.8-1.2c.8-1.3.8-1.3.4-1.8-.5-.4-11.4-7.1-11.6-7.1-.2 0-1.7 2.6-1.7 3 0 .3 11.2 7.3 11.8 7.3.1 0 .7-.6 1.1-1.4zm1-8c0-3.7 0-4.8-.2-5l-1.9-.1h-1.4l-.2 2.8c-.4 5.4-.4 5.2 1.3 6.2l1.8 1c.2 0 .4-1.6.5-4.8zm-18.1 2c1.5-1 2.8-1.8 2.8-2 0-.3-1-2-1.3-2-.2 0-5.5 3.3-5.9 3.7-.3.3.7 2.1 1.2 2.1l3.2-1.7zm13.1-6.7c0-1.6.6-1.9 3-1.7l2.8.3c.4.2.6 0 1-.6 1-2 .7-4.7-.9-6.4a5.7 5.7 0 0 0-8.1-.7 6 6 0 0 0-.2 8.7c1.6 1.5 2.4 1.6 2.4.4zm7.2-11.2 1.4-5.3c.9-3.7 1-4.4.7-4.6-.6-.4-.6-.4-2.7 1-1 .8-2 1.4-2.2 1.4-.2 0-1-1-1.9-2.2-1.3-2-1.7-2.3-2.5-2.6l-1.2-.2c-.2.2-2.8 10.6-2.6 10.7.3.4 3.2 1 5 1 2 .1 4.4.8 4.8 1.5.4.6 1 .2 1.2-.7zm8-16.4c5.6-4 10.2-7.5 10.2-7.6a8 8 0 0 0-2-2.8 406 406 0 0 0-20.7 15c0 .3 1.6 2.7 2 2.7l10.4-7.3zM263 53c0-.2-.1-.1-.1.2 0 .2 0 .4.1.3v-.5zm8.5-2.6c2.9-2.1 3-2.2 3.3-3.5l.2-1.4a65 65 0 0 0-8.3-2l-2 8c.2.4 2.1 1 3.2 1 .3 0 1.7-.8 3.6-2.1zm30-15c5.7-3.6 10.3-6.8 10.4-6.9.2-.4-1.7-3-2.1-2.9-.4.2-20.7 13.6-21.1 14-.1 0 .2.8.8 1.6.8 1.3 1 1.5 1.4 1.3l10.7-7zm15.4-9c1.7-2 .4-4.8-2-4.8a2.7 2.7 0 0 0-2.8 2.8c0 2.7 3 4 4.8 2zm-41.3 58.7.6-.6-.2.6-.6.5.2-.5zm-145.5-4c-.5-.4-1.3-1.7-2-3.4-1-2.3-4.7-9-5.1-9.6l-2.8 1.3-2.6 1.4-.7-1c-1.1-2-1.3-2.4-1-3.1.4-.5.4-1 .1-2-.1-.8-.2-1.5 0-1.6.3-.3 8-1.7 8.3-1.5.2 0 .5.7.6 1.5 0 .7.3 1.5.5 1.7.2.4.4.4 1.3 0 1.1-.4.8-.8 3 3.9l2 4c.4.3.7 0 2.6-1.8l2-2.1-.3-1.5a6.8 6.8 0 0 1 4.7-8.4c.8-.2 1.5-.5 1.5-.6l-.8-.7c-.7-.5-.7-.7-.5-1.1.2-.3.2-.6.2-.7-.1-.1-3.7.6-8 1.5-6.8 1.3-9.6 1.8-19.6 2.9-12.6 1.4-13.1 1.5-13.6 1-.2-.2-.5 0-1.1.7a3.6 3.6 0 0 1-6.3-2.4c0-2.3 2.3-4.1 4.4-3.6.6.2 1.2.6 1.5.9.6.6 1 .6 1.3 0a62 62 0 0 1 13.3-2 183.4 183.4 0 0 0 32.5-5.7l1-1.6c.5-.7 1-1.3 1.3-1.3.2 0 1 .4 1.8 1 1.2.7 1.6.9 2.3.7 1.6-.2 1.6-.5-.1-1.6-1-.5-1.7-1-1.8-1.2a2240 2240 0 0 1 4.8-8.1c.5-.8.9-.8 2.7.4l4 2.5c1.5 1 2.4 1.7 2.4 2 0 .2-.5 1.3-1.2 2.4l-1.2 2.1c0 .4-.1.4 8.6-.6 4.2-.5 7.9-1 8-.9l12.7-4.4a65 65 0 0 1 12.6-4.1c.3.2.5 0 1-.9 1.1-2 3.6-2.6 5.5-1.3.6.4 1.2.6 2.8.6l2.1.1v8.8h-8.4l-.1-1.5c0-.8-.2-1.6-.4-1.8-.4-.5-1-.4-1 .2-.2.7-25.2 9.7-25.8 9.3a114.5 114.5 0 0 1-10.7 1.4c-8 1-9.4 1.2-9.6 1.6a664.8 664.8 0 0 1-7.2 11l-1-.5c-1.4-.9-1.5-.8-1.3 1.2.3 4.5-2.3 7.4-6.9 7.7l-2 .1-2.2 2.8-2.8 3.7c-.3.4-1.1 1-1.7 1.4l-2 1c-.7.5-.7.5-1.6-.2zM133 80c.7-.4 1.2-.9 1.2-1-.1-.4-6.4-11.5-6.7-11.9-.3-.3-3.2 1.2-3.2 1.6a103 103 0 0 0 7.1 12c.3 0 1-.3 1.6-.7zm5.2-5.7c1.5-2 2.8-3.7 2.8-4 0-.3-2.1-2-2.6-2-.4 0-5 6-5 6.5 0 .6 1.5 3.3 1.8 3.2l3-3.7zm6.7-3.2c2.2-1 3.5-3 3.5-5.4 0-5.2-6-7.8-9.8-4.2a5.9 5.9 0 0 0-1.7 5.1c.1 1 .2 1 .6.6.3-.3.6-.5.8-.5.5 0 4.3 3 4.3 3.4l-.3.9c-.3.5-.2.5.7.5a6 6 0 0 0 1.9-.4zm-20.6-4.7c0-.4-.9-2-1.2-2-.6 0-6 3-6.1 3.4 0 .2.1.8.4 1.3l.6.8 3.1-1.6c1.8-.9 3.2-1.7 3.2-1.9zm30.1-8c1.6-2.4 2.8-4.6 2.8-4.8 0-.2-.5-.7-1-1l-1.2-.7v.7l-.2.8-6.2 1.3c-6.4 1.3-7.1 1.7-6 2.6.4.3 1.3.9 2.2 1.3.9.4 2 1.2 2.7 1.7 1.3 1 3.6 2.5 4 2.5l3-4.4zM98 61.9c.8-.7 1.4-2 1.1-3-.2-1.1-1.5-2-2.8-2-1.3 0-2 .3-2.4 1.3a3 3 0 0 0 .7 3.7c.8.7 2.6.6 3.4 0zm16-2.4 12.3-1.6c.3-.1.3-.5.3-1.5-.2-2.3 1-2.3-12.6-.7l-12.6 1.5c-.6 0-.7.1-.6 1.5.1 1.8.2 2.1.8 2.1l12.4-1.3zm27.5-4.6 12.2-2.7c.2-.1-.5-3.3-.7-3.4-.3-.2-25 5-25 5.4-.1.1 0 1 .1 1.7.2 1.1.4 1.5.8 1.5l12.6-2.5zm19.7-9.6c1-1.6 1.8-3 1.7-3.2-.2-.4-7-4.7-7.1-4.5l-2.3 3.5c-1.4 2.3-2 3.5-2 3.8a32 32 0 0 0 3.6 2.4c3.9 2.5 3.2 2.7 6.1-2zm-12.3 2.8c.3-.5-.7-.6-1.1-.1-.4.4-.4.4.2.4.4 0 .8-.1.9-.3zm65.6-8.7v-3.6H213l-1.5-.1V37c0 2.3-1.5 3.9-3.6 3.9-.6 0-.7 0-.7 1v1.1h3.7l3.6-.1zm-141.3 23v-8.5h8.7v8.6l-4.3.1c-3.3 0-4.3 0-4.4-.3zm8-4.2v-3.7h-7.3v7.4h7.4z" fill="#61758c"/><path d="M343.7 109.7c-.4-.6-1.6-8-1.3-8.3.1-.2.8-.4 1.5-.5.7 0 1.5-.3 1.7-.5.4-.3.4-.4 0-1.3l-.3-1 4.5-2.3c3-1.4 4.4-2.3 4.4-2.6 0-.2-.8-1.5-1.8-2.9-1.6-2.1-2-2.5-2.5-2.4-1.8.4-2.6.5-4 0-3-.8-4.9-3.2-4.9-6.4 0-1.9.5-3.3 1.8-4.6.5-.5.8-1 .7-1.2 0-.2-.8-.7-1.6-1.2-.8-.4-1.4-.9-1.4-1l1.6-3c1.5-2.9 1.6-3.6.3-3.6l-9.3-1.8a173 173 0 0 1-18.5-5l-12.4-3.8c-2.1-.6-2.7-.9-2.7-1.3 0-.7-.3-.8-1-.3-.5.4-1.1.6-2.1.6-1.3 0-1.6-.1-2.4-.9a3.6 3.6 0 0 1-.6-4.4c.8-1.2 2.5-2 3.8-1.6 1.2.4 2.5 1.6 2.5 2.3 0 .7.6 1 .9.5.1-.2.4-.4.6-.4l12.7 3.8a191.3 191.3 0 0 0 32.3 7.8l1 .2c.4.4 3 1 3.4.7l.2-.7c0-.5-.2-.8-1-1l-1-.5 1.1-2.2a276.4 276.4 0 0 0 3.5-6.6c.1-.1.8.1 1.5.5 1.7.8 2.1.8 2.9-.4l3.5-5.4c3.1-4.7 3.2-5 11.5-24.7 1-2.4 1.7-3.4 2-3.6.6-.2.6-.2.2-1.1-.5-1.3-.5-2.3.2-3.4 1.1-1.7 2.1-2 7.2-2h4.5V21l-8.1.3-.8 1.8a808.7 808.7 0 0 1-9.8 22.4 53.3 53.3 0 0 1-3.4 5.3c-1.6 2.4-3 4.6-3 4.8-.1.3 0 .7.2 1 .5.5.5.5 0 1.4-.4.4-1.1 1.8-1.7 3l-2.4 4.5c-.2.3-.5.2-1.2-.1-.9-.4-1-.4-1.4.1-.8.8-.5 1.3 1 2 .8.4 1.4.9 1.4 1 0 .2-1 2.3-2.3 4.6l-2.3 4.3.5.9c.3.5.5 1.8.6 3.3l.2 2.3 1.8.7 3.8 1.5c1.2.5 2.5 1.2 3.3 2l1.6 1c.5 0 0 .9-1.7 3.4A23.2 23.2 0 0 0 361 96a35 35 0 0 0-2.4 3.2c-1.4 2-2.2 2.9-2.6 3-.5 0-.3.4 1.9 2.6l2.4 2.5-1.3 1.3-1.3 1.3-3-3a60 60 0 0 1-3-3c-.1-.1.4-.7 1-1.4 1.3-1.2 1.6-1.8.8-2.2-.5-.3-1.6 0-4 1.2-1.9 1-2.1 1-2.6.4-.1-.3-.4-.4-.4-.3-.1 0 .1 1.7.5 3.7.4 2.4.5 3.6.3 3.8-.4.4-3.4.9-3.6.6zm15-1.3.8-1.1c0-.4-4.8-5.2-5.1-5.2-.3 0-2 1.6-2 2 0 .1 5 5.1 5.3 5.1l1-.8zm-1.4-8.1a486.5 486.5 0 0 0 7-10.7c0-.4-2.5-2-2.9-2-.2 0-7.9 10.8-8.1 11.5-.2.3 2.2 2.2 2.8 2.2.3 0 .8-.5 1.2-1zm2.3-11.7c.5-.7 1-1.5.9-1.6-.2-.2-2.2-1-6.3-2.6-3.1-1.2-3-1.2-3.9 1-.4 1-.5 1.4-.2 1.6.5.4 7.7 3.2 8.1 3.1.2 0 .8-.7 1.4-1.5zm-10-3.5c1-2.7.8-2.6 3.2-2.3.8.1.8 0 .9-1A5.7 5.7 0 0 0 350 76a6 6 0 1 0-2.7 11.5h1.2zm5.3-12.4 2-3.9c0-.3-1.8-1.4-2.3-1.4-.1 0-.5.4-.7.8-.6 1-1.2 1-3 0-2.5-1.8-2.4-1.7-2-2.6.4-1 .3-1.2-1-1.9-.9-.4-1-.4-1.3-.1-.3.3-5.3 9.6-5.3 9.8l1.5 1 1.4.7 1.7-.4c1.1-.3 2-.3 2.8-.2 1.4.3 3 1 3.4 1.6l.6.3c.2 0 1.2-1.7 2.2-3.7zm-.4-7a2273.3 2273.3 0 0 1 12.4-19.3c0-.3-2.5-2-3-2-.2 0-.8.6-1.3 1.4A425.2 425.2 0 0 0 349.7 66c0 .4 2.4 2 3 2 .2 0 1-1 1.8-2.3zm5.1-4.4 2-4.1c0-.7-.4-.3-1.3 1.2-3.5 5.2-4 6-3.6 6.3.1.2.4.4.6.4.2 0 1.2-1.8 2.3-3.8zm-7.4-1c1.5-2.2 3.7-5.6 3.8-6 .1-.4-1.4-1.4-2-1.4-.3 0-1.2 1.4-2.5 3.9l-2 3.9.5.4c.9.8 1.2.6 2.2-.9zm17.5-18.9a2783.7 2783.7 0 0 1 8.5-20.5c-.2-.4-3-1.4-3.4-1.3a9982.9 9982.9 0 0 1-9 20.7c-.9 2-1.2 3-1 3.2.6.5 3 1.4 3.4 1.2l1.5-3.3zm16.6-24.8V13h-2.7a9 9 0 0 0-2.6.2l.5 1c1.2 1.8.2 4.7-1.8 5.5-1.4.5-.5.7 3 .7h3.6zm-6.5 1.9c1.7-1 1.8-3.5.2-4.8-1.8-1.3-4.6.1-4.6 2.3 0 2.4 2.4 3.7 4.4 2.5zM264.2 93c-.6-.6-3.2-2.4-5.6-3.9l-4.7-2.9v-.9c.5-1 0-.9-3.1 1-4 2.6-3.6 2.5-4.5 1-.5-.7-1-1.5-1.3-1.6-.4-.2-.3-.4.5-1 .7-.7.8-.8.6-1.3-.5-.8-.4-1.4 0-1.4a5 5 0 0 0 1.5-.5c.6-.3 1.2-.5 1.3-.4.2 0 .4-.1.6-.4a12 12 0 0 1 3.9-2.1l1 1.4c.3.8.8 1.5 1 1.6.2 0 .7-.2 1.1-.7.7-.7.8-.7 1.4-.3.7.4 1.5 1.1 3.8 3.4a5 5 0 0 0 1.6 1.2c.5 0 .8-1.7.7-3.2-.1-.8-.3-1-1.6-1.6a8 8 0 0 1-2.3-1.7 7.5 7.5 0 0 1-1.5-5.2 7.7 7.7 0 0 1 2.6-4.5c.5-.4 1-.8 1-1 0-.3-2.1-1-2.3-.7l-.7-.1c-.4-.3-.5-.5-.3-1.8 0-.9.5-2.7 1-4.2 1.1-3.3 1.4-4.7.9-5-.3-.3-3-1.8-16.9-9.2a335.8 335.8 0 0 1-23-15.4c0-.6-.1-.7-.8-.5-2.6.8-4.9-.8-4.9-3.2 0-2.2 1.5-3.6 3.9-3.6 1.4 0 2.8 1.3 3 2.8.2 1 .3 1 1 1 .5 0 3.2 1.6 11.6 7a209.3 209.3 0 0 0 28.7 16c.5 0 .7-.4 1-1.6l1-3.2.7-2.7c.1-.5.4-.9.6-.9.7.1 9.3 2.2 9.4 2.4l-.2 1c-.4 1.3-.2 1.9.6 1.5l5.5-3.9c2.7-2 10-7 16.3-11.1a87.2 87.2 0 0 1 12.1-7.6c.7 0 .9-.2 1-.8.6-1.7.8-2 1.6-2.5 1.2-.7 3-.7 4 0 2 1.4 1.8 4.5-.3 5.8-.7.5-1.1.6-2.4.4-1.4-.1-1.5-.1-1.4.4.1.4-1.7 1.7-10.8 7.8l-14.3 9.6a240 240 0 0 0-14.7 10.8c0 .2.2.5.7.7.8.2 1 .7.5 1.1a51 51 0 0 0-1.5 5.6l-1.7 6c-.2.4-.1.8.3 1.8 1 2.3.7 4.6-1 6.9-.6.9-.8 1.5-.8 2.3 0 1.2-.2 1.9-.6 1.9-.1 0-.2-.8-.2-1.8v-2.1c0-.3-.5-.4-2-.3H265v3.8c-.2 2-.1 3.9 0 4.1.2.6 3.3 2.5 3.5 2.3l.4-2.8.1-2.6.3 3.4.2 3.3-1.2 2c-1 1.7-1.3 2-2 2s-1-.1-2-1zm3.7-1.2c.8-1.4.8-1.5.4-1.9-.7-.7-11.3-7.1-11.7-7.1-.4 0-2.1 2.6-2.1 3 0 .2.8.8 1.8 1.4l3.6 2.2L264 92a11 11 0 0 0 2.6 1.4c.3 0 .8-.7 1.3-1.5zm-19.7-4.4 5-3.2c.5-.4.5-.5 0-1.4l-1-1.2c-.4-.1-6 3.5-6.1 4-.1.6.9 2.2 1.3 2.2l.8-.4zm6.6-4.5-.3-.2h-.3c0 .2.1.3.3.3h.3zm9.2-3.8c0-1.5.4-1.7 2.9-1.5 1.1 0 2.3.2 2.6.4.5.3.6.2 1.2-.8a7 7 0 0 0 0-5.7c-2.3-4.3-8.5-4.3-10.7 0-.7 1.2-.8 1.6-.7 3.3 0 1.6.2 2 .9 3 .8 1.2 2.5 2.3 3.4 2.3.3 0 .4-.2.4-1zm8.2-15.4a45 45 0 0 0 1.2-5.6c-.3-.9-1.2-.7-3.1.6-1 .7-2 1.3-2.2 1.3-.2 0-1-1-1.8-2.2-1.4-2-1.7-2.3-2.6-2.6h-1.3a146 146 0 0 0-2.9 10.8c0 .5 3.3 1.2 5.6 1.3a6 6 0 0 1 3.4.9l1.9.8c.3 0 .7-1.1 1.8-5.3zm.1-7.5 4.1-3a2459.1 2459.1 0 0 0 12.8-9c.4-.3-.1-1.3-1.3-2.6l-.8-1-10.4 7.5c-5.7 4.1-10.5 7.6-10.5 7.8-.1.5 2 3.1 2.4 2.9l3.7-2.6zm-9.2-3.1c0-.2-.1-.1-.1.2 0 .2 0 .4.1.3v-.5zm6.1-.7a88 88 0 0 0 3.2-2.2c2.3-1.7 2.4-1.9 2.7-3.2.2-.8.3-1.4.1-1.5-.4-.4-8.2-2.4-8.5-2.2-.2.2-2.2 7.6-2.2 8.4 0 .2.5.5 1.3.7 1.7.6 2.6.6 3.4 0zm32.4-16.6c5.8-3.8 10.6-7.1 10.6-7.3 0-.4-1.8-3.1-2-3.1-.5 0-21.4 14-21.5 14.4-.1.5 1.6 3 2 3 .2 0 5-3.1 10.9-7zm15.5-9.2c1-1 1.2-2.3.5-3.6a3.9 3.9 0 0 0-2.6-1.6c-1 0-2.3.8-2.7 1.6a3 3 0 0 0 .4 3.6c.8.8 1 .9 2.2.9 1.1 0 1.4-.1 2.2-1zM130 81c-.4-.4-1.3-2-2-3.5-1.8-4-4.8-9.3-5.3-9.3l-2.6 1.2-2.4 1.2-1.1-1.6c-.7-1.2-.8-1.7-.6-2 .2-.1.3-1 .2-2.1v-1.8l3.9-.8c2.9-.5 4-.6 4.2-.4.2.1.5.8.6 1.5.2 2 .4 2 1.7 1.7l1.1-.3 2 4c1 2.2 2 4 2.1 4.1.3.1 1.2-.7 2.5-2l2.2-2.1-.3-1c-1.1-3.7 1-7.7 4.4-8.6 1.8-.4 1.9-.5 1.9-.7 0-.2-.4-.5-.8-.7-.7-.4-.8-.6-.7-1.1.3-1 0-1.1-1.6-.8-.8.2-2 .5-2.6.5l-3.1.7-3.3.7c-1.2.1-2.8.5-4 .8l-1.5.3a103.8 103.8 0 0 0-6.9.7 147.8 147.8 0 0 0-6.9.8l-2.5.3-4.8.5c-2.5.4-3.3.3-3.7 0-.5-.5-.6-.5-.8 0-1.2 2.2-4.4 2.5-6 .5-.8-1-.8-3.2.1-4.3 1.3-1.5 3.4-1.7 5-.4l1 .7.4-.6c.4-.4.9-.6 1.8-.7a62.2 62.2 0 0 0 7-.7 83.5 83.5 0 0 0 4.4-.6 141.2 141.2 0 0 0 6.8-.7 43.9 43.9 0 0 0 10.2-1.6l2.5-.6 3.8-.8a80.2 80.2 0 0 0 7.4-1.5c1.3-.2 2.1-.8 3-2.3l1-1.3 1.3.7c1.7 1.1 2.6 1.4 3.5 1 1.3-.4 1-.8-1.2-2-1.2-.7-1.4-1.1-.5-2.2l.7-1.1.6-1 .7-1.1.9-1.4 1.2-2c.2-.4.4-.7.6-.7l2 1.2a18 18 0 0 0 1.8 1.2c.1 0 .6.2 1 .6l1.5 1c.4.1 1 .5 1.4.8l.8.6-.6 1c-.3.7-.7 1.3-1 1.5l-.7 1.3c-.4.7-.4.9 0 1 .2 0 3.5-.2 7.4-.7l8.3-.9c.8 0 4.8-1.3 13.3-4.4 11.2-4 12.3-4.4 12.7-4l.5.3.6-1.2c.3-.5.9-1.2 1.3-1.5 1-.7 2.7-.7 4 0 .7.5 1.3.6 2.9.6 1.5 0 2 0 2.1.4.2.6.2 7.9 0 8.3-.2.2-1.3.3-4.4.2h-4l-.1-1.5c-.1-2-1.1-3.1-1.5-1.8a352 352 0 0 1-25 9.5c-.3 0-.6-.2-.7-.3-.3-.2-.5-.2-.8 0-.4.6-.3.6-10.4 1.7l-8.6 1c-.3.2-.8.7-1.2 1.3L157 56c-1.3 2-2.7 4.3-2.7 4.6l-.7 1c-.4.4-.8 1-1 1.5-.5 1-.6 1-1.9.2-1.4-1-1.8-.8-1.5.4 1 4.7-2 8.5-6.5 8.5-1 0-2 .1-2.2.3-.6.5-4.3 5.3-4.8 6.2-.3.6-1 1.1-2 1.7l-2 1c-.4.5-.7.3-1.5-.4zm2.8-.9c.8-.4 1.5-1 1.5-1 0-.5-6.7-12.2-7-12.4-.4 0-2.6 1.1-3 1.7-.3.3.3 1.6 3.1 6.4 2 3.4 3.6 6.1 3.8 6.1.1 0 .9-.3 1.6-.8zm5.4-5.8 3-4c0-.4-2.5-2.3-3-2.3-.2 0-4.2 5-5 6.2-.3.5-.2.8.7 2.3.5 1 1 1.7 1.2 1.6l3.1-3.8zm7.6-3.6c4.1-2.5 3.5-8.9-1-10.8-2-.8-4.5-.4-6.2 1a5.7 5.7 0 0 0-2 4.7c0 2 .1 2.4.8 1.8.3-.3.6-.5.8-.5.2 0 1.2.7 2.2 1.5 1.9 1.5 2 1.6 1.4 2.8-.2.5-.1.5 1.3.4a6 6 0 0 0 2.7-.9zM121 68.4c4-2 3.7-1.8 3-3a5 5 0 0 0-.7-1.2c-.2-.2-6.3 2.8-6.5 3.2-.2.3.4 1.9.8 2.2.3.4.7.2 3.4-1.2zm33.7-10c1.6-2.6 3-4.8 3-5 0-.3-2.3-1.8-2.7-1.8-.2 0-.3.3-.3.6 0 1-.2 1-6.7 2.3-4.9 1-5.5 1.2-5.9 1.8-.5.8-.4.9 2.6 2.4 1 .6 3 1.8 4 2.7a11 11 0 0 0 2.6 1.5c.3 0 1.5-1.6 3.4-4.6zm-56.3 3.2c.6-.6.8-1 .8-2s-.2-1.3-1-2.1c-1-1-2.2-1.2-3.5-.5-.8.4-1.6 1.6-1.6 2.5 0 2.8 3.5 4.3 5.3 2.1zm16.3-2.1c6.3-.7 11.6-1.4 11.8-1.5.3-.2 0-3.2-.3-3.6-.2-.2-23.3 2.2-25 2.7-.8.2-.8.2-.7 1.6.1 2.1.3 2.4 1.7 2.3l12.5-1.5zm19.8-3c16.5-3.5 18.8-4 19-4.2.3-.2.3-.6 0-1.8-.1-.9-.4-1.7-.5-1.8-.2-.2-25 4.8-25.3 5.2v1.7c.4 1.8.5 2 .8 2l6-1.1zM161 46c1.3-2 2.3-3.7 2.3-4 0-.4-7-4.9-7.5-4.7-.4.1-4.7 6.9-4.7 7.4 0 .3 7 5 7.5 5l2.4-3.7zm-12.2 2.4c1-.2 1-.5 0-1-.8-.4-.8-.4-1.2.2-.6.7-.5 1.3 0 1.1l1.2-.3zm65.7-9.1v-3.6H213l-1.5-.1V37c0 2.3-1.5 3.9-3.6 3.9-.6 0-.7 0-.7 1v1.1h3.7l3.6-.1zm-141.3 23v-8.5h8.7v8.6l-4.3.1c-3.3 0-4.3 0-4.4-.3zm8-4.2v-3.7h-7.3v7.4h7.4z" fill="#4c575e"/><g clip-path="url(#a)" transform="translate(51.5) scale(.35278)"><path d="M485.6 406.4c-3-1.8-4.8-5-4.8-9 0-2.6-.2-3-1.3-2.7-1 .3-5-3.3-16-14.2-8-8-14.9-14.6-15.4-14.6s-1.4.7-2.1 1.5c-.8.8-1.9 1.5-2.4 1.5-1.6 0-1.3.6 3.4 8.6 2.4 4.2 4.3 7.8 4 8-.2.6-9 6-9.5 6-.2 0-3-4.8-6.4-10.6-6.8-11.6-6.8-11.4-1.4-14.4 3.8-2.1 3.7-3.1-.2-1.6-3 1.2-3.1 1.2-4.5-.5-.7-1-1.5-1.6-1.7-1.4-.3.2-1 5.2-1.6 11.1-.6 5.9-1.3 11-1.5 11.4-.5.7-10.2 0-11-.8-.4-.3 0-5.9.7-12.5l1.3-12 5.4.2c6 .2 6.5-.2 4.3-4.3-1.4-2.8-1-3.5 3.2-5.3 1.8-.8 3.2-1.7 3.2-2s-1.7-2.2-3.9-4.4l-3.9-4 2.5-2.5c2.5-2.6 2.6-4.2.2-4.2-2.2 0-3-1.5-2.2-3.9 1-2.9.4-4-2.9-5.6a20.9 20.9 0 0 1-9.3-9.6 21 21 0 0 1 1.1-18c1.1-1.8 2.6-3.7 3.2-4.1 2-1.1.6-2.7-3.8-4a15 15 0 0 1-4.6-2.1c-.4-.7.7-5.8 2-8.6l1.4-4.5a217 217 0 0 1 7.4-21.6c.3-.3 2.7.2 5.3 1 4.6 1.6 4.8 1.6 5.8.3 1.5-2 1-3.5-1.8-4.4-4.3-1.5-4.3-1.5.2-15.5 2.3-7.2 4.4-13.3 4.8-13.7.3-.3 2.5 0 4.8.7 2.6.8 4.5 1 5 .6.3-.3 3-6.7 6-14.2L455 191c.6-1.2 1-2.7 1-3.3 0-1.7-14.2-60.3-15-61.7-.3-.7-.7-3-.9-5.1-.3-4.4-1-5.5-2.3-3.8-.6.9-61.6 30.3-69.2 33.4-.5.2-1.5-.6-2.1-2-1.4-2.6-2.9-3-2.5-.5.2 1.5-.2 1.7-4.3 2.1-2.5.3-14 .9-25.5 1.4-11.5.5-22.2 1.2-23.7 1.6-2.5.6-3.2 1.5-8.2 9.9l-6.7 11.4c-.6 1.2-2.3 4-3.7 6.1-2.2 3.5-2.7 3.9-4.5 3.5l-2-.4.7 3.8c1.8 8.7-2.4 16.7-11 21.1a39 39 0 0 0-5.7 3.4 191 191 0 0 0-9 22.9c0 .7-2.4 3.4-5.3 6-5 4.3-5.4 4.6-6.7 3.4a5 5 0 0 0-2.8-1.2c-1 0-3-2-6-6.2-2.3-3.4-7.9-10-12.2-14.6-7.2-7.7-9.8-9.6-10.9-7.8-.2.4-2.8 2.6-5.7 5-6 4.9-5.7 5-10.6-1.3-2.2-2.8-2.3-3-1-4.4 1.4-1.5 1.4-1.7-.5-7.3-1.1-3.2-1.8-6-1.5-6.3.9-.9 21.4-8.1 22.4-8 .6.2 1.9 2.3 2.8 4.7s2 4.5 2.2 4.7c.2.3 1.6-.3 3-1.1 1.4-1 2.7-1.6 3-1.6.2 0 3.7 4.5 7.6 10s7.6 10.4 8 10.6c.6.4 2.6-2.4 6.4-9.2l2.1-3.8-2-2.1a20.6 20.6 0 0 1-4-19.9c2-5.9 7.8-11 13.7-12.3 2.8-.5 2.8-1.7 0-3.3-1.7-1-2.8-.6-18.3 6.4-9 4-32.8 14.2-52.8 22.5-27 11.3-36.7 15-37.6 14.5-1-.6-1.5-.2-2.4 1.7a9.8 9.8 0 0 1-8.4 6.4c-12 1.4-16-14-5.3-19.5 3-1.5 5-1.4 9.6.5.8.4 1.3.1 1.6-.9.2-1 8.4-4.7 32.5-14.7 30.8-12.8 83.6-35.9 85.6-37.4.6-.4 2.9-4 5.2-7.8l4.4-7 4.8 2.7c3.8 2.3 5 2.7 7.3 2.3 4.6-.7 4.3-1.6-1.7-5-2.2-1.3-4-2.6-4-3 0-1.2 14.4-24.7 15.2-24.7 1.3 0 23.9 13.7 24.3 14.7.2.6-1.6 4.3-4 8.2-2.9 5-4 7.5-3.5 8 .6.5 9 .3 26.2-.5l25.4-1.3 31.8-15c17.6-8.3 32.6-15 33.4-15 1 0 2-1 3-3.1 3-6 10.3-7.9 16-4 2.6 1.6 4 2 8.2 2 4.3 0 5.2.2 6.5 1.7 1.4 1.6 5 2.5 33.4 8 29.7 5.6 34.2 6.3 64.2 9.4a3278 3278 0 0 1 35 3.7c2.2.4 2.9.2 2.7-.5-.2-.5-2.3-1.2-4.7-1.5-2.4-.3-4.6-.7-4.8-1-.3-.3 2.8-28 3.3-28.9.4-.6 27.5 2.9 29 3.8.7.4 1.6.8 2 .8.4 0 7.7-7.9 16.4-17.5 42.2-47 58-64 59.5-63.7 1.2.1 1.4-.3 1.4-3.3 0-4.4 1.9-7.4 5.7-9.3 3.8-1.9 5.7-1.9 9.2 0 5.4 2.7 7.4 10.1 4 15-2 2.8-4 4-8 4.5-2.2.3-3 .7-2.8 1.6.1.7-8.1 10.4-19.8 23.3-44.1 48.4-73 80.9-73 82 0 .7.7 1.1 2.2 1.1 1.2 0 2.4.3 2.6.8.3.4-.2 5.8-1 12-2 14.9-2 15.8.4 18 2.4 2.3 5.2 7.1 5.9 10.2.6 3 1.1 3.5 13.9 10.9 10.8 6.3 18.7 12.9 18.7 15.7 0 1.8-29.5 31-32.3 31.8l-2.4.7.5 6 1 10c.4 3.7.3 3.8-1.9 5-2.6 1.3-11 1.6-11.8.4-.3-.5-.8-5.9-1.3-12-.9-13.1-.8-13.5 4.8-13.5 2 0 3.8-.3 4-.8.4-.4-.4-1.8-1.5-3l-2.1-2.2 10-10c7-7 9.9-10.5 9.5-11.3-.2-.6-3.3-3-6.9-5.4-6.4-4.3-6.4-4.3-8.4-3-7.3 4.8-14.2 5.7-20.6 2.9-4-1.8-8.8-6.2-10.6-9.8-1.5-3-1.6-9.2 0-14.3.6-2.1 1-4.1.7-4.5-.2-.3-2.2-.8-4.5-1-2.3-.3-4.4-.6-4.8-.9-.3-.2 0-5.6.9-12 1.2-10 1.3-12 .4-12.8-.7-.6-10.3-2-28-3.7-24.4-2.5-30-3.4-58-8.8-22.7-4.4-31.3-5.8-31.9-5.2-.5.5-.6 1.4-.1 2.8.4 1 8.7 13 18.5 26.4 11 15.2 22 31.3 29 42.4 6 10 11.4 18.1 11.8 18.3.6.2 1.3-1.4 1.8-4.3.8-3.9 1.2-4.5 2.5-4.5.9 0 7.3 1.1 14.4 2.5 9.7 1.9 12.8 2.7 13 3.6 0 .7-.7 5.7-1.8 11.2-1.1 5.5-2 11.3-2 12.8 0 3.2-2.2 5.9-3.8 4.5-1.5-1.2-8.8-2-8.8-1s4.4 3.9 6 3.9c.7 0 1.7.5 2.2 1a4 4 0 0 0 2.7 1.2c1 0 2.5.8 3.5 1.7 1 1 12.2 7 25 13.6a562 562 0 0 1 24.2 12.8c.6.6 2.2.7 5.2.3 2.4-.3 8-1 12.6-1.4l31-3.3c19.7-2.2 23-2.4 23.8-1.5 1.2 1.5 2.2 1.3 3.1-.7.4-1 2.3-2.5 4.2-3.4 2.9-1.4 3.8-1.6 6.2-.9 4 1 5.9 2.5 7.3 5.6a10 10 0 0 1-5.3 14.1c-3.7 1.6-6.8 1.2-10.7-1.6-2.2-1.6-2.4-1.6-3.3-.4-.7 1-7.3 2-38.3 5.3-20.6 2.3-37.8 4-38.4 3.8-.6-.3-1-1.6-1-3 0-2.8-1.2-3.7-2-1.6-.2.6-.9 1.1-1.5 1.1-.5 0-10.9-5-22.9-11.3a183 183 0 0 0-22.5-10.6c-.4.4-1.2 3.4-1.8 6.8l-1.2 6.2 2 2.4c3.3 3.7 4.8 8 4.9 12.6 0 2.5.4 4.6 1 5 1.3 1.1 19 8.4 20.3 8.4.6 0 1.6.8 2.3 1.7.6 1 2.6 2.5 4.5 3.6 1.8 1 3.4 2.1 3.4 2.5a28 28 0 0 1-3.8 9c-.7 1-4.5 7.9-8.6 15.6-6.8 13-7.4 14-9.5 14.3l-2.2.2 6.3 8.6c4.7 6.4 6.2 8.9 5.6 9.6-1.6 2-8 6.3-8.8 5.8-1-.6-14.3-18.9-14.3-19.6 0-.4 1.2-1.4 2.5-2.3 3.8-2.6 5.9-4.7 5.4-5.5-.8-1.2-2.8-.8-4.6.9-1.7 1.6-1.8 1.6-3.3.2-.8-.7-1.7-1-2-.8s-.1 5.5.4 11.5c.4 6.1.6 11.3.3 11.5-.3.3-2.8.7-5.6 1-3.7.3-5.2.2-5.5-.5-.6-1.7-2.3-23.9-1.8-24.2.3-.1 2.7-.5 5.5-.8s5-.8 5-1.3c0-.4-1.1-2-2.5-3.3l-2.4-2.6 10-9.7c6-5.9 9.9-10 9.6-10.7-.2-.6-1.7-1.8-3.4-2.8l-7.6-4.7-4.6-2.9-5.4 1.3c-7.9 1.9-13.7.3-19.1-5-3-2.8-5-7.1-5.8-11.6a21.6 21.6 0 0 1 3.5-13.2c.8-1.1 1.3-2.3 1.1-2.7-.2-.4-2-.9-3.9-1.2-5.8-.9-7-1.6-7-4 0-1.3.5-3.4 1-4.8a129 129 0 0 0 3.5-15.2c1.3-7 2.6-13 2.9-13.2.2-.3 1.1-.7 2-.8s1.4-.7 1.3-1.1c0-.4-7.6-12.8-16.7-27.5a673.2 673.2 0 0 0-40.6-59.4c-1.4-1.5-1.4-1.5-1.4.1 0 1 2.2 10.7 4.9 21.8 2.7 11 4.8 20.7 4.7 21.5-.2 1-1.1 1.7-2.6 2.1-3 .8-4 2-1.8 2.6.8.3 1.5 1 1.5 1.5 0 .6-2.5 7.4-5.6 15s-5.6 14.4-5.6 15c0 .5.7 1.3 1.5 1.8.8.4 1.5 1.1 1.5 1.6s-1.9 6.7-4.2 13.9l-4.2 13-3.2-.4c-2.9-.5-3.4-.3-4.2 1-1.2 2.4 0 3.5 4.6 4.6 2 .5 3.8 1.2 4 1.5.2.3-.5 3.4-1.5 6.8l-3 10.5c-.7 2.2-1.5 4.4-1.8 4.8-.3.5-1 2.6-1.6 4.7-1 3.8-.9 4.1 1.2 8.4 2.2 4.7 2.8 10 1.6 15l-.6 2.7 11 7a53 53 0 0 1 11.6 8.8c.4.9 1.7 2.4 3 3.3 1.2.9 2.3 2.1 2.3 2.8s-1.4 2.6-3 4.4a13 13 0 0 0-3 4.3c0 .6-1.1 1.5-2.4 2-3.2 1.4-7.4 5.1-7.4 6.7 0 .6 6.4 7.6 14.3 15.4 10 10.1 14.2 14.8 14.2 16 0 1.5.4 1.7 3.1 1.7 4.4 0 7.8 2.3 9.4 6.4 1.6 4.4.6 8.2-3.1 11.5a7.5 7.5 0 0 1-6.2 2.3 12 12 0 0 1-6-1.5zm10.5-2.2c2.8-2.3 3.8-6 2.5-9.2a7.5 7.5 0 0 0-7.6-5 7.9 7.9 0 0 0-6.9 11.8c2.2 3.9 8.4 5.1 12 2.4zM482 389c1.8-1.7 3.3-3.5 3.3-4 0-1-50.3-51.4-51.4-51.4-.4 0-2.2 1.5-4 3.3l-3.4 3.4 25.8 25.9 26.1 25.9 3.6-3.1zm-34.2-4.6c0-1.6-9.2-17-10.2-17-1.2 0-5.5 2.4-5.5 3.1a99 99 0 0 0 5 9.2l4.8 8.6 3-1.5c1.6-.8 3-2 3-2.4zm122.5-18.8c.7-.6 1.3-1.5 1.3-2 0-1.4-10.9-15.7-12-15.7-.6 0-2.1.8-3.3 1.8l-2.2 1.8 2.7 4 6.2 8.3c3.6 4.5 3.7 4.6 7.3 1.8zm-125-1.4c.3-.4-1-2.3-3-4.3-2.7-2.7-3.6-3.2-4.3-2.5-.8.7-.3 1.6 2.3 4.3 3.5 3.6 4.1 3.9 5 2.5zm24.3-30.2a22.2 22.2 0 0 0-3.8-3.4c-1 0-15 13.6-15 14.6 0 .5 1.6 2.4 3.5 4.1l3.5 3.2 15.1-15.2zm105.2-7.5c4.8-9.2 8.8-17.2 8.8-17.8 0-.6-1.9-2-4.2-3.1l-4-2-1.6 2.4c-2 3.4-17.2 32.5-17.2 33 0 .7 6.9 4.2 8.2 4.3.8 0 4.4-6.1 10-16.8zm-126.6 13.8c.6-.9-6.1-8.6-7.4-8.6-1.9 0-1.2 3.2 1.4 6.2 2.7 3 5 4 6 2.4zm11.6-8.6c3-3 3.2-3.5 2.3-4.4-1.3-1.2-20-13.2-20.6-13.2-.2 0-.4 2.7-.4 6v6l7 4.5c3.7 2.4 7.2 4.4 7.6 4.5.5 0 2.3-1.6 4.1-3.4zm-27.4-1.2c1.5-.7 2.2-.7 3 0 .7.6 1.4.9 1.6.6.6-.5 3.4-71.8 2.9-72.6-.2-.4-2.6-.7-5.2-.7h-4.9v2.5l-1.4 36.1c-.8 18.6-1.3 34-1 34.4.4.8 2.8.6 5-.3zm-7.9-33.6v-6.2l-3 1.7c-1.8 1-4.2 3.2-5.5 5-1.8 2.7-2.3 4.1-2.5 8.3A15.3 15.3 0 0 0 420 320l3.4 2.5.4-9.6c.3-5.4.6-12.5.6-16zm21.1 6.3c-.4-2-1.3-4.4-2-5.2-1-1.4-1-1.2-1 2 0 1.8-.2 4.9-.5 6.7-.4 3-.2 3.4 1.3 4.1 1.7.7 1.9.6 2.4-1.5a14 14 0 0 0-.2-6.1zm124.8 2.7c1.2-2.4 1.8-4.2 1.4-4.6a190.7 190.7 0 0 0-24.2-10.1c-.9.5-4 8.6-3.6 9 .9.9 22.7 10 23.5 9.8.4 0 1.7-2 2.9-4.1zm-32-2.8c.8-.2 1.4-.8 1.2-1.3-.5-1.4 5-14 6.3-14.5.6-.3 2.2 0 3.6.3l2.6.8V286c0-5.5-3.8-11.1-9.3-14a18.3 18.3 0 0 0-16 1.1 16.9 16.9 0 0 0-3 25.2c3.4 3.7 10.3 6 14.5 5zm-114.9-16.5c1.7-.4 1.8-.7 1.8-6.2 0-3.2.3-9.9.5-14.9l.5-9-2.5-.8c-1.3-.5-2.7-.9-3-.9-1 0-10 28.3-9.5 29.6.4 1 7.9 3.5 9.4 3l2.8-.8zm26.2-20.4c.4-2 .2-2.2-2.4-3-1.5-.4-2.9-.7-3-.5-.2.1-.5 5.3-.7 11.4l-.3 11 3-8.3c1.6-4.6 3.1-9.4 3.4-10.6zm193 11.2c17.8-2 32.6-3.8 32.7-4s0-2.2-.2-4.7c-.4-4.1-.7-4.5-2.4-4.7a1694 1694 0 0 0-70.5 7.7c-.6.4-.3 6.8.4 9.1.2.7 1.5.8 4 .6l36-4zm-45.4-2.1c.6-1.2 1.3-3.3 1.5-4.8l.4-2.7-30.9-15.8c-17-8.7-31.3-16-32-16-1.2-.3-6 8.3-4.8 8.8l31.8 16.4c17.2 8.8 31.6 16 32 16 .6.1 1.5-.8 2-2zm96.2-2.8c7.4-7.3-3.3-18-11-11-2.2 1.9-2.5 2.7-2.5 5.7s.3 3.8 2.4 5.7c3.6 3.2 7.7 3 11.1-.4zm-167.3-4.3a23.7 23.7 0 0 1 16.4-1l3.1 1c.4-.5 1.9-8.3 1.9-9.7 0-1-2.1-2.5-8.8-5.8-4.9-2.5-9.7-5.1-10.7-6l-1.8-1.4 1.4-3.1c.7-1.8 1.2-3.3 1-3.4-.7-.6-8.5-1.8-9-1.4-.5.6-6.1 30.2-5.7 30.5a49 49 0 0 0 8.2 1.8c.7 0 2.5-.6 4-1.5zm-72.7-25.4c5-15 5.8-12.8-6.6-16.8a4118 4118 0 0 1-11.6-3.8c-.6-.2-2.1 3.4-4.4 10.7-2 6-3.5 11.4-3.6 11.7 0 .7 21 8 22.4 7.7.3-.1 2-4.4 3.8-9.5zm171.5 4c.5-.7-1.2-18.4-2-19.6-.4-.7-3.2-.6-6 .2-.6.2-.6 3 0 9.2.6 4.8 1 9.5 1 10.2 0 1.3.5 1.4 3.3 1a11 11 0 0 0 3.7-1zm-371.5-8c1.8-1.9 3.1-3.7 3-4-.4-1-26.4-28.7-27-28.7-.8 0-6.8 6.6-6.6 7.3a631 631 0 0 0 27 28.7c.2 0 1.8-1.5 3.6-3.3zm10.1-19.6c2.8-6.9 5-12.9 4.7-13.4-.4-1.2-8.1-4.3-8.9-3.6l-3.5 8-4.1 10.3-1.2 2.7 3.4 4.2c1.9 2.3 3.7 4.2 4 4.2.3 0 2.9-5.6 5.6-12.4zm285.8 11c1.3-4.5 4.2-22.1 3.7-22.6-.8-.7-22.7-4.8-23.2-4.4-.7.8-4.6 22.8-4.1 23.3.4.5 18.2 4.4 22.7 5 .2 0 .7-.5.9-1.2zm95.3-20.2 13.4-13.8-3.3-3.3a17 17 0 0 0-4-3.3c-.7 0-27 26.7-27.4 27.9-.4 1.1 5.4 6.7 6.7 6.4.7-.1 7.2-6.4 14.6-14zm-432 4.6 7.8-6.6c.8-.9.6-1.5-1.5-3.7l-2.5-2.8-7.2 6.1-7.7 6.7c-.7.6 2.9 6 4 6 .2 0 3.5-2.5 7.2-5.7zm-67.6 2.8c4.7-1.8 6-9 2.4-12.8-5.2-5.4-14-1.8-14 5.9 0 1.8.7 3.1 2.6 5 2.7 2.7 5.4 3.2 9 1.9zm44-21.4a556.1 556.1 0 0 0 33.6-14.6c.5-1.5-3.6-9.3-4.6-8.9-34.7 14.3-64.8 27.1-65.5 27.8-.7.7-.4 2 1 5.2 1 2.4 2 4.3 2 4.3l33.5-13.8zm89.1 6.5a16 16 0 0 0-2-25.2 16.9 16.9 0 0 0-21.2 2.3c-5.5 6.3-6 14.5-1.1 21.3 1 1.6 1 1.6 2.3-.8 1.5-3 2.9-2.9 10.5.3 4.5 1.9 6 3 6.2 4.1.4 2.3 1.4 2 5.3-2zm366.9-11.8c2-2 3-3.6 2.6-4-1.5-1.4-23.1-13.6-23.6-13.3-1 .7-4.8 8.9-4.1 9.2.4.1 5 2.8 10 5.8 5.2 3.1 10 5.6 10.6 5.6.6 0 2.7-1.5 4.5-3.3zm-28.2-2 3-1.6-2.6-2-2.6-2.2 2.6-5c1.5-2.8 3.7-6.2 5-7.5 2.6-2.6 2.5-3.4-1.1-7.3-3.2-3.5-7-5-12.1-5a15 15 0 0 0-12.6 5.6c-11.5 14 4.2 33 20.4 25zm-320.6-21.5c4.2-6.9 7.5-13 7.5-13.4 0-.5-1-1.5-2.3-2.1-2-1.1-2.4-1.1-3.2-.1-.5.6-8 4.3-17 8.2l-16 7.1 2.6 1.6c1.4.9 4.1 2 6 2.7 2 .7 5 2.5 6.8 4 4.4 3.8 6.8 5.4 7.5 5 .3-.3 4-6.1 8.1-13zm-34.7-2.6c17.9-8 32.5-14.8 32.5-15.2 0-1.4-3-7.7-3.8-8.2-.7-.5-64.6 27.5-66.2 28.9-.8.7 3 9 4.1 9 .6 0 15.6-6.5 33.4-14.5zm333.7-5.9c3.7-4.2 13-6.3 19.6-4.4 1.8.5 2.4.4 2.5-.2l1.4-11.4 1.3-10.6-2.3-.6c-1.8-.4-2.5 0-5.9 3.7-2 2.2-4.4 4.1-5 4.1-.8 0-4-2.5-7.3-5.6-4.8-4.6-6.3-5.6-8.3-5.6-2.1 0-2.4.2-2.8 2.4-.8 5.1-3.4 25.6-3.4 27.3 0 1.7.4 1.8 7.2 2.4.8 0 2.2-.6 3-1.5zm-314-18.4c.5-.5-2.3-2.5-3.4-2.5-.8 0-4 4.4-4 5.5 0 .4 6.6-2.3 7.4-3zm32.2-8.7a67.2 67.2 0 0 0 5.6-10.4c-.5-1-19-11.9-20-11.9-.8 0-12.5 18.7-12.5 20 0 .8 18.7 12.2 20 12.2.5 0 3.6-4.4 6.9-9.9zm318.3-23.6 23.9-26.7-3.2-3.2a13.4 13.4 0 0 0-4.2-3.3c-.7 0-17 18-47.7 52.3L599 129l3.7 3.2c2 1.8 4 3.1 4.5 3 .4-.3 11.5-12.4 24.6-27zm-20 1.5c8.2-9.1 10-11.7 8.9-12.9-.6-.5-12.1-2.2-22.5-3.3-1.3-.1-1.6.7-2.7 9.6-1.9 14.2-1.8 14.5.6 14.9 7.3 1 7 1.2 15.7-8.3zm-162.4 2.1c4.7-4.6 1.5-12.8-5-12.8-2 0-3.3.6-4.9 2.2-4.6 4.7-1.5 12.8 5 12.8 2 0 3.3-.6 4.9-2.2zM684 50.2 708 23.6l-3.2-3.2c-1.7-1.8-3.6-3.2-4-3.2-1 0-48.2 51.3-49 53.1-.4 1.2 5.8 7 7.1 6.7.5-.1 11.7-12.2 25-26.8zm32.6-32.4a8.2 8.2 0 0 0 2.3-12.5c-4.8-5.8-13.8-2.3-13.8 5.4 0 2.3.5 3.4 2.5 5.4 2.8 2.7 5.8 3.3 9 1.7zM419.7 331.4c-.2-.4 0-.7.7-.7.6 0 1.3.3 1.6.7.2.4 0 .8-.7.8-.6 0-1.3-.4-1.6-.8zm94-3.5c.5-.2 1.2-.2 1.4 0 .3.3-.2.5-1 .5s-1-.3-.4-.5zm-451-150.4c-.2-.6-.3-6.2-.2-12.6l.2-11.6h24.8V178l-12.2.3c-9.6.1-12.3 0-12.6-.8zm22.5-11.8v-10.2H65l-.3 9.4c0 5.1 0 9.8.2 10.3.3.8 2.6 1 10.4.8l10-.2zm842.2-106c-.2-.5-.3-6.2-.2-12.6l.3-11.6h24.7v24.8l-12.2.2c-9.5.2-12.3 0-12.6-.8zM950 48V37.8h-20.3l-.2 9.3c-.1 5.2 0 9.8.2 10.4.3.7 2.5 1 10.3.8l10-.3z" fill="#61758c"/></g></svg>