<svg width="1778.9" height="755.9" viewBox="0 0 1334.2 566.9" version="1.2" xmlns:xlink="http://www.w3.org/1999/xlink" xmlns="http://www.w3.org/2000/svg"><defs><symbol overflow="visible" id="c"><path style="stroke:none" d="M0 1.6h1.5v2.7h18.2V1.6h1.5V10h-1.5V7.2h-7.3v11h7.3v-2.7h1.5v8.3h-1.5v-2.7H1.5v2.7H0v-8.3h1.5v2.7h9.1v-11H1.5v2.7H0Zm0 0"/></symbol><symbol overflow="visible" id="d"><path style="stroke:none" d="M4.8 11.6H8V8.2C8 7 7.7 6 7 5.3c-.6-.6-1.4-1-2.6-1-1 0-1.9.4-2.5 1-.6.7-.9 1.5-.9 2.7 0 1 .3 2 1 2.6.7.7 1.6 1 2.6 1Zm4.6 2.6H1.5v2.3H0v-5h1.6A5.4 5.4 0 0 1-.4 7c0-1.7.4-3 1.3-4C2 2 3 1.5 4.5 1.5c1.6 0 2.8.5 3.7 1.6A7.7 7.7 0 0 1 9.5 8v3.7h1c1.2 0 2-.4 2.7-1 .6-.8 1-1.7 1-3a4 4 0 0 0-.8-2.5c-.5-.6-1.2-1-2-1.1V2.6h3a14.6 14.6 0 0 1 1.1 5.2c0 2-.5 3.7-1.5 4.8-1 1-2.6 1.6-4.6 1.6Zm0 0"/></symbol><symbol overflow="visible" id="e"><path style="stroke:none" d="M0 1.2h1.5v2.4h12V1h1.6v5.2h-2.7c1 .4 1.8 1 2.3 1.8.6.8.8 1.7.8 2.8 0 1.6-.4 2.8-1.4 3.6-1 .8-2.5 1.2-4.5 1.2H1.5V18H0v-7.3h1.5V13h7.3c1.8 0 3.1-.2 3.8-.7.7-.5 1-1.3 1-2.4 0-1.2-.4-2.1-1.3-2.8-.9-.6-2.2-1-3.9-1H1.5v2.4H0Zm0 0"/></symbol><symbol overflow="visible" id="f"><path style="stroke:none" d="M1.5 15.3v2.5H0v-5.1h2.4a5 5 0 0 1-2.1-2 6 6 0 0 1-.7-3c0-1.8.7-3.3 2.2-4.5a9 9 0 0 1 5.8-1.7 9 9 0 0 1 5.7 1.7 5.6 5.6 0 0 1 2.2 4.6c0 1.1-.2 2.1-.7 3-.4.7-1.1 1.4-2 1.9h7.8v-2.5h1.5v5Zm5.3-2.6h1.5a7 7 0 0 0 4.2-1c1-.8 1.4-1.8 1.4-3.1 0-1.4-.5-2.4-1.6-3-1-.7-2.6-1-4.7-1a9 9 0 0 0-4.8 1c-1 .6-1.6 1.6-1.6 3 0 1.3.5 2.3 1.4 3a7 7 0 0 0 4.2 1Zm0 0"/></symbol><symbol overflow="visible" id="g"><path style="stroke:none" d="M0 1.2h1.5v2.4h19.1V1h1.5v5.2h-9.7c1 .4 1.8 1 2.3 1.8.6.8.8 1.7.8 2.8 0 1.6-.4 2.8-1.4 3.6-1 .8-2.5 1.2-4.5 1.2H1.5V18H0v-7.3h1.5V13h7.3c1.8 0 3.1-.2 3.8-.7.7-.4 1-1.2 1-2.4S13 7.8 12.3 7c-1-.6-2.2-1-3.9-1H1.5v2.4H0Zm0 0"/></symbol><symbol overflow="visible" id="h"><path style="stroke:none" d="M1 8.8c0 1.4.6 2.4 1.7 3.1 1 .8 2.7 1.1 4.9 1.1a9 9 0 0 0 4.9-1A3.6 3.6 0 0 0 14 8.7c0-1.4-.5-2.5-1.6-3.2-1.1-.7-2.8-1-5-1-2 0-3.7.3-4.8 1A3.5 3.5 0 0 0 1 8.8Zm-1.4 0c0-2.2.7-4 2.2-5.3 1.4-1.4 3.4-2 5.8-2s4.3.6 5.7 2a6.9 6.9 0 0 1 2.2 5.3c0 2.2-.7 4-2.2 5.3a8.2 8.2 0 0 1-5.7 2c-2.4 0-4.4-.7-5.8-2A6.8 6.8 0 0 1-.4 8.8Zm0 0"/></symbol><symbol overflow="visible" id="i"><path style="stroke:none" d="M1.5 6v2.5H0V.8h1.5v2.6h19.1V.8h1.5V6Zm0 0"/></symbol><symbol overflow="visible" id="k"><path style="stroke:none" d="M1 2.7H6v1.6c-1.7 0-2.9.5-3.6 1.4C1.5 6.7 1 8 1 9.7c0 1.8.3 3 1 4 .7.8 1.6 1.3 3 1.3 1 0 1.7-.3 2.3-.8.5-.6 1-1.7 1.6-3.4L9.8 8c.7-2 1.4-3.5 2.3-4.3 1-.8 2.2-1.2 3.8-1.2a5 5 0 0 1 4.2 1.9c1 1.2 1.5 3 1.5 5.3l-.3 3.3c-.2 1.2-.5 2.4-1 3.8h-4.5V15c1.5-.1 2.6-.6 3.3-1.5.7-.8 1-2 1-3.8 0-1.5-.3-2.6-1-3.4-.5-.8-1.4-1.2-2.6-1.2-1 0-1.8.3-2.4.9-.6.6-1.1 1.8-1.7 3.7l-.8 2.7a9 9 0 0 1-2.2 4c-.9.9-2.1 1.3-3.6 1.3-2 0-3.6-.7-4.6-2-1-1.3-1.6-3.2-1.6-5.8A18.4 18.4 0 0 1 1 2.7Zm0 0"/></symbol><symbol overflow="visible" id="l"><path style="stroke:none" d="M7.3 15.8V4.5h-.1c-2 0-3.6.4-4.7 1.2C1.5 6.4 1 7.6 1 9c0 1.1.3 2 .9 2.8.6.7 1.5 1.2 2.7 1.5v2.1a6.4 6.4 0 0 1-3.8-2.3A7.3 7.3 0 0 1-.4 8.8c0-2.2.7-4 2.2-5.3 1.4-1.4 3.4-2 5.8-2s4.3.6 5.7 2c1.5 1.2 2.2 3 2.2 5.1 0 2.3-.7 4-2 5.3a9.3 9.3 0 0 1-6.2 1.9Zm1.5-3.1a7 7 0 0 0 4-1.1c.9-.7 1.3-1.7 1.3-3 0-1.2-.4-2.1-1.3-2.8a7.5 7.5 0 0 0-4-1.3Zm0 0"/></symbol><symbol overflow="visible" id="m"><path style="stroke:none" d="M13.6 15.3H-4.5v2.5h-1.6v-7.6h1.6v2.5h6.9a5 5 0 0 1-2.1-2 6 6 0 0 1-.7-3c0-1.8.7-3.3 2.2-4.5a9 9 0 0 1 5.8-1.7 9 9 0 0 1 5.7 1.7 5.6 5.6 0 0 1 2.2 4.6c0 1.1-.2 2.1-.7 3-.4.7-1.1 1.4-2 1.9H15v5.1h-1.5Zm-5.3-2.6a7 7 0 0 0 4.2-1c1-.8 1.4-1.8 1.4-3.1 0-1.4-.5-2.4-1.6-3-1-.7-2.6-1-4.7-1a9 9 0 0 0-4.8 1c-1 .6-1.6 1.6-1.6 3 0 1.3.5 2.3 1.4 3a7 7 0 0 0 4.2 1Zm0 0"/></symbol><symbol overflow="visible" id="n"><path style="stroke:none" d="M15.1 10.3v4.9H1.5v2.5H0v-5.1h2.7c-1-.5-1.8-1.1-2.3-1.9-.5-.8-.8-1.6-.8-2.7 0-1.6.5-2.9 1.4-3.7 1-.8 2.5-1.2 4.5-1.2h8V.8h1.6v5H6.3c-1.8 0-3 .2-3.8.7-.7.4-1 1.2-1 2.4s.4 2.1 1.3 2.7c1 .7 2.2 1 4 1h6.8v-2.3Zm0 0"/></symbol><symbol overflow="visible" id="o"><path style="stroke:none" d="M4.5 15C3 14.6 1.7 13.9 1 12.8c-.9-1-1.3-2.4-1.3-4 0-2.2.7-4 2.2-5.3 1.4-1.4 3.4-2 5.8-2s4.3.6 5.8 2a7 7 0 0 1 2.1 5.3 12.3 12.3 0 0 1-1.3 5.7h-3.9V13c1.3-.2 2.3-.7 2.9-1.3.6-.7 1-1.7 1-3s-.6-2.4-1.7-3.1a9 9 0 0 0-5-1c-2.1 0-3.8.3-4.9 1C1.6 6.3 1 7.4 1 8.8c0 1.1.3 2 .9 2.7.6.7 1.5 1.1 2.6 1.4Zm0 0"/></symbol><symbol overflow="visible" id="p"><path style="stroke:none" d="M14.9 18.6c1.8-.3 3-1 4-2 .8-1 1.2-2.6 1.2-4.4 0-2.5-.8-4.3-2.4-5.5-1.5-1.2-4-1.8-7.1-1.8-3.1 0-5.5.6-7 1.8C1.8 8 1 9.8 1 12.3a11.7 11.7 0 0 0 1.6 5.9h5.5v-4h1.5V21h-8a19 19 0 0 1-2.2-8.7c0-3.3 1-5.8 3-7.8 2.1-1.9 4.8-2.9 8-2.9 3.4 0 6.1 1 8.1 3 2 1.9 3 4.5 3 7.7 0 1.3-.1 2.5-.4 3.8-.3 1.3-.7 2.7-1.3 4.1h-5Zm0 0"/></symbol><symbol overflow="visible" id="q"><path style="stroke:none" d="M15.1 14h-3.7v-1.6c.7 0 1.3-.2 1.6-.6.4-.4.6-1 .6-1.6 0-1.3-.5-2.3-1.3-3-1-.7-2.2-1-3.9-1H1.5v3H0v-8h1.5v2.4h12.1V1h1.5v5.2h-2.7c1 .5 1.9 1.1 2.4 2 .5.8.7 1.7.7 2.9v1.3L15 14Zm0 0"/></symbol><symbol overflow="visible" id="r"><path style="stroke:none" d="M13.6 3.1V.8H15v2.3h4.7v2.7h-4.7v4.9h-1.5v-5H4c-1.3 0-2.1.2-2.5.4-.3.3-.5.7-.5 1.4s.2 1.2.6 1.5c.4.3 1 .5 2 .5v2c-1.4-.1-2.4-.5-3-1.2-.7-.6-1-1.6-1-3 0-1.5.3-2.6 1-3.2.7-.6 1.8-1 3.4-1Zm0 0"/></symbol><symbol overflow="visible" id="s"><path style="stroke:none" d="M2.6-1v-4.6h1.6c0 1.5.5 2.7 1.3 3.4.9.8 2.2 1.1 4 1.1A6 6 0 0 0 13-2c.9-.6 1.3-1.5 1.3-2.7 0-1-.3-1.8-.8-2.3a8 8 0 0 0-3.2-1.6l-2.7-.8a9 9 0 0 1-4.2-2.2 5.3 5.3 0 0 1-1.1-3.6c0-1.7.6-3 1.8-4 1.2-1 3-1.5 5.2-1.5l3 .3c1.2.2 2.4.5 3.7 1v4.3h-1.5c-.2-1.5-.7-2.5-1.5-3.1-.8-.7-2-1-3.7-1-1.4 0-2.5.3-3.3.9-.7.5-1 1.4-1 2.5 0 1 .2 1.8.8 2.3.5.6 1.7 1.1 3.6 1.7l2.5.7c1.8.6 3.2 1.3 4 2.2A5 5 0 0 1 17-5.6c0 2-.6 3.5-1.9 4.5C14-.1 12.1.4 9.6.4a18 18 0 0 1-7-1.4Zm0 0"/></symbol><symbol overflow="visible" id="t"><path style="stroke:none" d="M2.7-19c0-.5.2-.8.5-1.1a1.5 1.5 0 0 1 2.2 0c.3.3.4.6.4 1 0 .5-.1.8-.4 1.1-.3.4-.7.5-1.1.5-.4 0-.8-.1-1.1-.5-.3-.3-.5-.6-.5-1ZM6-1.5h2.4V0H1v-1.5h2.4V-13H1v-1.4h5Zm0 0"/></symbol><symbol overflow="visible" id="u"><path style="stroke:none" d="M14.5-11.7a6 6 0 0 1 1.9-2.4c.7-.6 1.6-.8 2.6-.8 1.5 0 2.6.4 3.4 1.4.7 1 1.1 2.4 1.1 4.3v7.7h2.3V0h-7v-1.5H21V-9c0-1.4-.2-2.5-.7-3.1-.4-.7-1.1-1-2.1-1a3 3 0 0 0-2.6 1.3c-.6.8-.9 2-.9 3.7v6.6H17V0H10v-1.5h2.2V-9c0-1.5-.2-2.5-.7-3.1-.4-.7-1.1-1-2.1-1a3 3 0 0 0-2.6 1.3c-.6.8-.9 2-.9 3.7v6.6h2.2V0h-7v-1.5h2.3V-13H1v-1.4h5v2.5c.4-1 1-1.7 1.7-2.2.7-.5 1.5-.7 2.5-.7s2 .2 2.8.8a4 4 0 0 1 1.5 2.4Zm0 0"/></symbol><symbol overflow="visible" id="v"><path style="stroke:none" d="M5.8-8v1.5c0 1.7.3 3 1 4 .6.9 1.6 1.3 2.9 1.3 1.3 0 2.2-.5 2.9-1.5.6-1 1-2.6 1-4.6 0-2-.4-3.5-1-4.5-.7-1-1.6-1.6-3-1.6-1.2 0-2.2.5-2.8 1.4-.7 1-1 2.3-1 4Zm-2.6-5H.8v-1.5h5v2.2a5 5 0 0 1 1.8-2c.8-.4 1.7-.6 2.9-.6 1.7 0 3.2.7 4.3 2a8.6 8.6 0 0 1 1.7 5.6c0 2.3-.6 4.2-1.7 5.6a5.3 5.3 0 0 1-4.3 2C9.3.4 8.4.3 7.6-.2a5 5 0 0 1-1.8-2v6.7H8v1.4H.8V4.4h2.4Zm0 0"/></symbol><symbol overflow="visible" id="w"><path style="stroke:none" d="M5.8-1.5H8V0H.8v-1.5h2.4v-18.3H.8v-1.5h5Zm0 0"/></symbol><symbol overflow="visible" id="y"><path style="stroke:none" d="M15.2-7H4.3v.1c0 2 .4 3.4 1.1 4.4.8 1 1.9 1.5 3.3 1.5 1.1 0 2-.2 2.7-.8.7-.6 1.2-1.5 1.5-2.6h2a6.2 6.2 0 0 1-2.2 3.6A7 7 0 0 1 8.5.4C6.3.4 4.6-.3 3.3-1.7a7.9 7.9 0 0 1-2-5.6 8 8 0 0 1 2-5.5c1.3-1.4 3-2.1 5-2.1 2.2 0 3.9.6 5 2A9 9 0 0 1 15.2-7Zm-3-1.5c0-1.6-.4-3-1-3.8a3.4 3.4 0 0 0-3-1.3c-1 0-2 .5-2.7 1.3-.6.9-1 2.2-1.2 3.8Zm0 0"/></symbol><symbol overflow="visible" id="z"><path style="stroke:none" d="M14.7-1.5h2.4V0h-5v-2.3a5 5 0 0 1-1.8 2c-.8.5-1.7.7-2.8.7C5.7.4 4.2-.3 3-1.7a8.6 8.6 0 0 1-1.7-5.6c0-2.3.6-4 1.7-5.5A5.4 5.4 0 0 1 7.5-15c1.1 0 2 .2 2.8.6a5 5 0 0 1 1.9 2v-7.5H9.8v-1.5h4.9Zm-2.5-5V-8c0-1.7-.4-3-1-4-.7-.9-1.7-1.4-3-1.4-1.2 0-2.2.6-2.9 1.6-.6 1-1 2.5-1 4.5s.4 3.5 1 4.6c.7 1 1.7 1.5 3 1.5 1.2 0 2.2-.4 2.9-1.3.6-1 1-2.3 1-4Zm0 0"/></symbol><symbol overflow="visible" id="A"><path style="stroke:none" d="M7-10.4h3.5c1.4 0 2.4-.4 3.1-1 .7-.8 1.1-1.9 1.1-3.3s-.4-2.4-1-3.2c-.8-.7-1.8-1-3.2-1H7ZM1.4 0v-1.5h2.6V-19H1.5v-1.4h9.7c2 0 3.7.5 4.8 1.5 1.2 1 1.8 2.5 1.8 4.2 0 1.8-.6 3.2-1.8 4.2a7 7 0 0 1-4.8 1.6H6.9v7.4h3.2V0Zm0 0"/></symbol><symbol overflow="visible" id="B"><path style="stroke:none" d="M8.4-1c1.4 0 2.4-.5 3-1.5.8-1.1 1.1-2.7 1.1-4.8 0-2-.3-3.6-1-4.7-.7-1-1.7-1.6-3-1.6C7-13.6 6-13 5.3-12c-.7 1-1 2.6-1 4.7s.3 3.7 1 4.8C6-1.5 7-1 8.4-1Zm0 1.4c-2.1 0-3.8-.7-5-2.1a8 8 0 0 1-2-5.6 8 8 0 0 1 2-5.5c1.2-1.4 2.9-2.1 5-2.1s3.8.7 5.1 2a8 8 0 0 1 2 5.6 8 8 0 0 1-2 5.6c-1.3 1.4-3 2-5 2Zm0 0"/></symbol><symbol overflow="visible" id="C"><path style="stroke:none" d="M14.4-4.4c-.4 1.6-1 2.8-2 3.6-1 .8-2.4 1.2-4 1.2-2.1 0-3.8-.7-5-2.1a8 8 0 0 1-2-5.6c0-2.3.6-4.2 2-5.5 1.2-1.4 2.9-2.1 5-2.1 1 0 1.8 0 2.8.3.9.2 1.8.5 2.7 1v3.7h-1.4c-.2-1.3-.7-2.2-1.3-2.8a4 4 0 0 0-2.7-.9C7-13.6 6-13 5.4-12c-.7 1-1 2.6-1 4.7s.3 3.7 1 4.8C6-1.5 7-1 8.4-1c1.1 0 2-.2 2.6-.8.7-.6 1.1-1.4 1.4-2.6Zm0 0"/></symbol><symbol overflow="visible" id="D"><path style="stroke:none" d="M6 2.7 7 .2 1.6-13H-.1v-1.4h6.7v1.4H4.3l4 10 4.2-10h-2.2v-1.4h5.4v1.4h-1.6L7.5 3.3c-.5 1.1-1 1.9-1.6 2.3-.5.4-1.3.6-2.3.6a8.4 8.4 0 0 1-2.7-.4V3h1.3c0 .6.2 1 .5 1.4.2.2.6.4 1.2.4.5 0 .9-.2 1.2-.5a5 5 0 0 0 1-1.6Zm0 0"/></symbol><symbol overflow="visible" id="N"><path style="stroke:none" d="M1.5 0v-1.5h2.6V-19H1.5v-1.4h16.8v4.5h-1.7v-2.8H6.9v6.8h7v-2.6h1.7v6.8h-1.7v-2.5h-7v8.7h3.3V0Zm0 0"/></symbol><symbol overflow="visible" id="O"><path style="stroke:none" d="M10-14.5h4.6v13H17V0h-5v-2.6c-.4 1-1 1.7-1.7 2.2-.7.5-1.6.8-2.6.8C6.1.4 5-.1 4.2-1 3.4-1.9 3-3.3 3-5.3v-7.8H.7v-1.4h4.8v8.4c0 1.8.3 3 .7 3.7.4.6 1.2 1 2.3 1a3 3 0 0 0 2.7-1.3c.6-.9.9-2.1.9-3.8V-13H9.9Zm0 0"/></symbol><symbol overflow="visible" id="P"><path style="stroke:none" d="M7-1.5h2.5c2.6 0 4.6-.7 6-2.2 1.5-1.5 2.2-3.7 2.2-6.5 0-2.9-.7-5-2.1-6.5C14.2-18.2 12-19 9.5-19H6.9ZM1.4 0v-1.5h2.6V-19H1.5v-1.4h8.2c3.5 0 6.2.9 8.2 2.7 2 1.8 3 4.3 3 7.5s-1 5.7-3 7.5C15.9-.9 13.2 0 9.7 0Zm0 0"/></symbol><symbol overflow="visible" id="Q"><path style="stroke:none" d="M1.2 0v-1.5h2.2V-13H1v-1.4h5v2.5c.4-1 1-1.7 1.7-2.2.8-.5 1.7-.7 2.6-.7 1.6 0 2.8.4 3.6 1.4.7.9 1.1 2.3 1.1 4.3v7.7h2.3V0h-7v-1.5h2.2v-7c0-1.7-.2-3-.7-3.6-.4-.7-1.2-1-2.3-1a3 3 0 0 0-2.7 1.3c-.6.8-.9 2-.9 3.7v6.6h2.2V0Zm0 0"/></symbol><symbol overflow="visible" id="R"><path style="stroke:none" d="M11.1-4.6v-3H8c-1.2 0-2.2.2-2.8.8-.6.5-.9 1.3-.9 2.4 0 1 .3 1.9 1 2.4.5.6 1.4 1 2.4 1s2-.4 2.6-1c.6-.7 1-1.5 1-2.6ZM13.7-9v7.6h2.2V0h-4.8v-1.6C10.6-.9 10-.4 9.2 0c-.7.3-1.6.5-2.5.5C5 .4 3.7 0 2.8-1c-1-.8-1.4-2-1.4-3.5S1.9-7 3-7.9C4.1-8.7 5.6-9 7.6-9h3.5v-1c0-1.1-.3-2-1-2.6a4 4 0 0 0-2.8-.9c-1 0-1.8.3-2.4.7a3 3 0 0 0-1 2H2.4v-3l2.6-.8 2.4-.2c2 0 3.5.5 4.6 1.5 1 1 1.6 2.4 1.6 4.3Zm0 0"/></symbol><symbol overflow="visible" id="S"><path style="stroke:none" d="M1.6-.8v-3.4H3c0 1 .4 1.9 1 2.4.7.6 1.6.8 2.9.8 1.1 0 2-.2 2.6-.6.6-.4.9-1 .9-1.9A2 2 0 0 0 9.7-5c-.4-.4-1.3-.8-2.7-1.3l-1.8-.6C3.9-7.3 3-7.8 2.4-8.4c-.5-.6-.8-1.3-.8-2.3C1.6-12 2-13 3-13.8c1-.8 2.3-1.1 4-1.1.8 0 1.6 0 2.4.3l2.7.8v3.2h-1.5c0-1-.4-1.7-1-2.2-.6-.5-1.4-.8-2.5-.8-1 0-1.9.2-2.4.6-.5.4-.8 1-.8 1.7 0 .6.2 1 .6 1.4.4.4 1.2.8 2.5 1.2l2 .6c1.3.4 2.3 1 3 1.6.5.6.8 1.5.8 2.5 0 1.3-.5 2.4-1.5 3.2C10.3 0 8.9.4 7 .4A12.9 12.9 0 0 1 1.6-.8Zm0 0"/></symbol><symbol overflow="visible" id="T"><path style="stroke:none" d="M13.4-10.1a4 4 0 0 1 1.7.8c.4.5.8 1 1.2 1.8l3 6h2.4V0H17l-3.1-6.5c-.7-1.3-1.2-2-1.7-2.4-.5-.4-1.2-.6-2.1-.6H7v8h2.8V0H1.5v-1.5h2.6V-19H1.5v-1.4H12c2 0 3.5.5 4.6 1.4a5 5 0 0 1 1.6 4c0 1.4-.4 2.5-1.2 3.4-.8.8-2 1.3-3.5 1.5ZM7-11h4c1.4 0 2.4-.3 3.1-1 .7-.6 1-1.6 1-3 0-1.3-.3-2.3-1-3-.7-.6-1.7-1-3-1H7Zm0 0"/></symbol><symbol overflow="visible" id="U"><path style="stroke:none" d="M12-17.8h-1.3c0-.7-.2-1.3-.6-1.6-.3-.4-.9-.5-1.6-.5-1 0-1.6.2-2 .7-.4.6-.6 1.5-.6 2.8v1.9H10v1.4H6v11.6h3.2V0H1v-1.5h2.4V-13H1v-1.4h2.4v-1.9c0-1.6.4-2.8 1.3-3.6.8-.9 2-1.3 3.7-1.3a10 10 0 0 1 3.6.7Zm0 0"/></symbol><symbol overflow="visible" id="V"><path style="stroke:none" d="M13.4-14.6v3.7h-1.5c0-.7-.2-1.3-.6-1.6-.3-.4-.8-.6-1.5-.6-1.3 0-2.2.5-2.9 1.3-.6.9-1 2.1-1 3.7v6.6h3V0H1.1v-1.5h2.2V-13H1v-1.4h5v2.5c.4-1 1-1.7 1.8-2.2.8-.5 1.8-.7 2.9-.7H12l1.4.3Zm0 0"/></symbol><symbol overflow="visible" id="X"><path style="stroke:none" d="M5.3 0v-1.5H8v-17.3H2v3.2H.3v-4.8h18.1v4.8h-1.7v-3.2h-6v17.3h2.6V0Zm0 0"/></symbol><symbol overflow="visible" id="Y"><path style="stroke:none" d="M2.8-19c0-.5.1-.8.5-1.1a1.5 1.5 0 0 1 2.1 0c.3.3.5.6.5 1 0 .5-.1.8-.4 1.1-.3.4-.7.5-1.1.5-.5 0-.8-.1-1.2-.5-.3-.3-.4-.6-.4-1Zm.6 6H1v-1.5h5v16C6 2.8 5.4 4 4.5 4.8A5 5 0 0 1 .9 6.2a7.4 7.4 0 0 1-3.6-.9v-3h1.3c0 .9.3 1.5.7 2 .4.4 1 .6 1.7.6.8 0 1.4-.3 1.8-.9.4-.5.6-1.4.6-2.6Zm0 0"/></symbol><symbol overflow="visible" id="Z"><path style="stroke:none" d="M3-13H.8v-1.5H3V-19h2.5v4.5h4.8v1.4H5.5v9.3c0 1.2.2 2 .4 2.3.2.4.7.5 1.3.5.7 0 1.2-.1 1.5-.5.3-.4.4-1 .4-2h2C11-2 10.5-1 10-.4c-.7.6-1.7.9-3 .9-1.4 0-2.5-.3-3-1-.7-.6-1-1.7-1-3.2Zm0 0"/></symbol><symbol overflow="visible" id="x"><path style="stroke:none" d="M14.6-17.6h-1.2c0-.8-.4-1.4-1-1.7-.5-.4-1.3-.6-2.4-.6-1.4 0-2.4.3-3 1-.7.6-1 1.6-1 3v1.4h9.7v13H18V0h-7.3v-1.5h2.4V-13H6v11.6h2.4V0H1v-1.5h2.4V-13H1v-1.4h2.4v-1.3C3.4-17.6 4-19 5-20c1-1 2.7-1.4 4.8-1.4a16.2 16.2 0 0 1 4.8.8Zm0 0"/></symbol><symbol overflow="visible" id="E"><path style="stroke:none" d="M1.5 0v-1.5h2.6V-19H1.5v-1.4h16.8v4.5h-1.7v-2.8H6.9v6.8h7v-2.6h1.7v6.8h-1.7v-2.5h-7v8.7h3.3V0Zm0 0"/></symbol><symbol overflow="visible" id="F"><path style="stroke:none" d="M10-14.5h4.6v13H17V0h-5v-2.6c-.4 1-1 1.7-1.7 2.2-.7.5-1.6.8-2.6.8C6.1.4 5-.1 4.2-1 3.4-1.9 3-3.3 3-5.3v-7.8H.7v-1.4h4.8v8.4c0 1.8.3 3 .7 3.7.4.6 1.2 1 2.3 1a3 3 0 0 0 2.7-1.3c.6-.9.9-2.1.9-3.8V-13H9.9Zm0 0"/></symbol><symbol overflow="visible" id="G"><path style="stroke:none" d="M5.8-1.5H8V0H.8v-1.5h2.4v-18.3H.8v-1.5h5Zm0 0"/></symbol><symbol overflow="visible" id="I"><path style="stroke:none" d="M7-10.4h3.5c1.4 0 2.4-.4 3.1-1 .7-.8 1.1-1.9 1.1-3.3s-.4-2.4-1-3.2c-.8-.7-1.8-1-3.2-1H7ZM1.4 0v-1.5h2.6V-19H1.5v-1.4h9.7c2 0 3.7.5 4.8 1.5 1.2 1 1.8 2.5 1.8 4.2 0 1.8-.6 3.2-1.8 4.2a7 7 0 0 1-4.8 1.6H6.9v7.4h3.2V0Zm0 0"/></symbol><symbol overflow="visible" id="J"><path style="stroke:none" d="M8.4-1c1.4 0 2.4-.5 3-1.5.8-1.1 1.1-2.7 1.1-4.8 0-2-.3-3.6-1-4.7-.7-1-1.7-1.6-3-1.6C7-13.6 6-13 5.3-12c-.7 1-1 2.6-1 4.7s.3 3.7 1 4.8C6-1.5 7-1 8.4-1Zm0 1.4c-2.1 0-3.8-.7-5-2.1a8 8 0 0 1-2-5.6 8 8 0 0 1 2-5.5c1.2-1.4 2.9-2.1 5-2.1s3.8.7 5.1 2a8 8 0 0 1 2 5.6 8 8 0 0 1-2 5.6c-1.3 1.4-3 2-5 2Zm0 0"/></symbol><symbol overflow="visible" id="K"><path style="stroke:none" d="M2.7-19c0-.5.2-.8.5-1.1a1.5 1.5 0 0 1 2.2 0c.3.3.4.6.4 1 0 .5-.1.8-.4 1.1-.3.4-.7.5-1.1.5-.4 0-.8-.1-1.1-.5-.3-.3-.5-.6-.5-1ZM6-1.5h2.4V0H1v-1.5h2.4V-13H1v-1.4h5Zm0 0"/></symbol><symbol overflow="visible" id="L"><path style="stroke:none" d="M14.4-4.4c-.4 1.6-1 2.8-2 3.6-1 .8-2.4 1.2-4 1.2-2.1 0-3.8-.7-5-2.1a8 8 0 0 1-2-5.6c0-2.3.6-4.2 2-5.5 1.2-1.4 2.9-2.1 5-2.1 1 0 1.8 0 2.8.3.9.2 1.8.5 2.7 1v3.7h-1.4c-.2-1.3-.7-2.2-1.3-2.8a4 4 0 0 0-2.7-.9C7-13.6 6-13 5.4-12c-.7 1-1 2.6-1 4.7s.3 3.7 1 4.8C6-1.5 7-1 8.4-1c1.1 0 2-.2 2.6-.8.7-.6 1.1-1.4 1.4-2.6Zm0 0"/></symbol><symbol overflow="visible" id="M"><path style="stroke:none" d="M6 2.7 7 .2 1.6-13H-.1v-1.4h6.7v1.4H4.3l4 10 4.2-10h-2.2v-1.4h5.4v1.4h-1.6L7.5 3.3c-.5 1.1-1 1.9-1.6 2.3-.5.4-1.3.6-2.3.6a8.4 8.4 0 0 1-2.7-.4V3h1.3c0 .6.2 1 .5 1.4.2.2.6.4 1.2.4.5 0 .9-.2 1.2-.5a5 5 0 0 0 1-1.6Zm0 0"/></symbol><symbol overflow="visible" id="ac"><path style="stroke:none" d="M18-16.8h-6v.5c2 0 2.4.5 2.4 3.2v8.6L4.7-16.8H.3v.5c1 0 1.4.2 2.5 1.3v11.3C2.8-1 2.4-.7.3-.5V0h6v-.5c-2 0-2.4-.6-2.4-3.2v-10L15 .3h.5v-13.4c0-2.6.4-3 2.4-3.2Zm0 0"/></symbol><symbol overflow="visible" id="ad"><path style="stroke:none" d="M10.4-4.2c-1.2 2-2.3 2.7-4 2.7C5-1.5 4-2.2 3.2-3.7c-.5-1-.7-1.8-.7-3.3h7.8c-.2-1.7-.5-2.4-1.1-3.3-.8-.9-2-1.4-3.2-1.4-1.3 0-2.5.5-3.5 1.3a6.5 6.5 0 0 0-1.9 5C.6-2 2.5.3 5.4.3 7.8.3 9.7-1.4 10.8-4ZM2.5-7.9c.3-2 1.2-2.9 2.7-2.9 1.6 0 2.2.7 2.5 3Zm0 0"/></symbol><symbol overflow="visible" id="ae"><path style="stroke:none" d="M7 0h5.2v-.4c-.8 0-1.3-.4-2.1-1.5L6.8-7l2.2-3c.4-.7 1.2-1.1 2-1.2v-.3H7v.3c.8.1 1 .2 1 .6 0 .3-.3.9-1 1.7l-.7 1-.2-.2-.7-1-.6-1.5c0-.4.3-.5 1-.6v-.3H.7v.3h.2c.8 0 1.2.4 2 1.6L5.2-6l-3 4.2C1.6-.7 1.3-.5.5-.4V0h3.7v-.4c-.7 0-1-.1-1-.4 0-.2.1-.5.5-1l2-3.2L8-1.5l.2.5c0 .5-.2.6-1 .6Zm0 0"/></symbol><symbol overflow="visible" id="af"><path style="stroke:none" d="M6.5-11.4H3.9v-3c0-.2 0-.3-.2-.3-1.4 2.1-2.2 3-3 3.4-.2.2-.4.3-.4.5l.1.2h1.4V-3C1.8-.8 2.5.3 4 .3c1.3 0 2.3-.7 3-2L6.9-2c-.6.7-1 1-1.6 1C4.3-1 4-1.9 4-3.5v-7.2h2.6Zm0 0"/></symbol><symbol overflow="visible" id="ag"><path style="stroke:none" d="M.5 0h7v-.5C5.6-.6 5.3-.9 5.3-2.8V-8H13v5c0 2.1-.2 2.4-2.2 2.5V0h7v-.5c-1.9-.1-2.2-.4-2.2-2.3V-14c0-1.8.3-2 2.2-2.2v-.5h-7v.5c2 .1 2.2.4 2.2 2.2v5H5.3v-5c0-1.8.3-2 2.2-2.2v-.5h-7v.5c2 .1 2.2.4 2.2 2.2v11C2.7-.8 2.5-.5.5-.4Zm0 0"/></symbol><symbol overflow="visible" id="ah"><path style="stroke:none" d="M11.2-1.7c-.4.4-.7.5-1 .5-.7 0-.8-.3-.8-1.5v-5c0-1.3-.2-2-.6-2.6-.5-1-1.6-1.4-3.1-1.4-2.4 0-4.3 1.2-4.3 2.9 0 .5.5 1 1.1 1 .6 0 1.2-.5 1.2-1v-.4l-.2-.6c0-.7.8-1.3 1.9-1.3 1.2 0 1.9.8 1.9 2.1v1.6C3.4-6 3-5.6 1.9-4.7a3 3 0 0 0-1 2.2C1-.9 2.1.3 3.6.3c1.1 0 2.2-.6 3.7-2 .2 1.4.6 2 1.7 2 .8 0 1.3-.3 2.2-1.3ZM7.3-3c0 .7-.1 1-.7 1.3a4 4 0 0 1-1.8.6c-1 0-1.6-.9-1.6-2 0-1.6 1.1-2.6 4.1-3.6Zm0 0"/></symbol><symbol overflow="visible" id="ai"><path style="stroke:none" d="M.5 0h5.3v-.4c-1.2 0-1.6-.4-1.6-1.3v-7.1C5.4-10 6-10.3 6.8-10.3c1.2 0 1.8.8 1.8 2.5v5.3C8.6-1 8.3-.5 7-.4V0h5.3v-.4c-1.2-.1-1.5-.4-1.5-1.7v-5.8c0-2.4-1.1-3.8-3-3.8-1.2 0-2 .4-3.7 2v-2h-.2L.4-10.5v.4l.7-.1c.7 0 1 .4 1 1.6v6.3C2-.8 1.6-.5.4-.3Zm0 0"/></symbol><symbol overflow="visible" id="aj"><path style="stroke:none" d="M12.5-1.5h-.6c-.9 0-1.1-.2-1.1-1.4v-14.4h-.1l-3.8 1v.5h.6c1 0 1.1.2 1.1 1.2v4c-1-.8-1.6-1-2.6-1C3-11.7.7-8.9.7-5.3.7-2 2.6.3 5.4.3c1.4 0 2.4-.6 3.2-1.8V.2h.2L12.4-1Zm-3.9-1s-.1.4-.4.7c-.4.5-1 .7-1.8.7-2.2 0-3.5-2-3.5-5.2C2.9-9 4-11 6-11c1.4 0 2.6 1.2 2.6 2.6Zm0 0"/></symbol><symbol overflow="visible" id="ak"><path style="stroke:none" d="M12.4-.4c-1.4-.2-1.5-.4-1.5-2.2v-5c0-2.7-1-4-3.2-4-1.5 0-2.5.5-3.7 2v-7.7h-.1l-3 .8-.7.3v.4h.4c1 0 1.3.1 1.3 1.2v12c0 1.8-.2 2-1.7 2.2V0h5.5v-.4C4.2-.5 4-.8 4-2.6v-6.1c1-1.2 1.8-1.6 2.8-1.6 1.3 0 2 .9 2 2.7v5C8.6-.8 8.3-.6 7-.4V0h5.4Zm0 0"/></symbol><symbol overflow="visible" id="al"><path style="stroke:none" d="M6.4-11.7C3-11.7.7-9.3.7-5.7c0 3.4 2.4 6 5.6 6C9.5.3 12-2.5 12-6c0-3.3-2.4-5.7-5.6-5.7ZM6-11c2.2 0 3.7 2.5 3.7 6 0 2.8-1.2 4.5-3 4.5-1 0-2-.6-2.6-1.6-.7-1.3-1-3-1-4.9 0-2.4 1-4 3-4Zm0 0"/></symbol><symbol overflow="visible" id="am"><path style="stroke:none" d="M.5 0h6v-.4C5-.4 4.7-.7 4.6-2v-15.2l-4.1 1v.5h.9c.8 0 1 .3 1 1.5v12c0 1.5-.3 1.8-1.9 2Zm0 0"/></symbol><symbol overflow="visible" id="an"><path style="stroke:none" d="M11.4-17.2h-.6c0 .6-.3.9-.8.9a3 3 0 0 1-1.1-.3c-1-.4-1.9-.6-2.7-.6-1 0-2.2.4-3 1.2a4 4 0 0 0-1.4 3.2c0 2 1.1 3.4 4 5 1.8 1 3.1 2 3.8 2.9.2.3.3.9.3 1.5C10-1.7 8.6-.6 6.8-.6 4.5-.6 2.9-2 1.7-5H1L1.8.3h.6c0-.5.3-.8.7-.8.3 0 .7 0 1.2.3 1 .4 2 .6 3 .6 3 0 5.2-2 5.2-4.7 0-2-1.4-3.7-4.8-5.5-2.6-1.5-3.7-2.6-3.7-4s1-2.3 2.6-2.3c1.2 0 2.2.4 3.1 1.4.8.8 1.2 1.4 1.6 3h.6Zm0 0"/></symbol><symbol overflow="visible" id="ao"><path style="stroke:none" d="M10.1-4C9-2.2 8-1.6 6.5-1.6c-2.3 0-4-2-4-5C2.6-9.1 4-11 6-11c1 0 1.3.3 1.5 1.3l.2.5c.2.8.7 1.2 1.2 1.2.7 0 1.2-.5 1.2-1 0-1.5-1.8-2.7-3.9-2.7-1.2 0-2.5.5-3.6 1.4a6.3 6.3 0 0 0-2 5C.6-2.2 2.6.1 5.5.1c1.1 0 2.1-.4 3-1.1.7-.6 1.2-1.3 2-2.8Zm0 0"/></symbol><symbol overflow="visible" id="aq"><path style="stroke:none" d="M7.5-16.8H.3v.5c1.9 0 2.2.4 2.2 2.2v11.3C2.5-.9 2.1-.6.3-.5V0H14l1.2-4.4h-.6C13.4-1.7 12.3-1.1 9-1H7.3c-2 0-2.2-.1-2.2-1v-12c0-2 .4-2.3 2.4-2.3Zm0 0"/></symbol><symbol overflow="visible" id="ar"><path style="stroke:none" d="M.2 0h6v-.4h-.6c-1 0-1.3-.4-1.4-1.3v-4.7l3.6 4.8.2.3.3.5c0 .3-.2.4-.5.4h-.5V0h5.5v-.4c-1 0-1.9-.5-3-1.8L6-7.2l.7-.7c3.2-2.8 3.9-3.2 5.5-3.2v-.3H7v.3c1 0 1.3.1 1.3.5 0 .2-.2.5-.6.9l-3.5 3v-10.6l-3.3.8-.7.3v.4H1c.9 0 1 .2 1 1.5v12.2C2-.7 2-.7.3-.4Zm0 0"/></symbol><symbol overflow="visible" id="as"><path style="stroke:none" d="M1-6.5V-5h6.3v-1.6Zm0 0"/></symbol><symbol overflow="visible" id="at"><path style="stroke:none" d="m15.8-11.5-.3-5.7H15c-.2.5-.6.9-1 .9l-1-.2c-1.3-.5-2.6-.7-3.8-.7-2 0-4.2.8-5.7 2.2A8.7 8.7 0 0 0 .7-8.3C.7-3 4.1.4 9.2.4 12 .4 14.6-.8 16-3l-.5-.4C13.8-1.5 12.1-.8 10-.8a6 6 0 0 1-4.2-1.4C4.5-3.5 3.7-5.8 3.7-8.6c0-4.6 2.3-7.6 6-7.6 1.5 0 2.8.6 3.8 1.6.8.8 1.2 1.5 1.7 3.1Zm0 0"/></symbol><symbol overflow="visible" id="au"><path style="stroke:none" d="M12.2-1.3H12c-1.2 0-1.4-.2-1.4-1.4v-8.7h-4v.4c1.6 0 1.9.3 1.9 1.6v6c0 .7-.2 1-.5 1.3-.7.6-1.5.9-2.3.9-1 0-1.8-.9-1.8-2v-8.2H.2v.3c1.2 0 1.6.4 1.6 1.6V-3C1.8-1 3 .3 4.8.3c1 0 2-.5 2.7-1.1l1-1.1v2l.2.1c1.3-.5 2.2-.8 3.5-1.1Zm0 0"/></symbol><symbol overflow="visible" id="av"><path style="stroke:none" d="M.1 0h6.1v-.4c-1.7 0-2-.4-2.1-1.9V-8c0-.8 1-2 1.7-2 .2 0 .4 0 .7.3.4.4.7.5 1 .5.6 0 1-.4 1-1.1 0-.9-.5-1.4-1.4-1.4-1 0-1.8.6-3 2.4v-2.3h-.2L.2-10.4v.4L1-10c.6 0 .8.4.8 1.5V-2C2-.8 1.7-.7.1-.4Zm0 0"/></symbol><clipPath id="a"><path d="M1217 0h117v567h-117Zm0 0"/></clipPath><clipPath id="b"><path d="M1217 0h117.1v567H1217Zm0 0"/></clipPath><clipPath id="aa"><path d="M518 326h632v241H518Zm0 0"/></clipPath><clipPath id="ab"><path d="M50 326h436v241H50Zm0 0"/></clipPath></defs><g clip-path="url(#a)"><path style="stroke:none;fill-rule:nonzero;fill:#a4c2f4;fill-opacity:1" d="M1333.8.3v566.3H1218V.3Zm0 0"/></g><g clip-path="url(#b)"><path style="fill:none;stroke-width:.641809;stroke-linecap:butt;stroke-linejoin:miter;stroke:#000;stroke-opacity:1;stroke-miterlimit:4" d="M.3-1333.8h566.3v115.8H.3Zm0 0" transform="rotate(90)"/></g><g style="fill:#333;fill-opacity:1"><use xlink:href="#c" x="1266.1" y="54.2"/><use xlink:href="#d" x="1266.1" y="79.5"/><use xlink:href="#e" x="1266.1" y="96.9"/><use xlink:href="#f" x="1266.1" y="115.7"/><use xlink:href="#g" x="1266.1" y="134.3"/><use xlink:href="#h" x="1266.1" y="153.1"/><use xlink:href="#i" x="1266.1" y="170.6"/><use xlink:href="#f" x="1266.1" y="179.9"/><use xlink:href="#j" x="1266.1" y="198.5"/><use xlink:href="#k" x="1266.1" y="207.7"/><use xlink:href="#l" x="1266.1" y="227.7"/><use xlink:href="#m" x="1266.1" y="244.9"/><use xlink:href="#n" x="1266.1" y="263.5"/><use xlink:href="#l" x="1266.1" y="282.3"/><use xlink:href="#e" x="1266.1" y="299.5"/><use xlink:href="#o" x="1266.1" y="318.3"/><use xlink:href="#l" x="1266.1" y="334.6"/><use xlink:href="#j" x="1266.1" y="351.8"/><use xlink:href="#p" x="1266.1" y="361"/><use xlink:href="#l" x="1266.1" y="384.3"/><use xlink:href="#e" x="1266.1" y="401.5"/><use xlink:href="#l" x="1266.1" y="420.2"/><use xlink:href="#q" x="1266.1" y="437.4"/><use xlink:href="#d" x="1266.1" y="451.3"/><use xlink:href="#r" x="1266.1" y="468.7"/><use xlink:href="#h" x="1266.1" y="480.4"/><use xlink:href="#q" x="1266.1" y="497.9"/></g><path style="stroke:none;fill-rule:nonzero;fill:#f9cb9c;fill-opacity:1" d="M878.2 54.8h207V176h-207ZM572.2 54.8h207.1V176h-207Zm0 0"/><g style="fill:#333;fill-opacity:1"><use xlink:href="#s" x="603" y="106.6"/><use xlink:href="#t" x="622.2" y="106.6"/><use xlink:href="#u" x="631.1" y="106.6"/><use xlink:href="#v" x="657.7" y="106.6"/><use xlink:href="#w" x="675.6" y="106.6"/><use xlink:href="#t" x="684.5" y="106.6"/></g><use xlink:href="#x" x="693.5" y="106.6" style="fill:#333;fill-opacity:1"/><g style="fill:#333;fill-opacity:1"><use xlink:href="#y" x="712.1" y="106.6"/><use xlink:href="#z" x="728.7" y="106.6"/></g><use xlink:href="#A" x="632.9" y="141.6" style="fill:#333;fill-opacity:1"/><g style="fill:#333;fill-opacity:1"><use xlink:href="#B" x="650.6" y="141.6"/><use xlink:href="#w" x="667.4" y="141.6"/><use xlink:href="#t" x="676.4" y="141.6"/><use xlink:href="#C" x="685.3" y="141.6"/><use xlink:href="#D" x="701" y="141.6"/></g><path style="stroke:none;fill-rule:nonzero;fill:#b6d7a8;fill-opacity:1" d="M572.2 385h207.1v121.2h-207Zm0 0"/><g style="fill:#333;fill-opacity:1"><use xlink:href="#E" x="647.2" y="436.7"/><use xlink:href="#F" x="666.6" y="436.7"/><use xlink:href="#G" x="684.6" y="436.7"/><use xlink:href="#G" x="693.6" y="436.7"/><use xlink:href="#H" x="702.5" y="436.7"/></g><use xlink:href="#I" x="632.9" y="473.3" style="fill:#333;fill-opacity:1"/><g style="fill:#333;fill-opacity:1"><use xlink:href="#J" x="650.6" y="473.3"/><use xlink:href="#G" x="667.4" y="473.3"/><use xlink:href="#K" x="676.4" y="473.3"/><use xlink:href="#L" x="685.3" y="473.3"/><use xlink:href="#M" x="701" y="473.3"/></g><path style="stroke:none;fill-rule:nonzero;fill:#b6d7a8;fill-opacity:1" d="M878.2 385h207v121.2h-207Zm0 0"/><g style="fill:#333;fill-opacity:1"><use xlink:href="#N" x="953.1" y="436.7"/><use xlink:href="#O" x="972.5" y="436.7"/><use xlink:href="#w" x="990.6" y="436.7"/><use xlink:href="#w" x="999.5" y="436.7"/></g><g style="fill:#333;fill-opacity:1"><use xlink:href="#P" x="911.5" y="473.3"/><use xlink:href="#D" x="934" y="473.3"/><use xlink:href="#Q" x="949.8" y="473.3"/><use xlink:href="#R" x="967.8" y="473.3"/><use xlink:href="#u" x="984.5" y="473.3"/><use xlink:href="#t" x="1011" y="473.3"/><use xlink:href="#C" x="1020" y="473.3"/><use xlink:href="#S" x="1035.6" y="473.3"/></g><path style="fill:none;stroke-width:9.182282;stroke-linecap:butt;stroke-linejoin:miter;stroke:gray;stroke-opacity:1;stroke-miterlimit:4" d="M779.4 422.1h72.8"/><path style="fill-rule:evenodd;fill:gray;fill-opacity:1;stroke-width:4.897217;stroke-linecap:butt;stroke-linejoin:miter;stroke:gray;stroke-opacity:1;stroke-miterlimit:4" d="m873.4 422.1-31.8 18.4v-36.7Zm0 0"/><path style="fill:none;stroke-width:9.182282;stroke-linecap:butt;stroke-linejoin:miter;stroke:gray;stroke-opacity:1;stroke-miterlimit:4" d="M877.6 469H805"/><path style="fill-rule:evenodd;fill:gray;fill-opacity:1;stroke-width:4.897217;stroke-linecap:butt;stroke-linejoin:miter;stroke:gray;stroke-opacity:1;stroke-miterlimit:4" d="m-783.7-469-31.7 18.4v-36.8Zm0 0" transform="rotate(180)"/><path style="fill:none;stroke-width:.527244;stroke-linecap:butt;stroke-linejoin:miter;stroke:gray;stroke-opacity:1;stroke-miterlimit:4" d="M519.2 2.8h630.1v221.5H519.2Zm0 0"/><g style="fill:#333;fill-opacity:1"><use xlink:href="#s" x="909" y="106.6"/><use xlink:href="#t" x="928.2" y="106.6"/><use xlink:href="#u" x="937.1" y="106.6"/><use xlink:href="#v" x="963.6" y="106.6"/><use xlink:href="#w" x="981.6" y="106.6"/><use xlink:href="#t" x="990.5" y="106.6"/></g><use xlink:href="#x" x="999.4" y="106.6" style="fill:#333;fill-opacity:1"/><g style="fill:#333;fill-opacity:1"><use xlink:href="#y" x="1018.1" y="106.6"/><use xlink:href="#z" x="1034.6" y="106.6"/></g><g style="fill:#333;fill-opacity:1"><use xlink:href="#P" x="911.5" y="141.6"/><use xlink:href="#D" x="934" y="141.6"/><use xlink:href="#Q" x="949.8" y="141.6"/><use xlink:href="#R" x="967.8" y="141.6"/><use xlink:href="#u" x="984.5" y="141.6"/><use xlink:href="#t" x="1011" y="141.6"/><use xlink:href="#C" x="1020" y="141.6"/><use xlink:href="#S" x="1035.6" y="141.6"/></g><path style="fill:none;stroke-width:9.181418;stroke-linecap:butt;stroke-linejoin:miter;stroke:gray;stroke-opacity:1;stroke-miterlimit:4" d="M779.4 92h72.8"/><path style="fill-rule:evenodd;fill:gray;fill-opacity:1;stroke-width:4.896756;stroke-linecap:butt;stroke-linejoin:miter;stroke:gray;stroke-opacity:1;stroke-miterlimit:4" d="m873.4 92-31.8 18.4V73.6Zm0 0"/><path style="fill:none;stroke-width:9.182282;stroke-linecap:butt;stroke-linejoin:miter;stroke:gray;stroke-opacity:1;stroke-miterlimit:4" d="M877.6 138.9H805"/><path style="fill-rule:evenodd;fill:gray;fill-opacity:1;stroke-width:4.897217;stroke-linecap:butt;stroke-linejoin:miter;stroke:gray;stroke-opacity:1;stroke-miterlimit:4" d="m-783.7-138.9-31.7 18.4v-36.7Zm0 0" transform="rotate(180)"/><path style="fill-rule:evenodd;fill:#ea9999;fill-opacity:1;stroke-width:4.988976;stroke-linecap:butt;stroke-linejoin:miter;stroke:#ea9999;stroke-opacity:1;stroke-miterlimit:4" d="m678.3 381.3-33.2-41.5h66.5Zm0 0"/><g style="fill:#000;fill-opacity:1"><use xlink:href="#T" x="332.6" y="280.6"/><use xlink:href="#y" x="353.7" y="280.6"/><use xlink:href="#U" x="370.2" y="280.6"/><use xlink:href="#y" x="380.6" y="280.6"/><use xlink:href="#V" x="397.2" y="280.6"/><use xlink:href="#y" x="410.5" y="280.6"/><use xlink:href="#Q" x="427.1" y="280.6"/><use xlink:href="#C" x="445.1" y="280.6"/><use xlink:href="#y" x="460.8" y="280.6"/><use xlink:href="#W" x="477.3" y="280.6"/><use xlink:href="#X" x="486.2" y="280.6"/><use xlink:href="#V" x="504.9" y="280.6"/><use xlink:href="#R" x="518.3" y="280.6"/><use xlink:href="#Y" x="534.9" y="280.6"/><use xlink:href="#y" x="543.6" y="280.6"/><use xlink:href="#C" x="560.2" y="280.6"/><use xlink:href="#Z" x="575.9" y="280.6"/><use xlink:href="#B" x="587.1" y="280.6"/><use xlink:href="#V" x="603.9" y="280.6"/><use xlink:href="#D" x="617.3" y="280.6"/></g><path style="fill:none;stroke-width:22.677165;stroke-linecap:butt;stroke-linejoin:miter;stroke:gray;stroke-opacity:1;stroke-miterlimit:4" d="M1122 117h95.4"/><path style="fill-rule:evenodd;fill:gray;fill-opacity:1;stroke-width:4.988976;stroke-linecap:butt;stroke-linejoin:miter;stroke:gray;stroke-opacity:1;stroke-miterlimit:4" d="m1090.2 117 31.5-25.3v50.6Zm0 0"/><path style="fill:none;stroke-width:22.677165;stroke-linecap:butt;stroke-linejoin:miter;stroke:gray;stroke-opacity:1;stroke-miterlimit:4" d="M1122 445.5h95.4"/><path style="fill-rule:evenodd;fill:gray;fill-opacity:1;stroke-width:4.988976;stroke-linecap:butt;stroke-linejoin:miter;stroke:gray;stroke-opacity:1;stroke-miterlimit:4" d="m1090.2 445.5 31.5-25.3v50.6Zm0 0"/><g clip-path="url(#aa)"><path style="fill:none;stroke-width:.527244;stroke-linecap:butt;stroke-linejoin:miter;stroke:gray;stroke-opacity:1;stroke-miterlimit:4" d="M519.2 327h630.1v239.3H519.2Zm0 0"/></g><path style="fill:none;stroke-width:.527244;stroke-linecap:butt;stroke-linejoin:miter;stroke:gray;stroke-opacity:1;stroke-miterlimit:4" d="M51 2.8h434.7v221.5H51Zm0 0"/><g clip-path="url(#ab)"><path style="fill:none;stroke-width:.527244;stroke-linecap:butt;stroke-linejoin:miter;stroke:gray;stroke-opacity:1;stroke-miterlimit:4" d="M51 327h434.7v239.3H51Zm0 0"/></g><path style="fill:none;stroke-width:34.015748;stroke-linecap:butt;stroke-linejoin:round;stroke:#ea9999;stroke-opacity:1;stroke-miterlimit:4" d="M982.2 167.1v102.8H678.9v95.9"/><path style="fill:none;stroke-width:31.530563;stroke-linecap:butt;stroke-linejoin:round;stroke:#ea9999;stroke-opacity:1;stroke-miterlimit:4" d="M354 214.2v101.5" transform="scale(.80823 1)"/><path style="fill-rule:evenodd;fill:#ea9999;fill-opacity:1;stroke-width:5.549379;stroke-linecap:butt;stroke-linejoin:miter;stroke:#ea9999;stroke-opacity:1;stroke-miterlimit:4" d="m353.8 346.9-35-43.7h70Zm0 0" transform="scale(.80823 1)"/><path style="fill-rule:nonzero;fill:#d9494d;fill-opacity:1;stroke-width:2.267717;stroke-linecap:butt;stroke-linejoin:round;stroke:#000;stroke-opacity:1;stroke-miterlimit:4" d="M284.9 404.9h18.5v18.5h-18.5ZM440.2 464h18.5v18.4h-18.5Zm0 0"/><path style="fill:none;stroke-width:5.669291;stroke-linecap:butt;stroke-linejoin:miter;stroke:#333;stroke-opacity:1;stroke-dasharray:5.669291,11.338583;stroke-miterlimit:4" d="m108.8 471 171-54M108.8 470.1l328.4 3"/><path style="stroke:none;fill-rule:nonzero;fill:#99a5ad;fill-opacity:1" d="M110.2 550.8c-2-3-4.6-6.3-5.5-7.5-1-1.2-1.8-2.7-1.8-3.3 0-.6 1.4-2.2 3.2-3.5 1.7-1.3 3.1-2.6 3.1-2.9 0-.3-.4-1.2-1-2-1.4-2.2-1.1-2.4 9-9 4.7-3.1 8.6-6 8.6-6.4 0-.4-2-2.5-4.5-4.7l-4.5-4-4.4.8c-3.7.7-4.9.6-7.8-.2-10-2.9-14.7-14-10-23 1-2 1.8-3.8 1.6-4-.2-.3-1.2-.7-2.4-1-1.1-.2-2.8-.8-3.8-1.3-1.6-.8-2-.6-13.2 6a200 200 0 0 1-12 7c-.2 0-4.7 4-10 8.7a331 331 0 0 1-11.7 10.3c-1.2.9-6.8 5.9-12.5 11a93.9 93.9 0 0 1-11.3 9.4c-.5 0-1 .8-1.3 1.8-1.2 5.7-4.8 8.7-10 8.2-2.7-.2-3.6-.7-5.3-2.6-3.6-3.9-3.6-8.3 0-12.3a6.7 6.7 0 0 1 5-2.5c1.7-.2 3-.7 3-1.1a91 91 0 0 1 13.7-12.8c4.6-3.7 17-14.9 19.7-17.7 2.6-2.7 11.3-10.3 12.2-10.6.4-.1 9-5.3 19.2-11.4L94 459.1l1.4-4.7c.7-2.5 1.7-4.8 2.2-5 .5-.2 2.6.2 4.7.8 2 .6 4 .9 4.4.6 1.4-.8.5-2-2.2-2.8-1.5-.4-3-1.1-3.1-1.6-.4-1 5.4-21.7 6.4-22.6.6-.6 2.2-.4 7.1 1 5.6 1.6 6.6 1.7 7.3.9a460.7 460.7 0 0 1 32.4-47.5c9.7-13 18.3-24 18.9-24.3.8-.5 1-1.1.8-2.4-.2-1.1.2-2.8 1.3-4.9 1-2 1.6-4.2 1.6-6 0-1.6.4-3.3.8-3.7 1.2-1.2 19.2-1 20.1.1.5.6.7 4 .6 10.7l-.2 9.7-4.7.4c-5.6.4-10.2 1.8-10.2 3 0 .5-8 11.5-17.7 24.5-9.8 13-18.2 24.5-18.9 25.5-.6 1-1.7 3-2.5 4.1-10.2 16.1-15.8 26-17 29.8l-1.8 6.3c-.6 2-1 2.3-3.2 2.1-.5 0-1.4.4-1.8.9-.7.8-.6 1 .4 1.4 4 1.4 5.3 2.2 5.3 3 0 .6-1.3 5.8-3 11.6-3 10.6-3 10.6-1.8 12.6 2.5 4.2 3 5.6 3.4 9.3.1 2 .4 3.7.6 3.7 2.1 0 16.7 2.9 17.6 3.5.7.4 2.4 1.2 3.8 1.6 1.4.4 3 1.2 3.3 1.7.5.7-.5 4.5-4.5 16.6l-5.7 16.7c-.3.7 1.2 1.8 5.7 4.3 3.3 1.9 6 3.7 6 4 0 .3-1 2.2-2.2 4.3-1.5 2.6-2.7 3.9-3.5 3.9-1.5 0-15.9-8.3-16.7-9.6-.6-.9-.3-1.9 1-4.3 1-1.7 1.7-3.3 1.7-3.4 0-.2-1.1-1-2.5-1.6l-2.5-1.3-5.4 3.5a21 21 0 0 0-5.5 4.2c0 .4 1.5 2.8 3.2 5.2a17 17 0 0 1 3 5.4c-.2 1.2-6.2 5.7-7.5 5.7-.6 0-2.7-2.4-4.7-5.2Zm0 0"/><path style="stroke:none;fill-rule:nonzero;fill:#6f87a5;fill-opacity:1" d="M112 552a66.1 66.1 0 0 1-8.5-12.3c0-.4 1.4-1.8 3.2-3 3.4-2.5 3.7-3.2 2.2-5.3-.6-.8-.9-1.7-.7-2 .2-.3 3.9-2.8 8.2-5.5a139 139 0 0 0 9.3-6.3l1.5-1.3-5-4.6-5-4.6-5.9.4c-5.4.4-6 .3-9.3-1.3-8.7-4.2-11.2-14.4-5.7-22.6 1.4-2.1 1.4-2.3.4-3-.6-.5-1.5-.8-2-.8s-2.2-.6-3.7-1.4l-2.7-1.3-8.7 5.4a421 421 0 0 1-13 7.7 92.6 92.6 0 0 0-13.4 10.6c-5 4.6-10.2 9.2-11.6 10.2-2.7 2-12.5 10.9-18 16.3-2.2 2.2-4 3.3-5 3.3-1.3 0-1.5.3-1.5 2.3 0 4.1-4 7.9-8.3 7.9-4.7 0-8.8-5-8-9.4 1-4.6 4.1-7.2 9-7.2 2 0 2.3-.2 2-1-.5-1.1 2.8-4.5 11-11.2 2.6-2.1 10.8-9.4 18.2-16.1 7.4-6.8 14.3-12.8 15.4-13.4A2100.4 2100.4 0 0 0 94 459.3c.6-.7 1.6-3 2.2-5 .6-2.1 1.3-4 1.5-4.1.3-.2 2.3.1 4.4.7 3.1.9 4 1 4.8.3 1.9-1.6 1.1-3-1.9-3.9-3.4-.9-3.4-1.2-1.5-8.1 3.6-13.2 4.5-15.5 5.6-15.2 11.2 3.2 12 3.4 13.3 2 .7-.6 3.6-5 6.4-9.8l7-11.3c.9-1.5 9.6-13.3 19.3-26.4a234.5 234.5 0 0 1 18.9-23.8c1-.2 1.2-.7 1.2-3.5 0-2.2.4-4 1.3-5.2.8-1.3 1.3-3 1.3-5.2 0-2.4.2-3.4 1-3.6 1.3-.5 17-.5 18.3 0 .9.3 1 1.8 1 10.1v9.8h-4.1c-2.3 0-5.2.4-6.5 1-1.2.5-3 1-3.8 1-1.2 0-1.5.2-1.2 1.1.3.9-4.4 7.6-17.9 25.7a578.6 578.6 0 0 0-24.3 34.4l-9.2 15.1c-2 3.4-3.8 7.4-4.9 11-1.5 5.5-1.7 5.7-3.6 6-2.2.1-3.6 1.5-3.1 2.8.2.5 1.6 1.2 3.2 1.6 2 .5 3 1 3 1.7 0 .5-1.3 5.5-2.9 11-1.6 5.4-2.9 10.4-2.9 11 0 .6.7 2.1 1.6 3.3 1.7 2.6 3.2 8 2.7 10-.5 1.9.9 2.5 9.2 3.8a57 57 0 0 1 9.7 2.2l4.3 1.8c1.6.6 2.4 1.4 2.4 2.1 0 .6-2.4 8.3-5.3 17-3 8.8-5.2 16.1-5 16.4 0 .2 2.4 1.6 5 3 7.2 4 6.9 3.4 4.5 7.7-1.1 2-2.4 3.8-3 3.8-1.3 0-16-8.4-16.3-9.4-.2-.4.4-2.1 1.3-3.7 2-3.8 2-4.4-.1-5.3l-2.8-1.4c-.8-.6-2 0-6.8 3-3.2 2-6 4-6 4.5a17 17 0 0 0 3 5.5c2 2.6 3.5 5 3.5 5.4 0 .7-5.8 5.2-6.8 5.2-.4 0-1.8-1.5-3.2-3.4Zm6.8-2.2c0-1.5-7.9-12.2-9-12.2-.5 0-1.6.6-2.4 1.3L106 540l4.6 6.4 4.6 6.3 1.8-1c1-.7 1.9-1.6 1.9-2ZM13.4 536.2c2.2-2.2 2.3-4.8.4-7.2-1.8-2.3-4-3-6.6-2.2-2.7.9-4 2.8-4 5.6 0 2.9 1 4.5 3.3 5.5 2.6 1.1 4.8.6 7-1.7Zm113.8-7.6c6.4-4.2 12-8.1 12.7-8.6 1-1 1-1.2-.8-3.8-1.1-1.5-2.2-2.8-2.6-2.8-.8 0-25.4 16.4-25.4 17 0 .7 3.5 6 4 6 .2 0 5.7-3.6 12-7.8ZM28.4 520c4.3-4 9.2-8.3 10.8-9.6A459 459 0 0 0 52 499.2c10.5-9.6 10.3-9.2 6.6-12.7l-2-2-2 2a1202 1202 0 0 1-27.9 25 80.6 80.6 0 0 0-12 11.1c0 1 4.6 5.4 5.2 5 .4-.2 4.2-3.6 8.6-7.6Zm105.6-8.8c.4-.5-1.9-3.2-6.7-8L120 496l-2.7 2.7-2.7 2.8 13.9 13.2 2.5-1.4c1.3-.8 2.7-1.7 3-2.1Zm-44.3-37.3a377 377 0 0 0 23.8-15c.4-.9-2.7-5.8-3.6-5.8-.6 0-46.9 27.6-48 28.7-.8.7 2.2 6.2 3.4 6.2.4 0 11.4-6.3 24.4-14.1Zm0 0"/><path style="stroke:none;fill-rule:nonzero;fill:#d9494d;fill-opacity:1" d="M109 547.8c-3-4.2-5.3-8-5.1-8.4.1-.5 1-1.4 2-2 1-.5 2.3-1.6 3-2.3 1.2-1.4 1.2-1.4-.8-5.2-.1-.2 4.1-3.2 9.4-6.6a83 83 0 0 0 9.5-6.8c0-.6-3.8-4.5-7.2-7.4l-2.5-2-5.8.3c-5 .4-6.2.3-8.7-.8a15 15 0 0 1-9.1-14.1c0-3.5.3-4.7 2-7.8 2.2-3.9 2-4.4-1.4-5.2l-4-1.4-2-1-11.9 7.1c-15.1 9-14 8.3-24.9 18-5 4.6-9.6 8.6-10.1 9-.6.3-5.8 4.8-11.4 10a57.1 57.1 0 0 1-11.5 9.3c-.8-.2-1.1.4-1.4 2.4-.5 3.5-2.2 5.9-5 7-4.3 1.8-8.7-.1-10.7-4.7-1.2-2.8-.2-6.3 2.4-8.8 1.6-1.5 2.5-1.8 5-1.8 3 0 3.2-.2 3.2-1.6 0-1.5 3.7-5.3 10.6-10.7 1.7-1.4 9.6-8.4 17.5-15.6 8-7.2 15.3-13.6 16.4-14.3l19.7-11.7c18.8-11.3 18.7-11.2 20.3-17.2.5-1.6 1-3.1 1.3-3.3.3-.2 2.4.2 4.7.8 3.7 1 4.3 1 4.8.2 1.3-2 .7-3-2.2-4-1.6-.4-2.9-1.1-2.9-1.7a891.4 891.4 0 0 0 3.8-14.7c1.7-6 2.4-7.2 3.8-6.6 3 1.2 11.1 3.3 11.8 3 .4-.1 4.2-5.8 8.4-12.6 8.6-14.1 42-59.6 44.1-60 1 0 1.2-.7 1.2-3.1 0-1.8.5-4 1.3-5.4.7-1.3 1.3-3.5 1.3-5 0-1.6.3-3.1.7-3.6 1-.8 17.5-1 18.8-.2.6.4.8 2.8.7 10l-.2 9.5-4.8.4c-7.1.6-10.8 1.8-10.6 3.4 0 .8-6.3 9.8-17.1 24.2a795 795 0 0 0-19.7 27l-10.2 16.5a64.8 64.8 0 0 0-10.8 23c-.2.7-1 1.1-2 1.1-2 0-3.6 1.4-3.1 2.8.2.5 1.7 1.2 3.3 1.6 3.6 1 3.6 0-.3 13.1a89.1 89.1 0 0 0-2.6 10.3c0 .8.8 2.6 1.6 3.9 1.7 2.4 3 7.6 2.5 9.6a2 2 0 0 0 .6 1.8c.9.8 12.7 3.3 15.2 3.3.8 0 2.7.7 4.4 1.5a31 31 0 0 0 4.3 1.9c.7.2 1.3.8 1.3 1.4a498 498 0 0 1-10.3 31.2c-.3.8-.5 1.7-.2 2 .2.4 2.8 2 5.8 3.8 3 1.7 5.3 3.4 5.3 4 0 1.3-3.6 7-4.4 7-1.2 0-16.5-9-16.5-9.8 0-.4.7-1.9 1.6-3.3 2.2-3.5 2-4.4-1.3-6l-2.8-1.3-4.4 2.6a50.4 50.4 0 0 0-6.1 4.2c-2 1.8-1.8 2 2.6 8.1 1.5 2.1 2.7 4 2.7 4.2 0 .5-6.4 5-7 5-.3 0-2.9-3.3-6-7.5Zm9 3.5 1.7-1.5-3-4.5-4.9-6.5c-1.7-2.1-1.8-2.1-3.5-1-.9.6-1.8 1.5-2 2-.4 1 8 13 9 13 .5 0 1.7-.7 2.6-1.5ZM13.2 537a6.1 6.1 0 0 0 0-9c-5.1-5.1-13.5 1.3-10 7.6 2 3.6 7.1 4.3 10 1.4Zm115.5-9.2a105 105 0 0 0 12.2-8.7c0-.7-3.7-6.3-4.2-6.3a517 517 0 0 0-26.3 17.5c0 .2.9 1.7 2 3.3 1.3 1.9 2.3 2.7 3 2.5.6-.1 6.6-3.9 13.3-8.3Zm-102.5-5.5c3.5-3.2 8.9-8 12-10.5a324 324 0 0 0 23.3-21.4c0-1.1-4-5.6-5-5.6a17 17 0 0 0-4.8 3.7 990.8 990.8 0 0 1-36 32.3l-2 2 2.4 2.6c1.3 1.5 2.6 2.6 3 2.6.4 0 3.6-2.6 7.1-5.7Zm105.8-9.3c1.4-.9 2.6-2 2.6-2.3 0-1.2-13.6-14.4-14.7-14.4-.6 0-2.2 1.2-3.5 2.6l-2.4 2.7 6.9 6.6c3.8 3.6 7.3 6.5 7.8 6.5.4 0 2-.7 3.3-1.7Zm-19.1-8.2c.1-.1-.2-.8-.8-1.4-.6-.7-1-1.6-1-2 0-1.6 7.7-9 9.3-9 1.9 0 1.9-1.3-.1-5.5-4.5-9.6-19-9.5-23.3.1-3.2 7 .5 15.6 7.8 17.9 2.4.7 7.2.7 8-.1Zm-23.2-30.5a883 883 0 0 0 23.8-14.6c.7-.6.6-1.3-.9-3.7l-2.2-3.3a875 875 0 0 0-49.6 29.5c0 .3 1 1.9 2 3.5 1.3 2.2 2.2 3 2.9 2.7l24-14.1ZM103 477a17 17 0 0 1 12.5.3c1 .6 2 .7 2.2.4a130 130 0 0 0 4.9-18.5c-.2-.2-1.5-.6-2.8-.8-2-.4-2.3-.3-2.5 1-.2 1.2-2.7 3-12.4 8.8-6.7 4-12.2 7.6-12 8 0 .4 3.9 1.9 5.6 2.1.3 0 2.3-.5 4.5-1.3Zm-2.6-22.4c1.5-1.1 1.4-1.8-.3-1.5-.8 0-1.5.7-1.6 1.3-.3 1.3.4 1.4 1.9.2Zm24.9-13c1.2-4.6 2.3-8.7 2.3-9.2 0-1-1.7-1.6-13.2-4.8-4.3-1.1-4.7-1.1-5.2-.2a80 80 0 0 0-4.1 17.3c.6.6 15.2 5 16.8 5 .8 0 1.6-1.8 3.4-8.1Zm0 0"/><path style="stroke:none;fill-rule:nonzero;fill:#64768c;fill-opacity:1" d="M109 547.8c-3-4.2-5.3-8-5.1-8.4.1-.5 1-1.4 2-2 1-.5 2.3-1.6 3-2.3 1.2-1.4 1.2-1.4-.8-5.2-.1-.2 4.1-3.2 9.4-6.6a83 83 0 0 0 9.5-6.8c0-.6-3.8-4.5-7.2-7.4l-2.5-2-5.8.3c-5 .4-6.2.3-8.7-.8a15 15 0 0 1-9.1-14.1c0-3.5.3-4.7 2-7.8 2.2-3.9 2-4.4-1.4-5.2l-4-1.4-2-1-11.9 7.1c-15.1 9-14 8.3-24.9 18-5 4.6-9.6 8.6-10.1 9-.6.3-5.8 4.8-11.4 10a57.1 57.1 0 0 1-11.5 9.3c-.8-.2-1.1.4-1.4 2.4-.5 3.5-2.2 5.9-5 7-4.3 1.8-8.7-.1-10.7-4.7-1.2-2.8-.2-6.3 2.4-8.8 1.6-1.5 2.5-1.8 5-1.8 3 0 3.2-.2 3.2-1.6 0-1.5 3.7-5.3 10.6-10.7 1.7-1.4 9.6-8.4 17.5-15.6 8-7.2 15.3-13.6 16.4-14.3l19.7-11.7c18.8-11.3 18.7-11.2 20.3-17.2.5-1.6 1-3.1 1.3-3.3.3-.2 2.4.2 4.7.8 3.7 1 4.3 1 4.8.2 1.3-2 .7-3-2.2-4-1.6-.4-2.9-1.1-2.9-1.7a891.4 891.4 0 0 0 3.8-14.7c1.7-6 2.4-7.2 3.8-6.6 3 1.2 11.1 3.3 11.8 3 .4-.1 4.2-5.8 8.4-12.6 8.6-14.1 42-59.6 44.1-60 1 0 1.2-.7 1.2-3.1 0-1.8.5-4 1.3-5.4.7-1.3 1.3-3.5 1.3-5 0-1.6.3-3.1.7-3.6 1-.8 17.5-1 18.8-.2.6.4.8 2.8.7 10l-.2 9.5-4.8.4c-7.1.6-10.8 1.8-10.6 3.4 0 .8-6.3 9.8-17.1 24.2a795 795 0 0 0-19.7 27l-10.2 16.5a64.8 64.8 0 0 0-10.8 23c-.2.7-1 1.1-2 1.1-2 0-3.6 1.4-3.1 2.8.2.5 1.7 1.2 3.3 1.6 3.6 1 3.6 0-.3 13.1a89.1 89.1 0 0 0-2.6 10.3c0 .8.8 2.6 1.6 3.9 1.7 2.4 3 7.6 2.5 9.6a2 2 0 0 0 .6 1.8c.9.8 12.7 3.3 15.2 3.3.8 0 2.7.7 4.4 1.5a31 31 0 0 0 4.3 1.9c.7.2 1.3.8 1.3 1.4a498 498 0 0 1-10.3 31.2c-.3.8-.5 1.7-.2 2 .2.4 2.8 2 5.8 3.8 3 1.7 5.3 3.4 5.3 4 0 1.3-3.6 7-4.4 7-1.2 0-16.5-9-16.5-9.8 0-.4.7-1.9 1.6-3.3 2.2-3.5 2-4.4-1.3-6l-2.8-1.3-4.4 2.6a50.4 50.4 0 0 0-6.1 4.2c-2 1.8-1.8 2 2.6 8.1 1.5 2.1 2.7 4 2.7 4.2 0 .5-6.4 5-7 5-.3 0-2.9-3.3-6-7.5Zm9 3.5 1.7-1.5-3-4.5-4.9-6.5c-1.7-2.1-1.8-2.1-3.5-1-.9.6-1.8 1.5-2 2-.4 1 8 13 9 13 .5 0 1.7-.7 2.6-1.5ZM13.2 537a6.1 6.1 0 0 0 0-9c-5.1-5.1-13.5 1.3-10 7.6 2 3.6 7.1 4.3 10 1.4Zm115.5-9.2a105 105 0 0 0 12.2-8.7c0-.7-3.7-6.3-4.2-6.3a517 517 0 0 0-26.3 17.5c0 .2.9 1.7 2 3.3 1.3 1.9 2.3 2.7 3 2.5.6-.1 6.6-3.9 13.3-8.3Zm-102.5-5.5c3.5-3.2 8.9-8 12-10.5a324 324 0 0 0 23.3-21.4c0-1.1-4-5.6-5-5.6a17 17 0 0 0-4.8 3.7 990.8 990.8 0 0 1-36 32.3l-2 2 2.4 2.6c1.3 1.5 2.6 2.6 3 2.6.4 0 3.6-2.6 7.1-5.7Zm105.8-9.3c1.4-.9 2.6-2 2.6-2.3 0-1.2-13.6-14.4-14.7-14.4-.6 0-2.2 1.2-3.5 2.6l-2.4 2.7 6.9 6.6c3.8 3.6 7.3 6.5 7.8 6.5.4 0 2-.7 3.3-1.7Zm-19.1-8.2c.1-.1-.2-.8-.8-1.4-.6-.7-1-1.6-1-2 0-1.6 7.7-9 9.3-9 1.9 0 1.9-1.3-.1-5.5-4.5-9.6-19-9.5-23.3.1-3.2 7 .5 15.6 7.8 17.9 2.4.7 7.2.7 8-.1Zm-23.2-30.5a883 883 0 0 0 23.8-14.6c.7-.6.6-1.3-.9-3.7l-2.2-3.3a875 875 0 0 0-49.6 29.5c0 .3 1 1.9 2 3.5 1.3 2.2 2.2 3 2.9 2.7l24-14.1ZM103 477a17 17 0 0 1 12.5.3c1 .6 2 .7 2.2.4a130 130 0 0 0 4.9-18.5c-.2-.2-1.5-.6-2.8-.8-2-.4-2.3-.3-2.5 1-.2 1.2-2.7 3-12.4 8.8-6.7 4-12.2 7.6-12 8 0 .4 3.9 1.9 5.6 2.1.3 0 2.3-.5 4.5-1.3Zm-2.6-22.4c1.5-1.1 1.4-1.8-.3-1.5-.8 0-1.5.7-1.6 1.3-.3 1.3.4 1.4 1.9.2Zm24.9-13c1.2-4.6 2.3-8.7 2.3-9.2 0-1-1.7-1.6-13.2-4.8-4.3-1.1-4.7-1.1-5.2-.2a80 80 0 0 0-4.1 17.3c.6.6 15.2 5 16.8 5 .8 0 1.6-1.8 3.4-8.1Zm70.6-94.4V339h-16v1.9c0 1.8.2 1.8 3 1.9 5.6 0 9.2 4.4 8.4 10l-.4 3.1 2.5-.2 2.5-.2Zm0 0"/><path style="stroke:none;fill-rule:nonzero;fill:#6a6f72;fill-opacity:1" d="M109.7 548.8c-7-9.6-6.7-8.7-3-11.9 3-2.5 4-4.5 2.5-5.4-.3-.2-.6-.8-.6-1.4 0-1 3.4-3.4 15.4-11 1.7-1 3-2.2 3-2.7s-2-2.8-4.6-5.2l-4.6-4.2-5.4.4c-6.6.5-9.8-.3-13.4-3.3-5.9-5.1-7-13.5-2.8-20a11 11 0 0 0 1.6-3c0-.4-1.6-1.2-3.6-1.7-2-.6-4.2-1.4-4.8-1.8-.9-.5-1.5-.4-2.9.4l-13.1 8c-10 6-12.6 7.8-21.4 15.8-5.5 5-10.2 9-10.4 9-.3 0-5.3 4.5-11.2 10-8.5 7.7-11.1 9.8-12 9.5-1.1-.4-1.3-.1-1.3 1.6 0 2.7-1.7 6-3.7 7.3-2 1.3-6.7 1.3-8.8 0-3.5-2.4-4.7-7.8-2.3-11.1 1.8-2.4 5.2-4 7.6-3.6 1.8.3 2.1.1 2.1-1.1 0-1.4 6.1-7.3 13.4-13.1l5.8-5.1a504.8 504.8 0 0 1 12.6-11.8 67 67 0 0 1 13.4-11.1c.6 0 1.2-.2 1.3-.5.1-.3 7.8-5 17-10.6 9.3-5.6 17.5-10.7 18.3-11.4.7-.7 2-3.2 2.6-5.5 1.4-4.5 1.1-4.4 7-3 3.2.7 3.5.7 4.3-.5 1.3-1.7.9-2.4-2.1-3.5-1.5-.5-2.8-1.1-3-1.3-.3-.3.1-2.4.8-4.8l2.7-9.7c2.1-8.1 1.7-7.7 6.5-6.3l6 1.9c2.7.8 3.6.2 6-3.8l8-12.8c6.8-11 39.7-55.3 41.5-55.8 1-.2 1.2-.9 1.2-3.2 0-1.8.5-3.8 1.3-5 .8-1.4 1.3-3.3 1.3-5.3 0-2.4.2-3.3 1.2-3.8 2-1 17.5-.8 18.4.3.5.6.7 3.8.6 10l-.2 9-5.1.4c-2.8.2-5.7.7-6.5 1.2-.7.4-2 .7-2.7.7-1 0-1.4.3-1.1 1.2.2.8-5 8.3-17.6 25.1-9.8 13.1-19 25.8-20.5 28.2a4867 4867 0 0 1-9.7 16 64 64 0 0 0-8.8 17.2c-1.5 5.4-1.7 5.7-3.3 5.7-2 0-3.5 1.5-3 2.8.2.6 1.5 1.3 3 1.7 1.3.3 2.6 1 2.8 1.2.2.4-.9 5.1-2.5 10.6-1.6 5.6-2.9 10.7-2.9 11.5 0 .7.9 3 2 5 1.4 2.7 1.9 4.4 1.9 7 0 4 .1 4.1 11 5.9a43.4 43.4 0 0 1 11.7 3.3c1.6.5 3 1.2 3.1 1.7.2.5-.6 3.8-1.9 7.3l-4.9 14.8c-1.5 4.5-3 8.8-3.5 9.6-.5.7-.6 1.6-.4 2 .2.3 3 2 6 3.7 3 1.7 5.5 3.5 5.5 3.9 0 1.2-3.8 7.2-4.5 7.2-.6 0-15.6-8.6-16.4-9.4-.2-.1.5-1.6 1.4-3.3 1-1.7 1.8-3.5 1.8-4 0-.6-1.3-1.6-3-2.4L127 531l-5.4 3.4c-3 1.9-5.8 4-6 4.5-.6 1 0 2.2 2.8 6 1.9 2.6 3.3 5.1 3.2 5.5-.3.8-6 4.9-6.7 4.9-.3 0-2.6-3-5.2-6.6Zm9.4.8A42 42 0 0 0 110 537c-1.4 0-4.7 2.6-4.3 3.5.1.4 2.3 3.6 4.8 7l4.5 6 2-1.2c1.3-.8 2-1.8 2-2.7ZM13 537.8a7 7 0 0 0 2.2-3.4c2-6.8-6.6-11.7-11.2-6.3-5.1 6.1 2.2 14 9 9.7Zm115.7-9.6a84.4 84.4 0 0 0 12.2-9c0-.5-.8-2.1-1.7-3.7-1.3-2-2.1-2.7-3-2.4-1.7.4-25.8 16.4-25.8 17.1 0 .3 1 2 2 3.7 1.4 2.2 2.3 3 3 2.7.6-.2 6.5-4 13.3-8.4Zm-103.4-4.8 8.5-7.6a331.9 331.9 0 0 0 17.9-15.6c11.5-10.7 11.2-10 7-14l-2.3-2.2-1.8 1.6c-13 11.8-27.8 25.1-28.7 25.6a87.4 87.4 0 0 0-12 11.4c0 .6 4.8 6 5.4 6 .1 0 2.9-2.3 6-5.2Zm109-11.9c.8-.9 0-1.8-6.7-8.6l-7.6-7.5-3 2.8c-1.5 1.5-2.8 3-2.8 3.2 0 .7 7.5 8.3 11 11.4l3.1 2.6 2.5-1.4c1.4-.8 3-2 3.4-2.5Zm-21-6.4c.3-.3 0-1-.6-1.7-.5-.7-1-1.6-1-2 0-1.6 7.6-8.4 9.1-8.2 1.2.2 1.3 0 1.2-2.2-.3-6-5.7-11.2-11.8-11.7a13 13 0 0 0-10.4 3.2c-9.9 8.6-2.3 25.2 10.6 23.4 1.2-.1 2.5-.5 2.8-.8Zm-26.4-29 23.7-14.2c2-1.2 3.6-2.5 3.6-2.9 0-1.3-3.2-6.6-4-6.6-1.3 0-48.8 28.6-49.1 29.6-.2.5.4 2.2 1.4 3.8 1.3 2.3 2 3 3 2.7.8-.1 10.4-5.7 21.4-12.3Zm15.9 1.7c3.8-1.5 9-1.4 12.4 0 1 .5 2.1 1 2.5 1 .3 0 1.7-4.3 3.2-9.5 3-10.7 3-10.8-1.5-11.5-2.5-.4-2.8-.3-2.5.5.7 1.7-1.2 3.1-13.3 10.3a75.1 75.1 0 0 0-11.6 7.7c0 .6 4.5 2.4 7 2.8l3.8-1.3Zm0-24c.5-.4-1.6-1.4-3-1.4-.8 0-1.5.5-1.7 1.5-.8 2.9-.5 3.1 2 1.6l2.7-1.6Zm23-11.9c1.3-4.5 2.3-8.8 2.4-9.6 0-1.2-1-1.6-9-3.9-7-2-9.3-2.4-9.9-1.8-1 1-5.4 16-5.1 17.7.1 1 1.5 1.7 8.4 3.7 4.6 1.3 8.9 2.4 9.6 2.3 1 0 1.6-1.4 3.6-8.4Zm70-94.6V339h-15.8v1.9c0 1.8.1 1.8 3 1.9 5.5 0 9 4.4 8.3 10l-.4 3.1 2.5-.2 2.5-.2Zm0 0"/><path style="stroke:none;fill-rule:nonzero;fill:#556672;fill-opacity:1" d="M113.9 554c-1.5-2-1.6-2.7-.3-1.5 1.4 1.2 1.5 1.2 3.6 0 2.5-1.3 3-2.5 2.1-4.3-.7-1.4-.7-1.4.6-.2 2 1.7 1.8 2.4-1.5 4.7-3.2 2.3-3.7 2.4-4.5 1.2Zm24.3-7a50.3 50.3 0 0 1-7.9-5c-.1-.4.5-2 1.4-3.8 2.1-3.8 2.1-4.3 0-5.2-1-.4-2.3-1.1-2.9-1.6-.9-.8-1.3-.8-3 .1-4.7 2.5-2 .2 6.3-5.4 5-3.2 9.1-6.1 9.3-6.4.6-1-3.6-6.9-4.7-6.9-.6 0-2.4.9-4 2l-4.4 2.8c-1.6.8-1.7.8-1.4-1 .2-1.2.5-1.7 1.1-1.5 1 .4 7.3-3.4 7.3-4.4 0-1-14.3-15-15.4-15-1.2 0-5.6 4.5-5.6 5.7 0 .6.9 1.8 2 2.8 1 1 1.8 2 1.8 2.2 0 .3-1 .4-9.5.7-4.1.1-7.4-1.1-10.1-3.9-3.2-3.2-4.1-5.5-4.2-10.4 0-3.7.3-5 1.8-7.9 1-1.8 1.6-3.8 1.5-4.2-.2-.5-1.6-1.2-3.1-1.6-1.5-.4-3.4-1.1-4.2-1.7-.8-.5-2-.8-2.4-.6-2.9 1.1 1.1-1.6 12.6-8.5 7-4.3 13.3-8.2 13.7-8.6.8-.7.6-1.3-1-3.9-1-1.7-2.4-3.1-3-3.2-.7-.1-4.6 1.8-8.6 4.2-4 2.5-7.4 4.3-7.5 4.2-.1-.1.2-.9.7-1.7.5-.8 1.4-3.1 2-5.1.6-2 1.3-3.7 1.7-3.7l4.2 1c3.2 1 3.5 1 4.7 0 1.5-1.4 1.6-3.4 0-4l-3-1.1-2-.8 1.4-5 3-10.3c.7-2.9 1.6-5.4 1.8-5.5.3-.2 2.2.2 4.2.9 5.6 1.8 8.4 2.2 9.5 1.3.8-.7 12.8-19.5 14.8-23.4.5-1 8.8-12.1 18.4-24.9 13.8-18.3 17.8-23.2 19-23.4 1.5-.2 1.6-.4 1.2-2.7-.3-2 0-3.3 1.2-6 1-2 1.6-4.5 1.6-6.3v-2.9h19.1l-.2 9.7-.2 9.7-2.2-.2c-1.2 0-3.6.1-5.4.5l-5.4 1.2c-1.8.4-2.2.7-2 1.9 0 1-5.3 8.6-17.8 25.4-10 13.3-19 25.8-20.3 27.8a2305.6 2305.6 0 0 0-15 24.7 38 38 0 0 0-3.4 8.2c-1.6 5.5-1.7 5.8-3.3 5.6-1.5-.2-3.6 1.7-3.6 3.2 0 .7 3.5 2.4 5 2.4 1.9 0 1.7 1.1-1.5 12.3-1.6 5.4-2.9 10.2-2.9 10.8 0 .5.7 2 1.6 3.3 1.8 2.8 2.8 6 2.8 9.3 0 1.6.4 2.6 1.2 3 .6.3 4.6 1.2 9 2 4.2.6 8.5 1.7 9.4 2.2 1 .5 2.8 1.4 4.2 1.9 2 .7 2.3 1.2 2 2l-5.2 15.5c-2.6 7.8-5.1 14.7-5.6 15.3-1.2 1.3-.6 1.9 6.5 6 2.9 1.6 5.2 3 5.2 3.1 0 .6-3.3 6-4 6.6-.5.4-3-.7-8.3-3.8Zm-24.9-41.9c.4-.3.2-1-.5-1.7-.5-.7-1-1.6-1-2 0-1.6 7.6-8.4 9.1-8.2 1.2.2 1.3 0 1.2-2.2-.3-6-5.7-11.2-11.8-11.7a13 13 0 0 0-10.4 3.2c-9.9 8.6-2.3 25.2 10.6 23.4 1.2-.1 2.5-.5 2.8-.8ZM103 477.8c3.8-1.5 9-1.4 12.4 0 1 .5 2.1 1 2.5 1 .3 0 1.7-4.3 3.2-9.5 3-10.7 3-10.8-1.5-11.5-2.5-.4-2.8-.3-2.5.5.7 1.7-1.2 3.1-13.3 10.3a75.1 75.1 0 0 0-11.6 7.7c0 .6 4.5 2.4 7 2.8l3.8-1.3Zm0-24c.5-.4-1.6-1.4-3-1.4-.8 0-1.5.5-1.7 1.5-.8 2.9-.5 3.1 2 1.6l2.7-1.6Zm23-11.9c1.3-4.5 2.3-8.8 2.4-9.6 0-1.2-1-1.6-9-3.9-7-2-9.3-2.4-9.9-1.8-1 1-5.4 16-5.1 17.7.1 1 1.5 1.7 8.4 3.7 4.6 1.3 8.9 2.4 9.6 2.3 1 0 1.6-1.4 3.6-8.4Zm70-94.6V339h-15.8v1.9c0 1.8.1 1.8 3 1.9 5.5 0 9 4.4 8.3 10l-.4 3.1 2.5-.2 2.5-.2Zm-86.3 200.5a47.5 47.5 0 0 1-5.4-8.2c0-.4.9-1.2 2-2 1.2-.7 2.7-1.8 3.3-2.5 1-1.2 1.1-1.5.3-3l-.9-2.2c0-.3 3-2.4 6.7-4.8 8.5-5.7 8.5-5.7 8-4.8-.2.4-3.3 2.6-6.8 4.8-4.2 2.8-6.3 4.6-6.3 5.3 0 .7.9 2.4 2 3.9 1.8 2.5 3.4 3.2 4.7 2.2l-.8 1c-1.8 1.8-1.8 3 0 5.4 2 2.5 2.5 3.6 2.1 3.6-.2 0-2-2.3-4.2-5.1-2.1-2.8-4.1-5-4.4-5-.8 0-4.5 3.1-4.5 3.8 0 .4 1.3 2.5 3 4.8a21 21 0 0 1 2.7 4.3c-.2.1-.8-.5-1.5-1.5Zm-96-10.5c2.9-2.8 3-6.3.5-9.2-2.3-2.8-2.4-6-.3-7.7 1.9-1.5 2.7-1.1 1.2.5-.6.7-1 1.6-1 2.1 0 1 4.3 5.7 5.2 5.7.3 0 1.9-1 3.5-2.4l3-2.3-2 2.1c-2.8 3.3-3.6 3.9-5.3 3.7-1.4-.1-1.6.1-1.8 1.7 0 1-.3 2.5-.5 3.3-.3 1.4-3 4.7-4 4.7-.3 0 .4-1 1.6-2.2Zm-10.2.1L2.2 536l1.4 1.2c1.3 1.1 1.7 1.7 1.2 1.7-.1 0-.8-.7-1.4-1.5Zm0-10a5 5 0 0 1 1.5-1.3c.2 0-.2.6-.8 1.3a5 5 0 0 1-1.5 1.3c-.2 0 .2-.6.8-1.3Zm5.3-2.3c.4-.2 1.1-.2 1.6 0 .4.2 0 .3-.8.3-1 0-1.3-.1-.8-.3Zm18-2.4c0-.1 1.1-1.2 2.6-2.3l2.7-2.1-2.2 2.3c-1.9 2-3.2 3-3.2 2.1Zm-8.1-6.2c1-1.3 2.2-2.5 2.7-2.7 1.7-.6.9.7-1.8 2.8l-2.7 2.2Zm15-.2c.5-.6 1.7-1.6 2.8-2.4l2-1.3-2.2 2.3c-2.1 2.3-4.2 3.4-2.6 1.4ZM125 513c-.8-1-.7-1 .3-.3.6.5 1 1 1 1.1 0 .6-.4.2-1.3-.8Zm-99-2.6c0-.7 1.4-2 2-2 1 0 .5 1.2-.7 1.9-.7.3-1.3.4-1.3.1Zm15.2-.4c0-.2 1-1 2.1-1.7l2-1.4-1.5 1.7c-1.3 1.5-2.6 2.1-2.6 1.4Zm-9.4-4.8c1.2-1.8 4-4 3.4-2.5-.2.5-1.3 1.6-2.4 2.5l-2 1.6Zm15.5-.7c.7-.8 2.1-2 3.2-2.7 1.6-1.1 1.5-1-.6 1.4-2.6 2.6-4.8 3.8-2.6 1.3Zm-9.2-5c0-.5 1.6-2.1 3.1-3 .6-.2.2.5-.9 1.6-2 2.1-2.2 2.3-2.2 1.5Zm15.9-1c.8-1 2.1-2 2.8-2.4.8-.4.4.3-1 1.7a9.3 9.3 0 0 1-2.7 2.3c-.4 0 0-.8.9-1.7Zm-8.7-6c1.4-1.4 2.8-2.6 3.2-2.6.8 0-2.8 3.8-4.4 4.6-.7.4-.1-.5 1.2-2Zm15.5-.1c.8-1 1.4-1.8 1.4-2.1 0-1-4.7-6.1-5.7-6.1-.6 0-1.9.9-2.9 2-1 1-2.1 1.8-2.5 1.8-.3 0 .8-1.3 2.5-2.8 1.7-1.6 3.4-2.7 3.7-2.5.4.3 1 0 1.4-.5.8-1 3.9-3 4.6-3 .3 0-.4.6-1.4 1.4l-1.9 1.5 2.4 3.6c1.3 2 2.7 3.6 3 3.6.4 0 2-.8 3.4-1.8 2-1.4 9.3-5.7 16-9.5a93.7 93.7 0 0 1-9.1 6.3L60.8 493l-1.5 1Zm4-14c.5-.6 4.5-3 8.8-5.6l9.6-5.7c1.4-.8 1.5-.8.6 0-.8.9-13.6 8.7-18.4 11.3-1.4.8-1.5.7-.6 0ZM85 466c0-.1.6-.6 1.3-1 .7-.3 1.2-.5 1.2-.3s-.5.6-1.2 1c-.7.3-1.3.5-1.3.3Zm3.5-2.2c.2-.4.7-.7 1-.7.4 0 .5.3.3.7-.3.3-.7.6-1 .6-.4 0-.5-.3-.3-.6Zm3.2-2c.2-.3.6-.6 1-.6.3 0 .4.3.2.7-.2.3-.6.6-1 .6-.3 0-.5-.3-.2-.6Zm0 0"/><path style="stroke:none;fill-rule:nonzero;fill:#3b464e;fill-opacity:1" d="M142.3 549.2a302.3 302.3 0 0 1-11.8-7.1c-.2-.4.5-2.1 1.4-3.9 2-3.5 1.6-5.2-1-5.6-.8-.1-1.6-.6-1.8-1.1-.1-.5-.7-1-1.2-1-1.7 0-.2-1.2 6.8-5.7 4-2.6 7-5 7-5.5 0-1.5-3.9-7.1-5-7.1-.4 0-1.6.4-2.5 1-1.7 1-1.7 1-.3-.1.7-.6 1.4-1.6 1.4-2.1 0-1-14.4-16-15.4-16s-6.2 5.3-6.2 6.4c0 .7.8 1.8 1.9 2.6 2.3 1.7 2.4 2.4.3 2.4-1.1 0-1.6-.3-1.6-1.1a3 3 0 0 0-1-2c-1.5-1.3-1.1-2 2.8-6 3.3-3.2 4-3.6 5.5-3.2 1 .2 1.9.8 2 1.3.5 1.3 7.2 3 14.5 3.7 1.8.2 4.6 1 6.4 2 1.7.8 3.5 1.5 4 1.5 1.2 0 1 1.2-1.4 8l-4.8 15c-1.6 4.7-3.3 9-4 9.5-1.1 1-1.1 1 0 2 .6.5 3.4 2.2 6.1 3.7 2.8 1.6 5.1 3.1 5.3 3.5.4 1-2.6 6.3-3.7 6.4a10 10 0 0 1-3.7-1.5Zm4.7-1.6c.6-.8 1-1.8 1-2.4a57 57 0 0 0-13-8.1c-.8-.2-3.4 4-2.9 4.5.9.8 12.5 7.4 13.2 7.4.4 0 1.2-.6 1.7-1.4Zm-7-19.4c.8-2.7 1.4-5 1.3-5.2-.3-.2-8.3 4.9-9.6 6.2-.5.5-.9 1-.9 1.4 0 .5 5 2.3 6.8 2.5.5 0 1.5-2.2 2.4-4.9Zm5.8-17.7a200 200 0 0 0 2.2-6.4c0-.6-7-2.2-7.6-1.7-.3.3-1 2-1.5 3.9-.9 3-.8 3.3.3 4.3.6.6 1.2 1.4 1.2 1.8 0 1 2.5 5 3 4.6a62 62 0 0 0 2.4-6.5Zm-9-6.4c.6-1.6.8-3.2.6-3.4a49 49 0 0 0-9.8-1.9c-.5 0 1 1.9 3.2 4.1 2.3 2.3 4.3 4.2 4.6 4.2.2 0 .9-1.4 1.4-3Zm-32.6 35.8 1-1.1c1-.8 1.1-.8.3.2s-1.3 1.4-1.3.9Zm8-1.7c-.6-1-1.5-1.9-2-1.9-.8 0-.8-.3-.2-1.6 1-2 1.4-2 3 .7.8 1.2 1.7 2.2 2 2.2.2 0 .3.6.1 1.3-.4 1.8-1.6 1.5-2.9-.7Zm-3.3-8.2c.2-.4.5-.7.7-.7.1 0 .3.3.3.7 0 .3-.3.6-.7.6-.4 0-.5-.3-.3-.6Zm-94.5-2.2c-1.8-2.3-1.7-4 .2-3 .6.4 1.7 1.5 2.4 2.5 1.3 1.8 1.3 1.9.1 2.2-.9.2-1.7-.3-2.7-1.7Zm5.9 1.3c0-.2.5-.7 1-1.1 1-.8 1.1-.8.3.2s-1.3 1.4-1.3.9Zm-7.7-6.6c0-.4.5-1 1.2-1.5 1-.8 1-.8.1.4l-1 1.5c-.2.2-.3 0-.3-.4Zm115-5.8c0-.3.7-.7 1.4-1 1-.2 1.1-.1.5.6-.8 1-1.8 1.2-1.8.4Zm-65.1-26c.4-.7-2.8-4.9-5-6.7-1.3-1.1-1.3-1.1 0-.8 1 .3 1.5 0 1.8-1 .5-1.5.5-1.5 1 .2.6 2 3 5.6 4.4 6.8.9.7.9.8 0 1.4-1.1.7-2.7.8-2.2 0Zm35.3-8c.4-.6.6-1.6.3-2.4-.3-.9-.2-1.2.3-.9.4.2 2.3-.1 4.2-.9a16 16 0 0 1 12.2 0c1.5.7 3.1 1.2 3.5 1 .4 0 .9.6 1 1.4.2 1.5-.8 2-1.5.7-.9-1.4-5.8-3-9-3.1-3.3 0-9.5 2.5-10.2 4.2-.2.5-.6.9-1 .9-.3 0-.3-.4.2-1Zm-7.9-6c-1-1.2-.7-1.4 5.5-5a1303 1303 0 0 0 16.9-10c1.6-1 2.6-2 2.6-2.7 0-1.7-3.4-6.9-4.4-7-.5-.2-4 1.6-7.9 4a79.1 79.1 0 0 1-7.5 4c-.2 0-.1-.7.3-1.5.4-1 1.2-1.6 2-1.5.8 0 2.4-.6 3.7-1.4 2.4-1.4 3.1-2.8 1.6-3.3-.4-.2.5-.3 2-.2 2.8 0 3-.1 3.7-2.2.4-1.2 1.1-2.2 1.6-2.1 1.1.1 11 2.9 11.3 3.2.1 0-.4.9-1.2 1.7-1 1-1.4 2-1.2 2.9.3 1 0 1.3-1.2 1.3-1.4 0-1.6.2-1.2 1.5.3 1.2 0 1.8-1 2.5l-12.4 7.4c-10.3 6.2-12.1 7.6-11.3 9 .6 1-.8.6-1.9-.6Zm28.2-24.3c0-.5-4.5-2-4.9-1.6-.5.5.8 2.4 2 2.9 1.3.5 3-.2 3-1.3Zm6 8.3c.1-.5 0-1.5-.4-2-.3-.8-.3-1.2.2-1.2 1 0 1.4 1.7.6 3-.4.7-.6.8-.5.2Zm-26.3-9.3c0-1 1.6-1.2 2.2-.3.2.3-.2.7-1 .9-.8.2-1.2 0-1.2-.6Zm30.3-15.8c.6-1.9.8-3.8.7-4.3-.2-.5-1.8-1.3-3.5-1.7-4.1-1.2-4.1-1.2-2.6-2.8 1.3-1.3 5.5-8 9.7-15 4.4-7.5 10-15.4 25-35.3 11.3-15 16.2-21 17.3-21.3 1.4-.3 1.5-.6 1.4-3.3-.2-1.9.2-3.7.9-5 .6-1.2 1.3-3.8 1.5-5.7l.3-3.5 9.4-.1 9.4-.2-.4 19.4-2.8-.2c-1.6-.1-4.5.3-6.6.8-2 .5-4.2 1-4.8 1-1.6 0-2.3 1-1.4 2.1.6.7-3.2 6-16.2 23.3-9.4 12.4-18 24.1-19.3 26.2l-9.2 15-7.7 12.7c-1.6 2.5-2.1 1.5-1-2Zm9.7-14.7c3.2-5 5.8-9.5 5.8-9.8 0-.7-5-3.8-6-3.8-.7 0-11.8 17-13 19.8-.1.3 1.1.8 2.7 1.2 1.6.4 3 1 3.3 1.3.2.3.6.6.9.6.3 0 3.1-4.2 6.3-9.3Zm25.1-36.1a579.6 579.6 0 0 0 16.9-23.2c0-.7-4.7-4.5-5.6-4.5-.7 0-34.5 44.8-34.5 45.7 0 .6 5 4.4 5.9 4.5.3 0 8-10.1 17.3-22.5Zm24.5-29.5c4.8-4.8.3-12.3-6-10.3-2.8 1-4.2 2.8-4.2 5.8 0 5.6 6.3 8.4 10.2 4.5Zm8.6-8V339h-16v1.9c0 1.8.2 1.8 3 1.9 5.6 0 9.2 4.4 8.4 10l-.4 3.1 2.5-.2 2.5-.2Zm0 0"/><path style="fill-rule:nonzero;fill:#b6d7a8;fill-opacity:1;stroke-width:2.267717;stroke-linecap:butt;stroke-linejoin:round;stroke:#3b464e;stroke-opacity:1;stroke-miterlimit:4" d="M191.2 350.3a7.4 7.4 0 1 1-14.9 0 7.4 7.4 0 0 1 14.9 0Zm0 0"/><path style="fill-rule:nonzero;fill:#b6d7a8;fill-opacity:1;stroke-width:2.267717;stroke-linecap:butt;stroke-linejoin:round;stroke:#3b464e;stroke-opacity:1;stroke-miterlimit:4" d="M191.2 350.3a7.4 7.4 0 1 1-14.9 0 7.4 7.4 0 0 1 14.9 0Zm0 0"/><use xlink:href="#ac" x="229.8" y="104.1" style="fill:#000;fill-opacity:1"/><use xlink:href="#ad" x="247.8" y="104.1" style="fill:#000;fill-opacity:1"/><g style="fill:#000;fill-opacity:1"><use xlink:href="#ae" x="258.2" y="104.1"/><use xlink:href="#af" x="270.9" y="104.1"/></g><use xlink:href="#ag" x="284.4" y="104.1" style="fill:#000;fill-opacity:1"/><g style="fill:#000;fill-opacity:1"><use xlink:href="#ah" x="302.5" y="104.1"/><use xlink:href="#ai" x="313.8" y="104.1"/><use xlink:href="#aj" x="326.5" y="104.1"/><use xlink:href="#ak" x="339.2" y="104.1"/><use xlink:href="#al" x="351.9" y="104.1"/><use xlink:href="#am" x="364.7" y="104.1"/><use xlink:href="#aj" x="371.7" y="104.1"/></g><use xlink:href="#an" x="261.7" y="172.7" style="fill:#000;fill-opacity:1"/><g style="fill:#000;fill-opacity:1"><use xlink:href="#ad" x="275.6" y="172.7"/><use xlink:href="#ao" x="286.9" y="172.7"/></g><g style="fill:#000;fill-opacity:1"><use xlink:href="#al" x="298" y="172.7"/><use xlink:href="#ai" x="310.7" y="172.7"/><use xlink:href="#aj" x="323.4" y="172.7"/><use xlink:href="#ap" x="336.1" y="172.7"/><use xlink:href="#aq" x="342.5" y="172.7"/></g><g style="fill:#000;fill-opacity:1"><use xlink:href="#al" x="358.2" y="172.7"/><use xlink:href="#al" x="370.9" y="172.7"/><use xlink:href="#ar" x="383.6" y="172.7"/></g><use xlink:href="#as" x="394.7" y="172.7" style="fill:#000;fill-opacity:1"/><g style="fill:#000;fill-opacity:1"><use xlink:href="#ah" x="402.7" y="172.7"/><use xlink:href="#ak" x="413.9" y="172.7"/><use xlink:href="#ad" x="426.7" y="172.7"/></g><g style="fill:#000;fill-opacity:1"><use xlink:href="#ah" x="437.8" y="172.7"/><use xlink:href="#aj" x="449.1" y="172.7"/></g><g style="fill:#000;fill-opacity:1"><use xlink:href="#at" x="81.1" y="40.5"/><use xlink:href="#au" x="98" y="40.5"/><use xlink:href="#av" x="110.8" y="40.5"/></g><use xlink:href="#av" x="119.9" y="40.5" style="fill:#000;fill-opacity:1"/><g style="fill:#000;fill-opacity:1"><use xlink:href="#ad" x="128.2" y="40.5"/><use xlink:href="#ai" x="139.5" y="40.5"/><use xlink:href="#af" x="152.2" y="40.5"/><use xlink:href="#ap" x="159.3" y="40.5"/><use xlink:href="#ag" x="165.6" y="40.5"/></g><g style="fill:#000;fill-opacity:1"><use xlink:href="#ah" x="183.8" y="40.5"/><use xlink:href="#ai" x="195.1" y="40.5"/><use xlink:href="#aj" x="207.8" y="40.5"/><use xlink:href="#ak" x="220.5" y="40.5"/><use xlink:href="#al" x="233.2" y="40.5"/><use xlink:href="#am" x="245.9" y="40.5"/><use xlink:href="#aj" x="253" y="40.5"/></g><path style="fill:none;stroke-width:5.669291;stroke-linecap:butt;stroke-linejoin:miter;stroke:#333;stroke-opacity:1;stroke-dasharray:5.669291,11.338583;stroke-miterlimit:4" d="m108.8 184.7 171-54M108.8 186.8l328.4 3"/><path style="fill-rule:nonzero;fill:#d9494d;fill-opacity:1;stroke-width:2.267717;stroke-linecap:butt;stroke-linejoin:round;stroke:#000;stroke-opacity:1;stroke-miterlimit:4" d="M179.5 55H197v17.5h-17.5ZM286.9 122.8h17.5v17.5H287ZM442.2 181.8h17.6v17.6h-17.6Zm0 0"/><path style="fill:none;stroke-width:2.877165;stroke-linecap:round;stroke-linejoin:round;stroke:#556672;stroke-opacity:1;stroke-miterlimit:4" d="M147.1 140.4 131.9 123l21.3 8.2-15.3-17.6 21.3 8.6-15.4-17 13 3"/><path style="fill:none;stroke-width:2.877165;stroke-linecap:round;stroke-linejoin:miter;stroke:#556672;stroke-opacity:1;stroke-miterlimit:4" d="m147.1 140.4-13.3-3"/><path style="fill:none;stroke-width:2.877165;stroke-linecap:butt;stroke-linejoin:miter;stroke:#556672;stroke-opacity:1;stroke-miterlimit:4" d="m133.7 137.4-27 35M185 72.1l-28 36.2"/><path style="fill-rule:nonzero;fill:#6f87a5;fill-opacity:1;stroke-width:2.267717;stroke-linecap:butt;stroke-linejoin:round;stroke:#3b464e;stroke-opacity:1;stroke-miterlimit:4" d="M114.8 182.9a13 13 0 1 1-26.1 0 13 13 0 0 1 26 0Zm0 0"/><path style="fill:none;stroke-width:5.669291;stroke-linecap:butt;stroke-linejoin:miter;stroke:#000;stroke-opacity:1;stroke-dasharray:5.669292,5.669292;stroke-miterlimit:4" d="M292.5 273h29.4M647.8 273h29.4"/></svg>